<?xml version="1.0" standalone="no"?>
<!DOCTYPE svg PUBLIC "-//W3C//DTD SVG 1.1//EN" "http://www.w3.org/Graphics/SVG/1.1/DTD/svg11.dtd" >
<svg xmlns="http://www.w3.org/2000/svg">
<metadata>
Created by FontPrep 20130207 at Sat Apr 11 15:15:28 2015
 By Christoph
Copyright (c) 2015 by Volkswagen AG. All rights reserved.
</metadata>
<defs>
<font id="194f5394ae2e9c74dc3c441b92862d1d" >
  <font-face 
    font-family="Font"
    font-weight="300"
    font-stretch="normal"
    units-per-em="2048"
    panose-1="2 11 3 4 4 2 0 0 0 3"
    ascent="1638"
    descent="-410"
    x-height="987"
    cap-height="1393"
    bbox="-340 -451 2005 1856"
    underline-thickness="102"
    underline-position="-123"
    unicode-range="U+0020-FB02"
  />
<missing-glyph horiz-adv-x="1193" 
d="M901 119v1155h-608v-1155h608zM174 1393h846v-1393h-846v1393z" />
    <glyph glyph-name=".notdef" horiz-adv-x="1193" 
d="M901 119v1155h-608v-1155h608zM174 1393h846v-1393h-846v1393z" />
    <glyph glyph-name="glyph1" horiz-adv-x="0" 
 />
    <glyph glyph-name="glyph2" horiz-adv-x="534" 
 />
    <glyph glyph-name="space" unicode=" " horiz-adv-x="522" 
 />
    <glyph glyph-name="exclam" unicode="!" horiz-adv-x="491" 
d="M145 74q0 45 28 74.5t75 29.5t74.5 -29.5t27.5 -74.5t-27.5 -75t-74.5 -30t-75 30t-28 75zM186 1393h115v-387l-22 -611h-70l-23 611v387z" />
    <glyph glyph-name="quotedbl" unicode="&#x22;" horiz-adv-x="720" 
d="M451 1393h112v-217l-22 -353h-68l-22 353v217zM158 1393h112v-217l-22 -353h-68l-22 353v217z" />
    <glyph glyph-name="numbersign" unicode="#" horiz-adv-x="1267" 
d="M426 489h291l117 443h-295zM184 0v10l99 383h-183l-2 96h211l113 443h-199l-2 96h228l96 365h112v-11l-92 -354h291l96 365h113v-11l-92 -354h194l2 -96h-223l-112 -443h213l2 -96h-242l-102 -393h-113v10l102 383h-295l-102 -393h-113z" />
    <glyph glyph-name="dollar" unicode="$" 
d="M844 346q0 148 -79 201t-134 80v-537q96 20 154.5 87t58.5 169zM301 1057q0 -94 48.5 -149.5t176.5 -106.5v506q-109 -16 -167 -86t-58 -164zM273 1298.5q93 104.5 253 120.5v158h105v-156q164 -10 307 -114l-55 -93q-123 84 -252 95v-553q334 -111 334 -406
q0 -139 -91.5 -243.5t-242.5 -131.5v-196h-105v190q-215 7 -374 160l61 88q66 -59 137.5 -95t175.5 -40v590l-63 28q-136 58 -209.5 138.5t-73.5 218.5q0 137 93 241.5z" />
    <glyph glyph-name="percent" unicode="%" horiz-adv-x="1495" 
d="M309 0v12l778 1381h107v-13l-780 -1380h-105zM106 1051q0 168 69 259t194 91t193 -91t69 -259q0 -168 -69 -260q-70 -93 -194 -93t-193 92t-69 261zM211 1051q0 -133 38 -195t120 -63q81 0 119 62q38 61 38 195t-38 195t-120 61t-119 -60q-38 -62 -38 -195zM864 334
q0 168 69 259t193 91t194 -91q69 -91 69 -259t-69 -260t-194 -92q-126 0 -194 92t-68 260zM969 334q0 -134 38 -196q37 -62 119 -62t120 62t38 196t-38 194q-38 62 -120 62t-120 -62t-37 -194z" />
    <glyph glyph-name="ampersand" unicode="&#x26;" horiz-adv-x="1292" 
d="M377 1116q0 -80 29.5 -141.5t95.5 -140.5l33 -41l106 75q145 102 145 219t-56 171.5t-150 54.5t-148.5 -58.5t-54.5 -138.5zM493.5 80q112.5 0 196.5 54t154 140l-326 381l-72 -51q-104 -74 -149 -142.5t-45 -160.5t64.5 -156.5t177 -64.5zM1225 0h-142l-163 190
q-180 -221 -428 -221q-171 0 -266 97t-95 241q0 180 100.5 266t151.5 121l59 43l-28 33q-158 182 -158 322q0 143 89.5 237t237.5 94q147 0 235.5 -90.5t88.5 -232.5q0 -175 -200 -314l-99 -71l303 -353q59 95 148 283l100 -51q-96 -202 -172 -315l238 -267v-12z" />
    <glyph glyph-name="quotesingle" unicode="'" horiz-adv-x="428" 
d="M158 1393h112v-217l-22 -353h-68l-22 353v217z" />
    <glyph glyph-name="parenleft" unicode="(" horiz-adv-x="555" 
d="M258 506.5q0 -488.5 191 -907.5l-87 -45q-107 228 -148.5 385t-59 288t-17.5 347.5t59 440t166 451.5l87 -45q-191 -426 -191 -914.5z" />
    <glyph glyph-name="parenright" unicode=")" horiz-adv-x="555" 
d="M297 513.5q0 488.5 -191 907.5l87 45q107 -228 148.5 -385t59 -288t17.5 -347.5t-59 -440t-166 -451.5l-87 45q191 426 191 914.5z" />
    <glyph glyph-name="asterisk" unicode="*" horiz-adv-x="790" 
d="M440 1434l-6 -217l2 -3l176 115l41 -80l-178 -102v-4l178 -96l-47 -82l-170 116l-2 -2l6 -215h-90l6 215l-2 2l-170 -116l-47 82l178 96v4l-178 102l41 80l176 -115l2 3l-6 217h90z" />
    <glyph glyph-name="plus" unicode="+" 
d="M614 600h379v-98h-379v-422h-104v422h-379v98h379v420h104v-420z" />
    <glyph glyph-name="comma" unicode="," horiz-adv-x="448" 
d="M301 139v-12l-100 -457h-95v15l64 454h131z" />
    <glyph glyph-name="hyphen" unicode="-" horiz-adv-x="813" 
d="M164 506v98h485v-98h-485z" />
    <glyph glyph-name="period" unicode="." horiz-adv-x="483" 
d="M139 74q0 45 28 74.5t75 29.5t74.5 -29.5t27.5 -74.5t-27.5 -75t-74.5 -30t-75 30t-28 75z" />
    <glyph glyph-name="slash" unicode="/" horiz-adv-x="714" 
d="M78 0v20l454 1373h105v-21l-453 -1372h-106z" />
    <glyph glyph-name="zero" unicode="0" 
d="M84 696q0 170 29.5 305.5t89 228.5t149.5 143t211 50t211 -50t149.5 -143t89 -228.5t29.5 -305.5t-29.5 -305t-89 -228t-149.5 -143.5t-211 -50.5t-211 50.5t-149.5 143.5t-89 228t-29.5 305zM922 696.5q0 614.5 -358.5 614.5t-358.5 -614.5t358.5 -614.5t358.5 614.5z
" />
    <glyph glyph-name="one" unicode="1" 
d="M242 1163v107l313 123h109v-1284h274v-109h-700v109h311v1167h-4l-291 -113h-12z" />
    <glyph glyph-name="two" unicode="2" 
d="M166 1257q166 166 358 166t304 -112.5t112 -288.5q0 -133 -56.5 -238.5t-150.5 -210.5l-416 -460v-4h613v-109h-766v100l473 535q104 122 143 198t39 163q0 153 -81 234t-210 81q-163 0 -297 -137z" />
    <glyph glyph-name="three" unicode="3" 
d="M834 364q0 301 -304 300h-215v108h226q127 0 195.5 74t68.5 192t-71.5 195.5t-217.5 77.5q-147 0 -305 -86l-39 98q68 41 165 70.5t195 29.5q189 0 291.5 -105.5t102.5 -279.5q0 -117 -53.5 -197.5t-139.5 -117.5v-4q96 -31 158.5 -119t62.5 -204q0 -207 -123.5 -317
t-328.5 -110t-371 115l49 96q152 -98 353 -98q200 0 250.5 110t50.5 172z" />
    <glyph glyph-name="four" unicode="4" 
d="M743 1004h115v-596h176v-109h-176v-299h-115v299h-649v86l414 1008h119l-400 -981v-4h516v596z" />
    <glyph glyph-name="five" unicode="5" 
d="M500 713q-119 0 -252 -25l-12 19l79 686h598v-109h-499l-58 -471q87 12 148 12q454 0 454 -419q0 -212 -134 -324.5t-336 -112.5t-349 84l37 103q151 -74 307 -74q250 0 302.5 118.5t52.5 205.5q0 156 -82 231.5t-256 75.5z" />
    <glyph glyph-name="six" unicode="6" 
d="M250 430q0 -156 85 -252t234.5 -96t234.5 96t85 252t-85 252t-234.5 96t-234.5 -96t-85 -252zM594 891q84 0 163 -33t166 -126t87 -300t-118.5 -335t-321.5 -128t-322 127t-119 334q0 137 39 238.5t98 199.5l309 525h134v-13l-353 -573l2 -2q86 86 236 86z" />
    <glyph glyph-name="seven" unicode="7" 
d="M829 1284h-659v109h784v-95l-469 -1298h-118v14l462 1266v4z" />
    <glyph glyph-name="eight" unicode="8" 
d="M563 1313q-282 0 -282 -262q0 -125 70.5 -194t212 -69t213 69t71.5 195t-71.5 193.5t-213.5 67.5zM866 1319q103 -104 103 -271t-76 -230.5t-109 -78.5v-4q104 -41 169 -136t65 -201t-26.5 -180.5t-83 -129.5t-142.5 -87t-255.5 -32t-284.5 113t-115 295q0 127 64.5 222
t168.5 136v4q-70 30 -127 111.5t-57 180.5q0 98 24.5 165.5t102.5 147t277 79.5t302 -104zM564 80q173 0 253 84t80 216t-80 216t-254 84t-253 -84t-79 -216t80 -216t253 -84z" />
    <glyph glyph-name="nine" unicode="9" 
d="M877 963q0 155 -85 251q-84 96 -234 96t-235 -96t-85 -252t85 -251q85 -97 234 -97t235 96t85 253zM117 962q0 104 31 188q62 171 225 240q82 34 184 34q204 -1 323 -129t117 -332q0 -137 -39 -239t-98 -200l-309 -524h-133v12l352 574l-2 2q-87 -86 -235 -86
q-84 0 -163 33t-135 93t-87 145t-31 189z" />
    <glyph glyph-name="colon" unicode=":" horiz-adv-x="536" 
d="M166 913q0 45 28 75t74 30t75 -30q28 -30 28 -75t-28 -75t-75 -29q-46 -1 -74 29t-28 75zM166 74q0 44 28 74t74 30t75 -30q28 -30 28 -74t-28 -75q-28 -30 -75 -30q-46 0 -74 30t-28 75z" />
    <glyph glyph-name="semicolon" unicode=";" horiz-adv-x="546" 
d="M352 139v-12l-100 -457h-94v15l63 454h131zM180 913q0 45 28 75t75 30t75 -30t27 -75q0 -45 -28 -75q-29 -30 -75 -29q-46 -1 -74 29t-28 75z" />
    <glyph glyph-name="less" unicode="&#x3c;" 
d="M969 1012v-109l-731 -348v-6l731 -348v-109h-11l-849 418v86l849 416h11z" />
    <glyph glyph-name="equal" unicode="=" 
d="M133 285v98h860v-98h-860zM133 729v98h860v-98h-860z" />
    <glyph glyph-name="greater" unicode="&#x3e;" 
d="M158 92v109l731 348v6l-731 348v109h10l850 -416v-86l-850 -418h-10z" />
    <glyph glyph-name="question" unicode="?" horiz-adv-x="870" 
d="M281 67q0 46 24.5 71.5t68.5 25.5t68.5 -25.5t24.5 -71.5t-24.5 -72t-68.5 -26t-68.5 26t-24.5 72zM80 1307q147 116 318 116t268.5 -111t97.5 -278q0 -292 -326 -413l-14 -218h-98l-4 289q152 53 211 106.5t84.5 108t25.5 151.5t-60.5 175t-193.5 78t-256 -92z" />
    <glyph glyph-name="at" unicode="@" horiz-adv-x="1878" 
d="M649 465q0 -117 58.5 -180.5t144.5 -63.5t141.5 25.5t98.5 52.5l86 549q-106 84 -200 84q-95 0 -212 -77.5t-117 -389.5zM930 1034q144 0 278 -100l29 78h90l-106 -619q-33 -192 82 -192q117 0 217 135t100 394t-165.5 445.5t-465.5 186.5q-349 0 -547 -239.5
t-198 -606.5q0 -297 179 -498.5t441 -201.5q135 0 221 29.5t140 58.5l41 -94q-118 -64 -230 -80.5t-172 -16.5q-160 0 -295 61.5t-233 169t-153.5 255t-55.5 329.5t56.5 353.5t165 301.5t269 205.5t356.5 75.5q366 0 564.5 -212.5t198.5 -519.5q0 -308 -136.5 -471
t-288.5 -163t-192 119h-4q-148 -98 -297 -98q-194 0 -240.5 133t-46.5 234q0 220 108.5 384t289.5 164z" />
    <glyph glyph-name="A" unicode="A" horiz-adv-x="1181" 
d="M588 1255l-101 -329l-155 -451h518l-156 451l-100 329h-6zM1133 0h-119l-129 369h-588l-129 -369h-119l483 1393h117z" />
    <glyph glyph-name="B" unicode="B" horiz-adv-x="1185" 
d="M575 760q147 0 231.5 57t84.5 204.5t-84 205t-232 57.5h-251v-524h251zM584 1393q205 0 316.5 -89.5t111.5 -275.5q0 -123 -54.5 -200.5t-126.5 -106.5v-4q106 -33 168 -118t62 -197q0 -201 -112.5 -301.5t-289.5 -100.5h-450v1393h375zM653 109q127 0 207 66.5t80 205.5
t-80 204.5t-207 65.5h-329v-542h329z" />
    <glyph glyph-name="C" unicode="C" horiz-adv-x="1148" 
d="M141 696q0 343 148 535t424 192q171 0 321 -88l-41 -96q-131 72 -263 72t-216 -42t-140.5 -122t-84 -193.5t-27.5 -331.5t113.5 -379t337.5 -161q150 0 280 72l41 -97q-150 -88 -305 -88q-291 0 -439.5 192t-148.5 535z" />
    <glyph glyph-name="D" unicode="D" horiz-adv-x="1333" 
d="M506 109q317 0 441 144.5t124 443t-125 443t-440 144.5h-182v-1175h182zM209 1393h319q512 0 588 -265.5t76 -520.5t-158.5 -431t-505.5 -176h-319v1393z" />
    <glyph glyph-name="E" unicode="E" horiz-adv-x="1134" 
d="M991 1393v-109h-667v-516h608v-109h-608v-550h673v-109h-788v1393h782z" />
    <glyph glyph-name="F" unicode="F" horiz-adv-x="1079" 
d="M987 1393v-109h-663v-530h604v-109h-604v-645h-115v1393h778z" />
    <glyph glyph-name="G" unicode="G" horiz-adv-x="1265" 
d="M725 666h385v-574q-78 -53 -190.5 -88t-240.5 -35q-255 0 -396.5 196t-141.5 528q0 331 143.5 530.5t411.5 199.5q219 0 400 -125l-52 -94q-174 107 -348 107q-206 0 -320 -164t-114 -449t107.5 -450.5t302.5 -165.5t323 76v399l-270 23v86z" />
    <glyph glyph-name="H" unicode="H" horiz-adv-x="1368" 
d="M1044 655h-720v-655h-115v1393h115v-629h720v629h115v-1393h-115v655z" />
    <glyph glyph-name="I" unicode="I" horiz-adv-x="532" 
d="M324 0h-115v1393h115v-1393z" />
    <glyph glyph-name="J" unicode="J" horiz-adv-x="915" 
d="M600 371v1022h115v-1033q0 -193 -96.5 -292t-243.5 -99t-223 58.5t-97 81.5l62 86q107 -113 232 -113q124 0 187.5 65.5t63.5 223.5z" />
    <glyph glyph-name="K" unicode="K" horiz-adv-x="1107" 
d="M324 655v-655h-115v1393h115v-684h4l567 684h137v-13l-581 -690l606 -678v-12h-150l-579 655h-4z" />
    <glyph glyph-name="L" unicode="L" horiz-adv-x="1001" 
d="M324 1393v-1284h610v-109h-725v1393h115z" />
    <glyph glyph-name="M" unicode="M" horiz-adv-x="1630" 
d="M1421 1393v-1393h-114v971l14 217h-4l-453 -838h-98l-453 838h-4l15 -217v-971h-115v1393h110l375 -666l119 -252h4l119 252l375 666h110z" />
    <glyph glyph-name="N" unicode="N" horiz-adv-x="1366" 
d="M1042 1393h115v-1393h-110l-734 1190h-4l15 -242v-948h-115v1393h110l730 -1190h4l-11 241v949z" />
    <glyph glyph-name="O" unicode="O" horiz-adv-x="1363" 
d="M143 696.5q0 153.5 29 286.5t92.5 230.5t165.5 153.5t251.5 56t252 -56t166 -153.5t92.5 -230.5t29 -286.5t-29 -287t-92.5 -230.5t-166 -153.5t-252 -56.5t-251.5 56.5t-165.5 153.5t-92.5 230.5t-29 287zM264 696q0 -131 19.5 -242.5t67.5 -194.5t128 -130t203 -47
t203 47t128 130t67.5 194.5t19.5 242.5t-19.5 243t-67.5 195t-128 130t-203 47t-203 -47t-128 -130t-67.5 -195t-19.5 -243z" />
    <glyph glyph-name="P" unicode="P" horiz-adv-x="1136" 
d="M913 981q0 303 -307 303h-282v-604h282q168 0 237.5 83t69.5 218zM209 0v1393h405q203 0 311.5 -104.5t108.5 -307.5t-109.5 -306.5t-310.5 -103.5h-290v-571h-115z" />
    <glyph glyph-name="Q" unicode="Q" horiz-adv-x="1363" 
d="M264 696q0 -131 19.5 -242.5t67.5 -194.5t128 -130t203 -47t203 47t128 130t67.5 194.5t19.5 242.5t-19.5 243t-67.5 195t-128 130t-203 47t-203 -47t-128 -130t-67.5 -195t-19.5 -243zM143 787q0 422 194.5 529t410 107t344.5 -198t129 -529q0 -403 -122 -531t-214 -163
l329 -192l-63 -103l-426 264q-12 -2 -15 -2h-28q-280 0 -409.5 198t-129.5 620z" />
    <glyph glyph-name="R" unicode="R" horiz-adv-x="1210" 
d="M643 737q301 -1 301 273t-301 274h-319v-547h319zM209 0v1393h440q294 0 355 -142.5t61 -240.5q0 -166 -91 -260.5t-251 -112.5l420 -623v-14h-131l-416 629h-272v-629h-115z" />
    <glyph glyph-name="S" unicode="S" horiz-adv-x="1046" 
d="M842 1214q-142 97 -285 97t-220 -73t-77 -173q0 -101 48 -156.5t167 -103.5l133 -55q233 -94 274.5 -207t41.5 -231t-114.5 -230.5t-293.5 -112.5q-243 0 -405 160l61 88q70 -66 148.5 -100.5t199.5 -34.5t202 71.5t81 186.5t-54.5 178.5t-177.5 116.5l-149 65
q-136 58 -209.5 138.5t-73.5 226.5t110.5 252t293.5 106q123 0 205.5 -34.5t148.5 -81.5z" />
    <glyph glyph-name="T" unicode="T" horiz-adv-x="1028" 
d="M958 1393v-109h-387v-1284h-114v1284h-387v109h888z" />
    <glyph glyph-name="U" unicode="U" horiz-adv-x="1339" 
d="M670 -31q-244 0 -357.5 135.5t-113.5 366.5v922h114v-912q0 -195 85 -297t271.5 -102t271.5 102.5t85 296.5v912h115v-922q0 -364 -175 -433t-296 -69z" />
    <glyph glyph-name="V" unicode="V" horiz-adv-x="1169" 
d="M53 1393h119l315 -928l95 -330h6l94 330l315 928h119v-13l-471 -1380h-121l-471 1380v13z" />
    <glyph glyph-name="W" unicode="W" horiz-adv-x="1837" 
d="M66 1393h116l250 -899l78 -340h4l82 340l262 899h121l262 -899l82 -340h4l78 340l250 899h117v-13l-388 -1380h-118l-269 934l-75 321h-7l-75 -321l-269 -934h-118l-387 1380v13z" />
    <glyph glyph-name="X" unicode="X" horiz-adv-x="1114" 
d="M76 0v12l407 686l-407 682v13h127l352 -607h4l352 607h127v-13l-407 -682l407 -686v-12h-125l-354 606h-4l-354 -606h-125z" />
    <glyph glyph-name="Y" unicode="Y" horiz-adv-x="1064" 
d="M1018 1393v-13l-428 -790v-590h-115v590l-428 790v13h125l358 -678h5l358 678h125z" />
    <glyph glyph-name="Z" unicode="Z" horiz-adv-x="1019" 
d="M909 1393v-103l-669 -1177v-4h669v-109h-811v102l668 1178v4h-641v109h784z" />
    <glyph glyph-name="bracketleft" unicode="[" horiz-adv-x="616" 
d="M524 1434v-84l-233 -23v-1630l233 -23v-80h-348v1840h348z" />
    <glyph glyph-name="backslash" unicode="\" horiz-adv-x="716" 
d="M78 1393h104l457 -1373v-20h-107l-454 1372v21z" />
    <glyph glyph-name="bracketright" unicode="]" horiz-adv-x="616" 
d="M440 1434v-1840h-348v80l234 23v1630l-234 23v84h348z" />
    <glyph glyph-name="asciicircum" unicode="^" horiz-adv-x="972" 
d="M879 762h-109l-250 532h-4l-250 -532h-108v12l315 660h90l316 -660v-12z" />
    <glyph glyph-name="underscore" unicode="_" horiz-adv-x="909" 
d="M143 -139v98h623v-98h-623z" />
    <glyph glyph-name="grave" unicode="`" 
d="M449 1430h124l101 -228v-12h-101l-124 227v13z" />
    <glyph glyph-name="a" unicode="a" horiz-adv-x="983" 
d="M188.5 50q-79.5 77 -79.5 225t105 223t284 75h202v78q0 264 -243 264q-145 0 -250 -92l-51 84q49 43 129 77t172 34q174 0 265 -94.5t91 -274.5v-649h-88l-12 80h-4q-134 -107 -308 -107q-133 0 -212.5 77zM700 477h-190q-139 0 -212 -48t-73 -161q0 -193 195 -192
q170 0 280 96v305z" />
    <glyph glyph-name="b" unicode="b" horiz-adv-x="1099" 
d="M178 0v1434h113v-531h4q53 47 121 81t170 34q192 0 289.5 -144t97.5 -380t-97.5 -380.5t-281.5 -144.5q-106 0 -179 38t-126 79h-4l-19 -86h-88zM856 543q0 137 -66.5 254.5t-217.5 117.5q-152 0 -281 -120v-602q130 -121 291 -121q207 0 240.5 167t33.5 304z" />
    <glyph glyph-name="c" unicode="c" horiz-adv-x="937" 
d="M571 -31q-137 0 -216 41t-130 112t-75.5 166t-24.5 267t105 317.5t315 145.5q161 0 289 -74l-37 -88q-101 59 -256 59t-227 -126.5t-72 -349.5t109.5 -295t195.5 -72q149 0 250 59l37 -88q-126 -74 -263 -74z" />
    <glyph glyph-name="d" unicode="d" horiz-adv-x="1099" 
d="M511 -31q-191 0 -287.5 144.5t-96.5 380.5q0 235 96.5 379.5t282.5 144.5q109 0 177.5 -34t121.5 -81h4v531h113v-1434h-88l-19 86h-4q-53 -41 -126 -79t-174 -38zM244 440q0 -243 100 -305.5t174 -62.5q163 0 291 121v602q-129 120 -280 120t-218 -116t-67 -359z" />
    <glyph glyph-name="e" unicode="e" horiz-adv-x="1048" 
d="M551 915q-133 0 -214 -88t-97 -258h571q2 10 2 13v32q0 208 -95 254.5t-167 46.5zM893 82q-146 -113 -334 -113q-215 0 -324.5 144t-109.5 383t110.5 380.5t310.5 141.5t292 -123t92 -291q0 -74 -10 -131h-682q4 -178 84.5 -289.5t238.5 -111.5t285 96z" />
    <glyph glyph-name="f" unicode="f" horiz-adv-x="663" 
d="M479 1341q-63 0 -100 -40.5t-37 -145.5v-168h264v-98h-264v-889h-111v889h-161v76l161 22v164q0 293 256 293q52 0 127 -17v-102q-72 16 -135 16z" />
    <glyph glyph-name="g" unicode="g" horiz-adv-x="1097" 
d="M504 1018q180 0 309 -117h4l12 86h91v-1014q0 -195 -99.5 -302t-282.5 -107t-317 84l37 96q143 -78 274 -78q275 0 275 303v117h-4q-125 -115 -309 -115t-275.5 147t-91.5 443t137 376.5t240 80.5zM516 915q-141 0 -206.5 -116t-65.5 -355t97 -304.5t175 -65.5
q178 0 291 123v596q-114 122 -291 122z" />
    <glyph glyph-name="h" unicode="h" horiz-adv-x="1107" 
d="M295 907q159 111 313 111t242 -89t88 -292v-637h-113v618q0 154 -55 225.5t-177 71.5t-200 -47t-102 -67v-801h-113v1434h113v-527h4z" />
    <glyph glyph-name="i" unicode="i" horiz-adv-x="466" 
d="M147 1286q0 43 25 66.5t61.5 23.5t61 -23.5t24.5 -66.5t-24.5 -66.5t-61 -23.5t-61.5 23.5t-25 66.5zM178 0v987h111v-987h-111z" />
    <glyph glyph-name="j" unicode="j" horiz-adv-x="468" 
d="M147 1286q0 43 25 66.5t61.5 23.5t61 -23.5t24.5 -66.5t-24.5 -66.5t-61 -23.5t-61.5 23.5t-25 66.5zM57 -334q57 0 89 39t32 148v1134h113v-1128q0 -295 -234 -295q-55 0 -106 14v98q49 -10 106 -10z" />
    <glyph glyph-name="k" unicode="k" horiz-adv-x="929" 
d="M291 459v-459h-113v1434h113v-918h4l424 471h137v-10l-446 -488l462 -477v-12h-145l-432 459h-4z" />
    <glyph glyph-name="l" unicode="l" horiz-adv-x="485" 
d="M186 0v1434h113v-1434h-113z" />
    <glyph glyph-name="m" unicode="m" horiz-adv-x="1701" 
d="M594 1018q94 0 160.5 -37t101.5 -96h4q166 133 337 133t253 -91t82 -290v-637h-113v618q0 154 -51 225.5t-180 71.5q-72 0 -154 -32.5t-141 -85.5q18 -59 18 -160v-637h-112v618q0 154 -50.5 225.5t-157.5 71.5q-175 0 -300 -114v-801h-113v987h88l13 -86h6
q130 117 309 117z" />
    <glyph glyph-name="n" unicode="n" horiz-adv-x="1107" 
d="M606 1018q156 0 244 -89t88 -292v-637h-113v618q0 154 -55 225.5t-178 71.5q-86 0 -168 -34.5t-133 -79.5v-801h-113v987h90l13 -86h4q47 39 131 78t190 39z" />
    <glyph glyph-name="o" unicode="o" horiz-adv-x="1114" 
d="M987 493.5q0 -104.5 -21.5 -198.5t-71.5 -167t-132 -116t-205 -43t-206 43t-132 116t-70.5 167t-21.5 198.5t21.5 198.5t70.5 167t132 116t206 43t205 -43t132 -116t71.5 -167t21.5 -198.5zM244 493.5q0 -79.5 13 -155.5t48 -135.5t95.5 -95t156.5 -35.5t156.5 35.5
t95.5 95t48 135.5t13 155.5t-13 155.5t-48 135.5t-95.5 95t-156.5 35.5t-156.5 -35.5t-95.5 -95t-48 -135.5t-13 -155.5z" />
    <glyph glyph-name="p" unicode="p" horiz-adv-x="1099" 
d="M588 1018q191 0 288 -144t97 -380t-97.5 -380.5t-281.5 -144.5q-109 0 -177.5 34t-121.5 81h-4v-490h-113v1393h88l19 -86h4q53 41 126 79t173 38zM856 543q0 137 -66.5 254.5t-217.5 117.5q-152 0 -281 -120v-602q130 -121 291 -121q207 0 240.5 167t33.5 304z" />
    <glyph glyph-name="q" unicode="q" horiz-adv-x="1099" 
d="M805 84q-130 -115 -295 -115q-193 0 -288 145.5t-95 379.5q0 233 95 378.5t282 145.5q109 0 181.5 -38t125.5 -79h4l16 86h91v-1393h-113v490h-4zM809 795q-134 120 -283 120t-215.5 -116t-66.5 -358.5t99 -305.5t173 -63q161 0 293 121v602z" />
    <glyph glyph-name="r" unicode="r" horiz-adv-x="675" 
d="M522 1018q53 0 99 -12l-19 -103q-46 12 -92 12q-145 0 -219 -153v-762h-113v987h86l17 -96h4q88 127 237 127z" />
    <glyph glyph-name="s" unicode="s" horiz-adv-x="872" 
d="M399 72q244 0 244 182q0 67 -39 108t-141 72l-101 33q-110 36 -154 80.5t-61.5 86.5t-17.5 104q0 127 93 203.5t241 76.5q86 0 149.5 -20.5t126.5 -49.5l-41 -96q-119 63 -229 63t-166.5 -47t-56.5 -122t35.5 -113.5t119.5 -63.5l101 -30q123 -37 190.5 -97.5
t67.5 -185.5t-95 -206t-225 -81q-131 0 -202.5 27t-131.5 67l50 91q116 -82 243 -82z" />
    <glyph glyph-name="t" unicode="t" horiz-adv-x="663" 
d="M238 227v662h-175v76l175 22v230h112v-230h244v-98h-244v-660q0 -94 31 -125.5t84 -31.5t129 26v-102q-78 -27 -139 -27q-109 0 -163 58.5t-54 199.5z" />
    <glyph glyph-name="u" unicode="u" horiz-adv-x="1091" 
d="M492 -31q-156 0 -239 89t-83 292v637h113v-618q0 -154 50 -225.5t173 -71.5q86 0 166 34.5t129 79.5v801h112v-987h-88l-14 86h-4q-47 -39 -128 -78t-187 -39z" />
    <glyph glyph-name="v" unicode="v" horiz-adv-x="948" 
d="M70 987h114l240 -684l47 -184h6l47 184l240 684h115v-12l-349 -975h-112l-348 975v12z" />
    <glyph glyph-name="w" unicode="w" horiz-adv-x="1568" 
d="M72 987h114l213 -661l52 -199h4l55 199l217 661h115l217 -661l55 -199h4l51 199l213 661h115v-12l-323 -975h-113l-225 682l-50 186h-4l-49 -186l-225 -682h-113l-323 975v12z" />
    <glyph glyph-name="x" unicode="x" horiz-adv-x="915" 
d="M80 0v12l309 482l-309 481v12h121l254 -418h6l254 418h121v-12l-310 -481l310 -482v-12h-121l-254 414h-6l-254 -414h-121z" />
    <glyph glyph-name="y" unicode="y" horiz-adv-x="956" 
d="M66 987h112l256 -688l49 -176h6l48 174l235 690h113v-12l-393 -1145q-90 -266 -297 -266q-61 0 -119 18v101q142 -43 205 10t94 143l57 168l-366 971v12z" />
    <glyph glyph-name="z" unicode="z" horiz-adv-x="841" 
d="M735 987v-74l-502 -811v-4h502v-98h-639v74l500 811v4h-477v98h616z" />
    <glyph glyph-name="braceleft" unicode="{" horiz-adv-x="630" 
d="M104 565q78 0 107 40t29 114v438q0 150 58 213.5t220 63.5h17v-84q-106 0 -143.5 -44t-37.5 -149v-420q0 -94 -28.5 -145t-85.5 -76v-4q57 -25 85.5 -76t28.5 -145v-420q0 -104 37 -148.5t144 -44.5v-84h-17q-162 0 -220 63.5t-58 213.5v438q0 74 -29 114t-107 40v102z
" />
    <glyph glyph-name="bar" unicode="|" horiz-adv-x="456" 
d="M281 -406h-105v1840h105v-1840z" />
    <glyph glyph-name="braceright" unicode="}" horiz-adv-x="630" 
d="M276 737v420q0 104 -36.5 148.5t-143.5 44.5v84h17q162 0 220 -63.5t58 -213.5v-438q0 -74 29 -114t106 -40v-102q-78 0 -106.5 -40t-28.5 -114v-438q0 -150 -58 -213.5t-220 -63.5h-17v84q106 0 143 44.5t37 148.5v420q0 170 113 221v4q-113 51 -113 221z" />
    <glyph glyph-name="asciitilde" unicode="~" horiz-adv-x="1013" 
d="M342 565q-76 0 -141 -76l-56 66q80 113 207 113q69 0 139 -35t107 -50.5t74 -15.5q76 0 141 76l55 -65q-80 -113 -206 -113q-57 0 -129 35t-112 50t-79 15z" />
    <glyph glyph-name="uni00A0" unicode="&#xa0;" horiz-adv-x="522" 
 />
    <glyph glyph-name="exclamdown" unicode="&#xa1;" horiz-adv-x="471" 
d="M336 913q0 -45 -28 -75t-75 -29q-47 0 -75 30q-28 31 -27 75q0 44 28 74q29 30 75 30t74 -30t28 -75zM295 -405h-115v387l23 610h69l23 -610v-387z" />
    <glyph glyph-name="cent" unicode="&#xa2;" 
d="M397.5 217.5q61.5 -120.5 186.5 -141.5v833q-125 -21 -186.5 -141.5t-61.5 -275t61.5 -275zM688 -197h-104v170q-183 19 -274 161t-91 419t134 364t231 97v170h104v-168q137 -13 240 -72l-37 -88q-83 45 -203 57v-839q121 8 203 57l37 -88q-101 -59 -240 -72v-168z" />
    <glyph glyph-name="sterling" unicode="&#xa3;" 
d="M643 1311q-231 0 -231 -181.5t34 -400.5h375v-98h-358q24 -173 24 -244q0 -121 -37.5 -184.5t-80.5 -87.5v-4h581v-111h-755v94q172 88 172 275q0 82 -25 262h-168v98h152q-35 230 -35 326q0 183 98.5 275.5t251.5 92.5t297 -94l-47 -98q-124 80 -248 80z" />
    <glyph glyph-name="currency" unicode="&#xa4;" 
d="M381.5 357q55.5 -81 173.5 -81t172.5 79.5t54.5 231.5t-82 197t-146 45t-107.5 -24.5t-82 -81t-38.5 -171t55.5 -195.5zM893 553.5q0 -132.5 -53 -225.5l166 -178l-72 -74l-162 174q-82 -76 -214 -76t-210 66l-151 -164l-72 76l151 163q-61 96 -61 235t61 241l-153 165
l72 74l151 -166q84 68 212 68t214 -78l164 176l70 -76l-166 -178q53 -90 53 -222.5z" />
    <glyph glyph-name="yen" unicode="&#xa5;" 
d="M623 322v-322h-117v322h-336v98h336v235h-336v99h276l-342 624v15h127l330 -623h4l332 623h127v-15l-342 -624h276v-99h-335v-235h335v-98h-335z" />
    <glyph glyph-name="brokenbar" unicode="&#xa6;" horiz-adv-x="481" 
d="M188 754v680h105v-680h-105zM293 274v-680h-105v680h105z" />
    <glyph glyph-name="section" unicode="&#xa7;" horiz-adv-x="1042" 
d="M272 563q0 -86 53.5 -133t170.5 -90l161 -61q127 84 127 229q0 86 -53 133t-170 90l-162 62q-127 -84 -127 -230zM307 840q-151 96 -151 247t101.5 243.5t286.5 92.5q186 0 333 -96l-46 -92q-135 86 -280 86t-212 -61.5t-67 -145.5t41 -133t152 -92l135 -53
q155 -61 228 -130t73 -192q0 -173 -156 -278v-7q82 -53 119 -114.5t37 -143.5q0 -156 -109 -247t-260 -91t-242 41t-161 90l51 91q148 -119 299.5 -119t228 56t76.5 156t-53 152t-176 99l-137 53q-139 53 -200.5 122.5t-61.5 163.5q0 190 151 296v6z" />
    <glyph glyph-name="dieresis" unicode="&#xa8;" 
d="M647 1286q0 43 24.5 66.5t61.5 23.5t61.5 -23.5t24.5 -66.5t-24.5 -66.5t-61.5 -23.5t-61.5 23.5t-24.5 66.5zM299 1286q0 43 24.5 66.5t61.5 23.5t61.5 -23.5t24.5 -66.5t-24.5 -66.5t-61.5 -23.5t-61.5 23.5t-24.5 66.5z" />
    <glyph glyph-name="copyright" unicode="&#xa9;" horiz-adv-x="1708" 
d="M868 399q96 0 183 35l30 -88q-109 -49 -213 -49q-182 0 -274 109.5t-92 290t92 290t274 109.5q104 0 213 -49l-30 -89q-86 35 -183 35q-254 0 -254 -297t254 -297zM137 696.5q0 153.5 52.5 286.5t147.5 231.5t227 153.5t290 55t290 -55t227 -153.5t147.5 -231.5
t52.5 -286.5t-52.5 -287t-147.5 -231.5t-227 -154.5t-290 -56.5t-290 56.5t-227 154.5t-147.5 231.5t-52.5 287zM404 236q177 -183 450 -183t450 183t177 459.5t-176.5 459t-450.5 182.5t-450.5 -182.5t-176.5 -459t177 -459.5z" />
    <glyph glyph-name="ordfeminine" unicode="&#xaa;" horiz-adv-x="743" 
d="M131 465v82h483v-82h-483zM608 1120v-403h-73l-11 55h-2q-88 -70 -186 -70t-152.5 50t-54.5 124t21.5 111t75 66.5t188.5 29.5h100v37q0 152 -141 152q-98 0 -168 -53l-45 67q91 72 215 72q233 0 233 -238zM344 788q84 0 170 58v155h-82q-168 0 -187.5 -41.5t-19.5 -66.5
q0 -105 119 -105z" />
    <glyph glyph-name="guillemotleft" unicode="&#xab;" horiz-adv-x="937" 
d="M102 557l287 420l76 -55l-246 -369l244 -369l-74 -55l-287 420v8zM457 557l286 420l76 -55l-246 -369l244 -369l-74 -55l-286 420v8z" />
    <glyph glyph-name="logicalnot" unicode="&#xac;" 
d="M874 502h-735v98h840v-369h-105v271z" />
    <glyph glyph-name="uni00AD" unicode="&#xad;" horiz-adv-x="813" 
d="M164 506v98h485v-98h-485z" />
    <glyph glyph-name="registered" unicode="&#xae;" horiz-adv-x="1167" 
d="M664 1247.5q0 59.5 -72 59.5h-94v-119h94q72 0 72 59.5zM583.5 1618q202.5 0 331.5 -133t129 -336t-129 -336t-331.5 -133t-331.5 133t-129 336t129 336t331.5 133zM416 932v446h180q152 0 152 -127q0 -59 -31 -90t-72 -39l137 -180v-10h-88l-133 180h-63v-180h-82z
M207 1149q0 -84 27.5 -155.5t76.5 -125t119 -83t154 -29.5t153.5 29.5t118.5 83t77 125t28 155.5t-28 155.5t-77 125t-118.5 83t-153.5 29.5t-154 -29.5t-119 -83t-76.5 -125t-27.5 -155.5z" />
    <glyph glyph-name="macron" unicode="&#xaf;" 
d="M326 1219v98h467v-98h-467z" />
    <glyph glyph-name="degree" unicode="&#xb0;" horiz-adv-x="813" 
d="M690 1130q0 -131 -79 -212.5t-205 -81.5t-204.5 81.5t-78.5 212.5t79.5 212t203.5 81t204 -81t80 -212zM229 1129q0 -91 49.5 -144t128.5 -53t128 53t49 144t-50 144.5t-128 53.5t-127.5 -53.5t-49.5 -144.5z" />
    <glyph glyph-name="plusminus" unicode="&#xb1;" 
d="M614 862h379v-98h-379v-422h-104v422h-379v98h379v420h104v-420zM993 100v-98h-860v98h860z" />
    <glyph glyph-name="uni00B2" unicode="&#xb2;" horiz-adv-x="589" 
d="M272 1653q104 -1 166 -59t62 -142t-31 -135t-74 -92l-176 -166v-2h287v-88h-430v71l229 228q39 38 65 76t26 94t-34 89q-33 32 -95 32t-142 -74l-51 74q94 94 198 94z" />
    <glyph glyph-name="uni00B3" unicode="&#xb3;" horiz-adv-x="604" 
d="M252 1047q73 0 118 21q44 22 44 89q0 106 -154 107h-102v88h102q76 0 108 30t31 72q0 105 -127 105q-89 0 -157 -39l-31 86q80 45 188 46t172 -47t64 -122t-32 -113t-70 -55v-2q112 -43 112 -164q0 -92 -68 -144t-180 -53q-111 -1 -202 49l28 89q83 -43 156 -43z" />
    <glyph glyph-name="acute" unicode="&#xb4;" 
d="M444 1190v12l99 228h125v-13l-125 -227h-99z" />
    <glyph glyph-name="mu" unicode="&#xb5;" horiz-adv-x="1089" 
d="M510 -31q-92 0 -142.5 21.5t-91.5 68.5l11 -159v-306h-113v1393h113v-618q0 -154 50 -225.5t173 -71.5q86 0 166 34.5t129 79.5v801h113v-987h-89l-14 86h-4q-47 -39 -128 -78t-173 -39z" />
    <glyph glyph-name="paragraph" unicode="&#xb6;" horiz-adv-x="997" 
d="M313 936q-94 0 -162.5 57t-68.5 171t68.5 171.5t162.5 57.5h609v-99h-187v-1700h-104v1700h-213v-1700h-105v1342z" />
    <glyph glyph-name="periodcentered" unicode="&#xb7;" horiz-adv-x="516" 
d="M156 598q0 45 27 75q28 29 75 29t75 -30q27 -30 27 -74q0 -45 -28 -75q-28 -29 -74 -29q-47 0 -75 29q-27 30 -27 75z" />
    <glyph glyph-name="cedilla" unicode="&#xb8;" 
d="M541 -344q96 0 96 92q0 47 -35 62.5t-94 15.5l-10 12l47 176h96l-35 -116q57 -6 98 -42t41 -120t-58 -128t-141 -44t-151 39l27 86q54 -33 119 -33z" />
    <glyph glyph-name="uni00B9" unicode="&#xb9;" horiz-adv-x="458" 
d="M57 1436v92l215 110h72v-669h-94v555h-2l-178 -88h-13z" />
    <glyph glyph-name="ordmasculine" unicode="&#xba;" horiz-adv-x="770" 
d="M143 465v82h484v-82h-484zM385 1358q78 0 133 -26.5t90 -70.5t51.5 -104.5t16.5 -128t-16.5 -128t-51.5 -104.5t-90 -71t-133 -27t-133 27t-90 71t-51.5 104.5t-16.5 128t16.5 128t51.5 104.5t90 70.5t133 26.5zM190 1028q0 -244 195 -244t195 244q0 104 -45.5 174
t-149.5 70t-149.5 -69.5t-45.5 -174.5z" />
    <glyph glyph-name="guillemotright" unicode="&#xbb;" horiz-adv-x="940" 
d="M483 549l-286 -420l-74 55l242 369l-246 369l78 55l286 -420v-8zM838 549l-287 -420l-74 55l242 369l-246 369l78 55l287 -420v-8z" />
    <glyph glyph-name="onequarter" unicode="&#xbc;" horiz-adv-x="1329" 
d="M203 0v12l778 1381h106v-13l-780 -1380h-104zM90 1190v92l215 111h72v-670h-94v555h-2l-179 -88h-12zM1063 489h94v-258h78v-88h-78v-143h-94v143h-340v82l195 445h104l-191 -437v-2h232v258z" />
    <glyph glyph-name="onehalf" unicode="&#xbd;" horiz-adv-x="1357" 
d="M203 0v12l778 1381h106v-13l-780 -1380h-104zM94 1186v92l215 111h72v-670h-94v555h-2l-179 -88h-12zM1010 684q104 0 166 -58t61 -142q0 -84 -31 -136q-31 -51 -73 -92l-177 -166v-2h287v-88h-430v72l229 227q39 37 65 76t26 95t-33 88t-85 32t-88 -24t-65 -50l-51 74
q95 94 199 94z" />
    <glyph glyph-name="threequarters" unicode="&#xbe;" horiz-adv-x="1411" 
d="M313 0v12l779 1381h106v-13l-780 -1380h-105zM1143 489h94v-258h78v-88h-78v-143h-94v143h-340v82l194 445h105l-191 -437v-2h232v258zM291 795q73 0 118 21q44 22 44 89q0 106 -154 107h-102v88h102q76 0 108 30t31 72q0 105 -127 105q-91 0 -157 -39l-31 86
q84 47 190 47q105 0 169 -48q64 -47 64 -121t-31 -114q-32 -40 -71 -55v-2q113 -43 113 -164q0 -92 -69 -144t-180 -53t-202 50l29 88q83 -43 156 -43z" />
    <glyph glyph-name="questiondown" unicode="&#xbf;" horiz-adv-x="858" 
d="M490 823q-44 0 -68 26t-25 72q0 45 25 71q24 26 68 26t69 -26t25 -71q0 -46 -25 -72t-69 -26zM784 -319q-148 -117 -319 -117t-268 111t-97 279q0 286 326 413l14 217h99l4 -289q-151 -53 -211 -106q-60 -54 -86 -108q-26 -53 -25 -151t61 -176t192 -78t257 93z" />
    <glyph glyph-name="Agrave" unicode="&#xc0;" horiz-adv-x="1181" 
d="M588 1255l-101 -329l-155 -451h518l-156 451l-100 329h-6zM1133 0h-119l-129 369h-588l-129 -369h-119l483 1393h117zM416 1767h129l94 -229v-12h-102l-121 229v12z" />
    <glyph glyph-name="Aacute" unicode="&#xc1;" horiz-adv-x="1181" 
d="M588 1255l-101 -329l-155 -451h518l-156 451l-100 329h-6zM1133 0h-119l-129 369h-588l-129 -369h-119l483 1393h117zM541 1526v12l94 229h129v-12l-121 -229h-102z" />
    <glyph glyph-name="Acircumflex" unicode="&#xc2;" horiz-adv-x="1181" 
d="M588 1255l-101 -329l-155 -451h518l-156 451l-100 329h-6zM1133 0h-119l-129 369h-588l-129 -369h-119l483 1393h117zM831 1526h-114l-127 149l-125 -149h-115v12l191 229h100l190 -229v-12z" />
    <glyph glyph-name="Atilde" unicode="&#xc3;" horiz-adv-x="1181" 
d="M588 1255l-101 -329l-155 -451h518l-156 451l-100 329h-6zM1133 0h-119l-129 369h-588l-129 -369h-119l483 1393h117zM702 1657q54 0 101 72l45 -68q-64 -104 -154 -102q-42 -1 -112 39q-69 40 -95 40q-60 0 -104 -71l-47 67q66 103 156 103q41 1 89 -27q47 -28 71 -40
t50 -13z" />
    <glyph glyph-name="Adieresis" unicode="&#xc4;" horiz-adv-x="1181" 
d="M588 1255l-101 -329l-155 -451h518l-156 451l-100 329h-6zM1133 0h-119l-129 369h-588l-129 -369h-119l483 1393h117zM678 1647q0 43 24 67t62 23q38 0 62 -24q24 -25 24 -67t-25 -66t-61 -24t-62 24q-24 24 -24 67zM330 1647q0 43 24 67t62 23q38 0 62 -24
q24 -25 24 -67t-25 -66t-61 -24t-62 24q-24 24 -24 67z" />
    <glyph glyph-name="Aring" unicode="&#xc5;" horiz-adv-x="1181" 
d="M567.5 1571q-63.5 0 -63.5 -88t63.5 -88t87 22.5t23.5 65.5t-23.5 65.5t-87 22.5zM588 1255l-101 -329l-155 -451h518l-156 451l-100 329h-6zM424 1469q0 92 47 136t120 44t119 -44t46 -137.5t-86 -134.5l463 -1333h-119l-129 369h-588l-129 -369h-119l463 1331
q-88 46 -88 138z" />
    <glyph glyph-name="AE" unicode="&#xc6;" horiz-adv-x="1736" 
d="M805 502v454l12 295h-4l-133 -282l-258 -467h383zM1599 0h-794v397h-440l-220 -397h-125v12l764 1381h809v-109h-673v-514h616v-108h-616v-553h679v-109z" />
    <glyph glyph-name="Ccedilla" unicode="&#xc7;" horiz-adv-x="1148" 
d="M614 -344q97 0 97 92q0 46 -35 62t-94 16l-11 12l38 139q-201 31 -321 187q-147 189 -147 531t149 535t423 193q174 0 321 -88l-41 -96q-131 72 -263 72t-216 -42t-140 -122q-112 -160 -112 -451q0 -446 252 -572q84 -42 216 -42t263 72l41 -97q-146 -86 -321 -88h-12
l-21 -71q57 -6 98 -42t41 -120t-58 -128t-143 -44t-149 39l27 86q54 -33 118 -33z" />
    <glyph glyph-name="Egrave" unicode="&#xc8;" horiz-adv-x="1134" 
d="M991 1393v-109h-667v-516h608v-109h-608v-550h673v-109h-788v1393h782zM432 1767h129l94 -229v-12h-102l-121 229v12z" />
    <glyph glyph-name="Eacute" unicode="&#xc9;" horiz-adv-x="1134" 
d="M991 1393v-109h-667v-516h608v-109h-608v-550h673v-109h-788v1393h782zM547 1526v12l94 229h129v-12l-121 -229h-102z" />
    <glyph glyph-name="Ecircumflex" unicode="&#xca;" horiz-adv-x="1134" 
d="M991 1393v-109h-667v-516h608v-109h-608v-550h673v-109h-788v1393h782zM848 1526h-115l-127 149l-125 -149h-114v12l190 229h100l191 -229v-12z" />
    <glyph glyph-name="Edieresis" unicode="&#xcb;" horiz-adv-x="1134" 
d="M991 1393v-109h-667v-516h608v-109h-608v-550h673v-109h-788v1393h782zM686 1647q0 43 25 67t61 23q36 0 62 -24q24 -25 24 -67t-24 -66t-62 -24t-62 24t-24 67zM338 1647q0 43 24 67t62 23q38 0 62 -24q24 -25 24 -67t-25 -66t-61 -24t-62 24q-24 24 -24 67z" />
    <glyph glyph-name="Igrave" unicode="&#xcc;" horiz-adv-x="532" 
d="M324 0h-115v1393h115v-1393zM86 1767h129l94 -229v-12h-102l-121 229v12z" />
    <glyph glyph-name="Iacute" unicode="&#xcd;" horiz-adv-x="532" 
d="M324 0h-115v1393h115v-1393zM221 1526v12l94 229h129v-12l-120 -229h-103z" />
    <glyph glyph-name="Icircumflex" unicode="&#xce;" horiz-adv-x="532" 
d="M324 0h-115v1393h115v-1393zM506 1526h-115l-127 149l-125 -149h-114v12l190 229h100l191 -229v-12z" />
    <glyph glyph-name="Idieresis" unicode="&#xcf;" horiz-adv-x="532" 
d="M324 0h-115v1393h115v-1393zM348 1647q0 43 25 67t61 23q36 0 62 -24q24 -25 24 -67t-24 -66t-62 -24t-62 24t-24 67zM0 1647q0 43 25 67t61 23q36 0 62 -24q24 -25 24 -67t-25 -66t-61 -24t-62 24q-24 24 -24 67z" />
    <glyph glyph-name="Eth" unicode="&#xd0;" horiz-adv-x="1333" 
d="M506 109q317 0 441 144.5t124 443t-125 443t-440 144.5h-182v-543h313v-108h-313v-524h182zM209 633h-98v108h98v652h319q512 0 588 -265.5t76 -520.5t-158.5 -431t-505.5 -176h-319v633z" />
    <glyph glyph-name="Ntilde" unicode="&#xd1;" horiz-adv-x="1366" 
d="M1042 1393h115v-1393h-110l-734 1190h-4l15 -242v-948h-115v1393h110l730 -1190h4l-11 241v949zM590 1737q41 1 89 -27t72 -40t44 -13q59 0 106 72l45 -68q-64 -104 -153 -102q-43 -1 -113 39q-69 40 -94 40q-61 0 -105 -71l-47 67q66 103 156 103z" />
    <glyph glyph-name="Ograve" unicode="&#xd2;" horiz-adv-x="1363" 
d="M143 696q0 512 287 671q102 56 252 56q281 0 418 -210q121 -186 121 -517q0 -514 -287 -670q-102 -56 -252 -56q-279 -1 -418 209q-121 186 -121 517zM264 696q0 -441 215 -567q80 -47 203 -47q229 0 331 177q85 147 86 436t-86 439q-102 177 -331 177t-331 -177
q-87 -150 -87 -438zM510 1767h129l94 -229v-12h-102l-121 229v12z" />
    <glyph glyph-name="Oacute" unicode="&#xd3;" horiz-adv-x="1363" 
d="M143 696q0 512 287 671q102 56 252 56q281 0 418 -210q121 -186 121 -517q0 -514 -287 -670q-102 -56 -252 -56q-279 -1 -418 209q-121 186 -121 517zM264 696q0 -441 215 -567q80 -47 203 -47q229 0 331 177q85 147 86 436t-86 439q-102 177 -331 177t-331 -177
q-87 -150 -87 -438zM629 1526v12l94 229h129v-12l-121 -229h-102z" />
    <glyph glyph-name="Ocircumflex" unicode="&#xd4;" horiz-adv-x="1363" 
d="M143 696q0 512 287 671q102 56 252 56q281 0 418 -210q121 -186 121 -517q0 -514 -287 -670q-102 -56 -252 -56q-279 -1 -418 209q-121 186 -121 517zM264 696q0 -441 215 -567q80 -47 203 -47q229 0 331 177q85 147 86 436t-86 439q-102 177 -331 177t-331 -177
q-87 -150 -87 -438zM922 1526h-115l-127 149l-125 -149h-115v12l191 229h100l191 -229v-12z" />
    <glyph glyph-name="Otilde" unicode="&#xd5;" horiz-adv-x="1363" 
d="M143 696q0 512 287 671q102 56 252 56q281 0 418 -210q121 -186 121 -517q0 -514 -287 -670q-102 -56 -252 -56q-279 -1 -418 209q-121 186 -121 517zM264 696q0 -441 215 -567q80 -47 203 -47q229 0 331 177q85 147 86 436t-86 439q-102 177 -331 177t-331 -177
q-87 -150 -87 -438zM578 1737q41 1 89 -27q47 -28 71 -40t50 -13q54 0 101 72l45 -68q-64 -104 -154 -102q-42 -1 -112 39q-69 40 -95 40q-60 0 -104 -71l-47 67q66 103 156 103z" />
    <glyph glyph-name="Odieresis" unicode="&#xd6;" horiz-adv-x="1363" 
d="M143 696q0 512 287 671q102 56 252 56q281 0 418 -210q121 -186 121 -517q0 -514 -287 -670q-102 -56 -252 -56q-279 -1 -418 209q-121 186 -121 517zM264 696q0 -441 215 -567q80 -47 203 -47q229 0 331 177q85 147 86 436t-86 439q-102 177 -331 177t-331 -177
q-87 -150 -87 -438zM766 1647q0 43 25 67t61 23q36 0 62 -24q24 -25 24 -67t-25 -66t-61 -24t-62 24q-24 24 -24 67zM418 1647q0 43 24 67t62 23q38 0 62 -24q24 -25 24 -67t-25 -66t-61 -24t-62 24q-24 24 -24 67z" />
    <glyph glyph-name="multiply" unicode="&#xd7;" 
d="M561 616l318 320l65 -66l-315 -319l315 -318l-70 -65l-313 315l-311 -315l-70 65l316 318l-316 319l66 66z" />
    <glyph glyph-name="Oslash" unicode="&#xd8;" horiz-adv-x="1366" 
d="M952.5 168.5q147.5 86.5 147.5 525.5q0 285 -84 432l-592 -960q96 -84 239 -84q142 0 289.5 86.5zM682 1311q-229 0 -323.5 -163.5t-94.5 -454.5t92 -443l594 962q-99 99 -268 99zM143 696q0 513 194.5 620t344.5 107q201 0 330 -110l82 131l86 -51l-97 -156
q138 -192 138 -541q0 -512 -195 -619.5t-344 -107.5q-195 0 -317 99l-68 -109l-86 55l78 127q-146 187 -146 555z" />
    <glyph glyph-name="Ugrave" unicode="&#xd9;" horiz-adv-x="1339" 
d="M670 -31q-244 0 -358 135t-113 367v922h114v-912q0 -195 85 -297q86 -102 272 -102t271 102t85 297v912h115v-922q0 -367 -261 -467q-89 -35 -210 -35zM500 1767h129l94 -229v-12h-102l-121 229v12z" />
    <glyph glyph-name="Uacute" unicode="&#xda;" horiz-adv-x="1339" 
d="M670 -31q-244 0 -358 135t-113 367v922h114v-912q0 -195 85 -297q86 -102 272 -102t271 102t85 297v912h115v-922q0 -367 -261 -467q-89 -35 -210 -35zM606 1526v12l94 229h129v-12l-120 -229h-103z" />
    <glyph glyph-name="Ucircumflex" unicode="&#xdb;" horiz-adv-x="1339" 
d="M670 -31q-244 0 -358 135t-113 367v922h114v-912q0 -195 85 -297q86 -102 272 -102t271 102t85 297v912h115v-922q0 -367 -261 -467q-89 -35 -210 -35zM909 1526h-114l-127 149l-125 -149h-115v12l190 229h101l190 -229v-12z" />
    <glyph glyph-name="Udieresis" unicode="&#xdc;" horiz-adv-x="1339" 
d="M670 -31q-244 0 -358 135t-113 367v922h114v-912q0 -195 85 -297q86 -102 272 -102t271 102t85 297v912h115v-922q0 -367 -261 -467q-89 -35 -210 -35zM752 1647q0 43 24 67t62 23q38 0 62 -24q24 -25 24 -67t-25 -66t-61 -24t-62 24q-24 24 -24 67zM403 1647q0 43 25 67
q26 24 62 23q36 0 61 -24q25 -25 25 -67t-26 -66q-24 -24 -61 -24t-61 24t-25 67z" />
    <glyph glyph-name="Yacute" unicode="&#xdd;" horiz-adv-x="1064" 
d="M1018 1393v-13l-428 -790v-590h-115v590l-428 790v13h125l358 -678h5l358 678h125zM487 1526v12l95 229h129v-12l-121 -229h-103z" />
    <glyph glyph-name="Thorn" unicode="&#xde;" horiz-adv-x="1153" 
d="M324 418h290q299 0 299 302t-299 302h-290v-604zM209 0v1393h115v-263h303q203 0 305 -105t102 -306t-103.5 -305.5t-303.5 -104.5h-303v-309h-115z" />
    <glyph glyph-name="germandbls" unicode="&#xdf;" horiz-adv-x="1153" 
d="M567 1341q-276 0 -276 -327v-1014h-113v1016q0 209 103 318.5t275 109.5t265.5 -103t93.5 -262q0 -212 -151 -293v-4q125 -32 196.5 -129.5t71.5 -259.5q0 -311 -162.5 -367.5t-238.5 -56.5t-113 11v100q40 -8 94 -8q141 0 222 77.5t81 243.5q0 228 -112.5 279t-196.5 51
h-49v96h51q92 0 141.5 67.5t49.5 184.5t-57.5 193.5t-174.5 76.5z" />
    <glyph glyph-name="agrave" unicode="&#xe0;" horiz-adv-x="983" 
d="M498 573h202v78q0 264 -243 264q-147 0 -250 -92l-51 84q49 43 129 77t172 34q174 0 265 -94t91 -275v-649h-88l-12 80h-4q-134 -107 -308 -107q-133 0 -213 77t-80 225t106 223q105 75 284 75zM700 477h-190q-139 0 -212 -48t-73 -161q0 -193 195 -192q170 0 280 96v305
zM311 1430h125l101 -228v-12h-101l-125 227v13z" />
    <glyph glyph-name="aacute" unicode="&#xe1;" horiz-adv-x="983" 
d="M498 573h202v78q0 264 -243 264q-147 0 -250 -92l-51 84q49 43 129 77t172 34q174 0 265 -94t91 -275v-649h-88l-12 80h-4q-134 -107 -308 -107q-133 0 -213 77t-80 225t106 223q105 75 284 75zM700 477h-190q-139 0 -212 -48t-73 -161q0 -193 195 -192q170 0 280 96v305
zM424 1190v12l98 228h125v-13l-125 -227h-98z" />
    <glyph glyph-name="acircumflex" unicode="&#xe2;" horiz-adv-x="983" 
d="M498 573h202v78q0 264 -243 264q-147 0 -250 -92l-51 84q49 43 129 77t172 34q174 0 265 -94t91 -275v-649h-88l-12 80h-4q-134 -107 -308 -107q-133 0 -213 77t-80 225t106 223q105 75 284 75zM700 477h-190q-139 0 -212 -48t-73 -161q0 -193 195 -192q170 0 280 96v305
zM721 1190h-113l-129 149l-127 -149h-112v10l190 230h100l191 -230v-10z" />
    <glyph glyph-name="atilde" unicode="&#xe3;" horiz-adv-x="983" 
d="M498 573h202v78q0 264 -243 264q-147 0 -250 -92l-51 84q49 43 129 77t172 34q174 0 265 -94t91 -275v-649h-88l-12 80h-4q-134 -107 -308 -107q-133 0 -213 77t-80 225t106 223q105 75 284 75zM700 477h-190q-139 0 -212 -48t-73 -161q0 -193 195 -192q170 0 280 96v305
zM383 1364q45 0 111 -40t94 -40q55 0 106 72l45 -66q-62 -100 -153 -100q-46 0 -112 39t-95 41q-55 0 -105 -74l-47 66q63 102 156 102z" />
    <glyph glyph-name="adieresis" unicode="&#xe4;" horiz-adv-x="983" 
d="M498 573h202v78q0 264 -243 264q-147 0 -250 -92l-51 84q49 43 129 77t172 34q174 0 265 -94t91 -275v-649h-88l-12 80h-4q-134 -107 -308 -107q-133 0 -213 77t-80 225t106 223q105 75 284 75zM700 477h-190q-139 0 -212 -48t-73 -161q0 -193 195 -192q170 0 280 96v305
zM569 1286q0 43 25 67q26 23 62 23t61 -24t25 -66t-26 -66q-24 -24 -61 -24t-61 24t-25 66zM221 1286q0 43 25 67q26 23 62 23t61 -24t25 -66t-26 -66q-24 -24 -61 -24t-61 24t-25 66z" />
    <glyph glyph-name="aring" unicode="&#xe5;" horiz-adv-x="983" 
d="M498 573h202v78q0 264 -243 264q-147 0 -250 -92l-51 84q49 43 129 77t172 34q174 0 265 -94t91 -275v-649h-88l-12 80h-4q-134 -107 -308 -107q-133 0 -213 77t-80 225t106 223q105 75 284 75zM700 477h-190q-139 0 -212 -48t-73 -161q0 -193 195 -192q170 0 280 96v305
zM313 1279q0 77 47 122t120 45t119 -45t46 -122t-46 -122t-119 -45t-120 45t-47 122zM393 1279q0 -42 23 -66q24 -23 64 -23t64 24t24 65q0 42 -24 66q-24 23 -65 23t-63 -24t-23 -65z" />
    <glyph glyph-name="ae" unicode="&#xe6;" horiz-adv-x="1626" 
d="M225 268q0 -196 195 -196q129 0 204.5 92t75.5 311h-190q-139 0 -212 -47t-73 -160zM1391 584v30q0 207 -95.5 254t-167.5 47q-133 0 -213.5 -87t-97.5 -257h572q2 10 2 13zM1507 602q0 -70 -10 -127h-682q4 -182 86.5 -292.5t238.5 -110.5t283 96l47 -86
q-53 -41 -138 -77t-191 -36q-280 0 -381 248q-83 -248 -359 -248q-133 0 -212.5 79t-79.5 228t105.5 222t283.5 73h202v80q0 264 -243 264q-145 0 -250 -92l-51 84q49 43 129 77t172 34q252 0 321 -203q104 203 350 203q194 0 286.5 -123t92.5 -293z" />
    <glyph glyph-name="ccedilla" unicode="&#xe7;" horiz-adv-x="937" 
d="M485 -344q97 0 97 92q0 46 -35 62t-94 16l-11 12l36 135q-161 21 -257 155t-96 364t105 378t315 148q161 0 289 -74l-37 -88q-101 59 -257 59q-155 0 -233 -139q-65 -113 -65 -282q0 -278 159 -383q59 -39 146 -39q149 0 250 59l37 -88q-112 -66 -262 -73l-21 -72
q57 -6 98 -42t41 -120t-58 -128t-143 -44t-149 39l27 86q54 -33 118 -33z" />
    <glyph glyph-name="egrave" unicode="&#xe8;" horiz-adv-x="1048" 
d="M551 915q-133 0 -214 -88t-97 -258h571q2 9 2 23v22q0 207 -140 277q-50 24 -122 24zM893 82q-146 -113 -348 -113t-311 145t-109 382t109 379q109 143 310 143q200 0 301 -132q83 -109 85 -284q0 -74 -10 -129h-682q4 -178 85 -290q81 -111 238 -111t285 96zM395 1430
h125l101 -228v-12h-101l-125 227v13z" />
    <glyph glyph-name="eacute" unicode="&#xe9;" horiz-adv-x="1048" 
d="M551 915q-133 0 -214 -88t-97 -258h571q2 9 2 23v22q0 207 -140 277q-50 24 -122 24zM893 82q-146 -113 -348 -113t-311 145t-109 382t109 379q109 143 310 143q200 0 301 -132q83 -109 85 -284q0 -74 -10 -129h-682q4 -178 85 -290q81 -111 238 -111t285 96zM516 1190
v12l98 228h125v-13l-125 -227h-98z" />
    <glyph glyph-name="ecircumflex" unicode="&#xea;" horiz-adv-x="1048" 
d="M551 915q-133 0 -214 -88t-97 -258h571q2 9 2 23v22q0 207 -140 277q-50 24 -122 24zM893 82q-146 -113 -348 -113t-311 145t-109 382t109 379q109 143 310 143q200 0 301 -132q83 -109 85 -284q0 -74 -10 -129h-682q4 -178 85 -290q81 -111 238 -111t285 96zM805 1190
h-113l-129 149l-127 -149h-112v10l190 230h100l191 -230v-10z" />
    <glyph glyph-name="edieresis" unicode="&#xeb;" horiz-adv-x="1048" 
d="M551 915q-133 0 -214 -88t-97 -258h571q2 9 2 23v22q0 207 -140 277q-50 24 -122 24zM893 82q-146 -113 -348 -113t-311 145t-109 382t109 379q109 143 310 143q200 0 301 -132q83 -109 85 -284q0 -74 -10 -129h-682q4 -178 85 -290q81 -111 238 -111t285 96zM653 1286
q0 43 25 67q26 23 62 23t61 -24t25 -66t-26 -66q-24 -24 -61 -24t-61 24t-25 66zM305 1286q0 43 25 67q26 23 62 23t61 -24t25 -66t-26 -66q-24 -24 -61 -24t-61 24t-25 66z" />
    <glyph glyph-name="igrave" unicode="&#xec;" horiz-adv-x="468" 
d="M63 1430h125l101 -228v-12h-101l-125 227v13zM180 0v987h111v-987h-111z" />
    <glyph glyph-name="iacute" unicode="&#xed;" horiz-adv-x="468" 
d="M190 1190v12l99 228h125v-13l-125 -227h-99zM178 0v987h111v-987h-111z" />
    <glyph glyph-name="icircumflex" unicode="&#xee;" horiz-adv-x="471" 
d="M180 0v987h111v-987h-111zM479 1190h-112l-129 149l-127 -149h-113v10l190 230h101l190 -230v-10z" />
    <glyph glyph-name="idieresis" unicode="&#xef;" horiz-adv-x="471" 
d="M326 1286q0 43 24 67q25 23 62 23q38 0 62 -24t24 -66t-25 -66t-61 -24t-62 24q-24 24 -24 66zM-23 1286q0 43 25 67q26 23 62 23t61 -24t25 -66t-25 -66t-62 -24t-61 24t-25 66zM180 0v987h111v-987h-111z" />
    <glyph glyph-name="eth" unicode="&#xf0;" horiz-adv-x="1132" 
d="M242 465q0 -98 24.5 -172t68.5 -123t103.5 -73.5t129 -24.5t129 24.5t102.5 73.5t67.5 123t24.5 172t-24.5 172t-67.5 123t-102.5 74.5t-129 25.5t-129 -25.5t-103.5 -74.5t-68.5 -123t-24.5 -172zM1008 481q0 -231 -118 -371.5t-321.5 -140.5t-323.5 139t-120 361
q0 223 114.5 358.5t301.5 135.5q140 0 250 -95l8 4q-47 129 -191 297l-184 -51l-29 86l148 41q-95 103 -174 178v11h135q101 -106 145 -158l180 53l25 -90l-141 -41q141 -185 218 -358t77 -359z" />
    <glyph glyph-name="ntilde" unicode="&#xf1;" horiz-adv-x="1107" 
d="M606 1018q156 0 244 -89t88 -292v-637h-113v618q0 154 -55 226t-178 71q-86 -1 -168 -35t-133 -79v-801h-113v987h90l13 -86h4q47 39 131 78t190 39zM463 1364q46 0 111 -40q64 -40 94 -40q55 0 106 72l45 -66q-62 -100 -153 -100q-46 0 -112 39t-95 41q-57 0 -105 -74
l-47 66q63 102 156 102z" />
    <glyph glyph-name="ograve" unicode="&#xf2;" horiz-adv-x="1114" 
d="M762 12q-82 -43 -205 -43q-231 0 -338 159q-94 140 -92 366q0 365 224 481q83 43 206 43t205 -43q225 -117 225 -481t-225 -482zM557 72q313 0 313 422q0 290 -156 386q-60 36 -156 36q-314 -2 -314 -423t313 -421zM389 1430h125l100 -228v-12h-100l-125 227v13z" />
    <glyph glyph-name="oacute" unicode="&#xf3;" horiz-adv-x="1114" 
d="M762 12q-82 -43 -205 -43q-231 0 -338 159q-94 140 -92 366q0 365 224 481q83 43 206 43t205 -43q225 -117 225 -481t-225 -482zM557 72q313 0 313 422q0 290 -156 386q-60 36 -156 36q-314 -2 -314 -423t313 -421zM498 1190v12l98 228h125v-13l-125 -227h-98z" />
    <glyph glyph-name="ocircumflex" unicode="&#xf4;" horiz-adv-x="1114" 
d="M762 12q-82 -43 -205 -43q-231 0 -338 159q-94 140 -92 366q0 365 224 481q83 43 206 43t205 -43q225 -117 225 -481t-225 -482zM557 72q313 0 313 422q0 290 -156 386q-60 36 -156 36q-314 -2 -314 -423t313 -421zM803 1190h-113l-129 149l-127 -149h-112v10l190 230
h100l191 -230v-10z" />
    <glyph glyph-name="otilde" unicode="&#xf5;" horiz-adv-x="1114" 
d="M762 12q-82 -43 -205 -43q-231 0 -338 159q-94 140 -92 366q0 365 224 481q83 43 206 43t205 -43q225 -117 225 -481t-225 -482zM557 72q313 0 313 422q0 290 -156 386q-60 36 -156 36q-314 -2 -314 -423t313 -421zM461 1364q46 0 111 -40q64 -40 94 -40q55 0 106 72
l45 -66q-62 -100 -153 -100q-46 0 -112 39t-95 41q-57 0 -105 -74l-47 66q63 102 156 102z" />
    <glyph glyph-name="odieresis" unicode="&#xf6;" horiz-adv-x="1114" 
d="M762 12q-82 -43 -205 -43q-231 0 -338 159q-94 140 -92 366q0 365 224 481q83 43 206 43t205 -43q225 -117 225 -481t-225 -482zM557 72q313 0 313 422q0 290 -156 386q-60 36 -156 36q-314 -2 -314 -423t313 -421zM647 1286q0 43 25 67q26 23 62 23t61 -24t25 -66
t-26 -66q-24 -24 -61 -24t-61 24t-25 66zM299 1286q0 43 25 67q26 23 62 23t60 -24t25 -66q0 -42 -25 -66q-26 -24 -62 -24t-60 24t-25 66z" />
    <glyph glyph-name="divide" unicode="&#xf7;" 
d="M993 602v-98h-860v98h860zM461 250q0 45 27 75q28 29 75 29t75 -30t28 -74q0 -45 -28 -75t-75 -30t-75 30q-27 30 -27 75zM461 848q0 45 27 75q28 29 75 29t75 -30t28 -74q0 -45 -28 -75t-75 -30t-75 30q-27 30 -27 75z" />
    <glyph glyph-name="oslash" unicode="&#xf8;" horiz-adv-x="1114" 
d="M761.5 135.5q108.5 63.5 108.5 350.5q0 180 -55 284l-444 -643q71 -55 177 -55q105 0 213.5 63.5zM352.5 851.5q-108.5 -63.5 -108.5 -360.5q0 -189 61 -292l447 653q-76 63 -184 63q-107 0 -215.5 -63.5zM127 494q0 365 153.5 444.5t292.5 79.5t242 -76l62 90l79 -59
l-71 -103q102 -137 102 -376q0 -364 -153.5 -444.5t-291.5 -80.5t-235 68l-61 -88l-72 57l66 94q-113 137 -113 394z" />
    <glyph glyph-name="ugrave" unicode="&#xf9;" horiz-adv-x="1091" 
d="M492 -31q-156 0 -239 89t-83 292v637h113v-618q0 -154 50 -226t173 -71q86 0 166 34t129 80v801h112v-987h-88l-14 86h-4q-47 -39 -128 -78t-187 -39zM371 1430h125l100 -228v-12h-100l-125 227v13z" />
    <glyph glyph-name="uacute" unicode="&#xfa;" horiz-adv-x="1091" 
d="M492 -31q-156 0 -239 89t-83 292v637h113v-618q0 -154 50 -226t173 -71q86 0 166 34t129 80v801h112v-987h-88l-14 86h-4q-47 -39 -128 -78t-187 -39zM492 1190v12l98 228h125v-13l-125 -227h-98z" />
    <glyph glyph-name="ucircumflex" unicode="&#xfb;" horiz-adv-x="1091" 
d="M492 -31q-156 0 -239 89t-83 292v637h113v-618q0 -154 50 -226t173 -71q86 0 166 34t129 80v801h112v-987h-88l-14 86h-4q-47 -39 -128 -78t-187 -39zM786 1190h-112l-129 149l-127 -149h-113v10l191 230h100l190 -230v-10z" />
    <glyph glyph-name="udieresis" unicode="&#xfc;" horiz-adv-x="1091" 
d="M492 -31q-156 0 -239 89t-83 292v637h113v-618q0 -154 50 -226t173 -71q86 0 166 34t129 80v801h112v-987h-88l-14 86h-4q-47 -39 -128 -78t-187 -39zM631 1286q0 43 24 67q25 23 62 23t61 -24t25 -66q0 -42 -25 -66q-26 -24 -62 -24t-60 24t-25 66zM283 1286q0 43 24 67
q25 23 62 23t61 -24t25 -66q0 -42 -25 -66q-26 -24 -62 -24t-60 24t-25 66z" />
    <glyph glyph-name="yacute" unicode="&#xfd;" horiz-adv-x="956" 
d="M66 987h112l256 -688l49 -176h6l48 174l235 690h113v-12l-393 -1145q-90 -266 -297 -266q-61 0 -119 18v101q142 -43 221 23q47 40 78 130l57 168l-366 971v12zM438 1190v12l99 228h125v-13l-125 -227h-99z" />
    <glyph glyph-name="thorn" unicode="&#xfe;" horiz-adv-x="1099" 
d="M291 1434v-531h4q53 47 121 81t170 34q192 0 289.5 -144t97.5 -380t-97.5 -380.5t-281.5 -144.5q-109 0 -177.5 34t-121.5 81h-4v-490h-113v1840h113zM856 543q0 137 -66.5 254.5t-217.5 117.5q-152 0 -281 -120v-602q130 -121 291 -121q207 0 240.5 167t33.5 304z" />
    <glyph glyph-name="ydieresis" unicode="&#xff;" horiz-adv-x="956" 
d="M66 987h112l256 -688l49 -176h6l48 174l235 690h113v-12l-393 -1145q-90 -266 -297 -266q-61 0 -119 18v101q142 -43 221 23q47 40 78 130l57 168l-366 971v12zM578 1286q0 43 24 67q25 23 62 23q38 0 62 -24t24 -66t-25 -66t-61 -24t-62 24q-24 24 -24 66zM229 1286
q0 43 25 67q26 23 62 23t61 -24t25 -66t-26 -66q-24 -24 -61 -24t-61 24t-25 66z" />
    <glyph glyph-name="Amacron" unicode="&#x100;" horiz-adv-x="1181" 
d="M588 1255l-101 -329l-155 -451h518l-156 451l-100 329h-6zM1133 0h-119l-129 369h-588l-129 -369h-119l483 1393h117zM358 1606v100h467v-100h-467z" />
    <glyph glyph-name="amacron" unicode="&#x101;" horiz-adv-x="983" 
d="M498 573h202v78q0 264 -243 264q-147 0 -250 -92l-51 84q49 43 129 77t172 34q174 0 265 -94t91 -275v-649h-88l-12 80h-4q-134 -107 -308 -107q-133 0 -213 77t-80 225t106 223q105 75 284 75zM700 477h-190q-139 0 -212 -48t-73 -161q0 -193 195 -192q170 0 280 96v305
zM248 1219v98h467v-98h-467z" />
    <glyph glyph-name="Abreve" unicode="&#x102;" horiz-adv-x="1181" 
d="M588 1255l-101 -329l-155 -451h518l-156 451l-100 329h-6zM1133 0h-119l-129 369h-588l-129 -369h-119l483 1393h117zM593 1665q79 0 123 29t75 67l53 -51q-37 -63 -95 -104q-59 -41 -155 -41q-172 0 -252 145l53 51q31 -39 75 -67t123 -29z" />
    <glyph glyph-name="abreve" unicode="&#x103;" horiz-adv-x="983" 
d="M498 573h202v78q0 264 -243 264q-147 0 -250 -92l-51 84q49 43 129 77t172 34q174 0 265 -94t91 -275v-649h-88l-12 80h-4q-134 -107 -308 -107q-133 0 -213 77t-80 225t106 223q105 75 284 75zM700 477h-190q-139 0 -212 -48t-73 -161q0 -193 195 -192q170 0 280 96v305
zM484 1270q79 0 123 28t75 68l53 -49q-37 -63 -95 -105t-154 -41q-170 0 -253 146l54 49q31 -40 75 -68t122 -28z" />
    <glyph glyph-name="Aogonek" unicode="&#x104;" horiz-adv-x="1181" 
d="M588 1255l-101 -329l-155 -451h518l-156 451l-100 329h-6zM994 -436q-81 0 -129 47t-48 125q0 139 192 276l-124 357h-588l-129 -369h-119l483 1393h117l484 -1393q-109 -80 -162 -131t-53 -101q0 -110 90 -110q55 0 127 47l14 -86q-74 -55 -155 -55z" />
    <glyph glyph-name="aogonek" unicode="&#x105;" horiz-adv-x="983" 
d="M700 477h-190q-139 0 -212 -48t-73 -161q0 -193 195 -192q170 0 280 96v305zM674 -436q-80 0 -128 47t-48 113t21 109q46 93 201 201l-7 46h-4q-134 -107 -308 -107q-133 0 -213 77t-80 225t106 223q105 75 284 75h202v78q0 264 -243 264q-147 0 -250 -92l-51 84
q49 43 129 77t172 34q174 0 265 -94t91 -275v-649q-109 -80 -162 -131t-53 -101q0 -110 90 -110q58 0 127 47l14 -86q-75 -55 -155 -55z" />
    <glyph glyph-name="Cacute" unicode="&#x106;" horiz-adv-x="1148" 
d="M731 -30q-292 -2 -441 191t-149 534q0 342 149 535t423 193q174 0 321 -88l-41 -96q-131 72 -263 72t-216 -42t-140 -122q-112 -160 -112 -451q0 -446 252 -572q84 -42 216 -42t263 72l41 -97q-146 -86 -303 -87zM637 1526v12l94 229h129v-12l-121 -229h-102z" />
    <glyph glyph-name="cacute" unicode="&#x107;" horiz-adv-x="937" 
d="M125 494q0 228 105 376t315 148q161 0 289 -74l-37 -88q-101 59 -257 59q-155 0 -233 -139q-65 -113 -65 -282q0 -278 159 -383q59 -39 146 -39q149 0 250 59l37 -88q-122 -72 -261 -73t-218 40q-230 119 -230 484zM504 1190v12l98 228h125v-13l-125 -227h-98z" />
    <glyph glyph-name="Ccircumflex" unicode="&#x108;" horiz-adv-x="1148" 
d="M731 -30q-292 -2 -441 191t-149 534q0 342 149 535t423 193q174 0 321 -88l-41 -96q-131 72 -263 72t-216 -42t-140 -122q-112 -160 -112 -451q0 -446 252 -572q84 -42 216 -42t263 72l41 -97q-146 -86 -303 -87zM930 1526h-115l-127 149l-125 -149h-114v12l190 229h100
l191 -229v-12z" />
    <glyph glyph-name="ccircumflex" unicode="&#x109;" horiz-adv-x="937" 
d="M125 494q0 228 105 376t315 148q161 0 289 -74l-37 -88q-101 59 -257 59q-155 0 -233 -139q-65 -113 -65 -282q0 -278 159 -383q59 -39 146 -39q149 0 250 59l37 -88q-122 -72 -261 -73t-218 40q-230 119 -230 484zM793 1190h-113l-129 149l-127 -149h-113v10l191 230
h100l191 -230v-10z" />
    <glyph glyph-name="Cdotaccent" unicode="&#x10a;" horiz-adv-x="1148" 
d="M731 -30q-292 -2 -441 191t-149 534q0 342 149 535t423 193q174 0 321 -88l-41 -96q-131 72 -263 72t-216 -42t-140 -122q-112 -160 -112 -451q0 -446 252 -572q84 -42 216 -42t263 72l41 -97q-146 -86 -303 -87zM602 1647q0 43 25 67t61 23q36 0 62 -24q24 -25 24 -67
t-24 -66t-62 -24t-62 24t-24 67z" />
    <glyph glyph-name="cdotaccent" unicode="&#x10b;" horiz-adv-x="937" 
d="M125 494q0 228 105 376t315 148q161 0 289 -74l-37 -88q-101 59 -257 59q-155 0 -233 -139q-65 -113 -65 -282q0 -278 159 -383q59 -39 146 -39q149 0 250 59l37 -88q-122 -72 -261 -73t-218 40q-230 119 -230 484zM465 1286q0 43 24 67q25 23 62 23t61 -24t25 -66
q0 -42 -25 -66q-26 -24 -62 -24t-60 24t-25 66z" />
    <glyph glyph-name="Ccaron" unicode="&#x10c;" horiz-adv-x="1148" 
d="M731 -30q-292 -2 -441 191t-149 534q0 342 149 535t423 193q174 0 321 -88l-41 -96q-131 72 -263 72t-216 -42t-140 -122q-112 -160 -112 -451q0 -446 252 -572q84 -42 216 -42t263 72l41 -97q-146 -86 -303 -87zM444 1767h115l125 -149l127 149h115v-12l-191 -229h-100
l-191 229v12z" />
    <glyph glyph-name="ccaron" unicode="&#x10d;" horiz-adv-x="937" 
d="M125 494q0 228 105 376t315 148q161 0 289 -74l-37 -88q-101 59 -257 59q-155 0 -233 -139q-65 -113 -65 -282q0 -278 159 -383q59 -39 146 -39q149 0 250 59l37 -88q-122 -72 -261 -73t-218 40q-230 119 -230 484zM317 1430h113l129 -150l127 150h113v-11l-191 -229
h-100l-191 229v11z" />
    <glyph glyph-name="Dcaron" unicode="&#x10e;" horiz-adv-x="1333" 
d="M506 109q317 0 441 144t124 442t-125 444q-125 145 -440 145h-182v-1175h182zM209 1393h319q348 0 510 -184q154 -171 154 -513q0 -518 -359 -650q-126 -46 -305 -46h-319v1393zM387 1767h115l125 -149l127 149h114v-12l-190 -229h-100l-191 229v12z" />
    <glyph glyph-name="dcaron" unicode="&#x10f;" horiz-adv-x="1101" 
d="M511 -31q-101 0 -172 39q-140 77 -188 276q-24 95 -24 209q0 231 96 378t283 147q110 0 178 -34t121 -81h4v531h113v-1434h-88l-19 86h-4q-53 -41 -126 -79t-174 -38zM244 494q0 -293 148 -390q52 -33 126 -32q163 0 291 121v602q-131 122 -281 121t-217 -116
q-67 -116 -67 -306zM1194 1393v-15l-66 -276h-90v14l33 277h123z" />
    <glyph glyph-name="Dcroat" unicode="&#x110;" horiz-adv-x="1333" 
d="M506 109q317 0 441 144t124 442t-125 444q-125 145 -440 145h-182v-543h313v-108h-313v-524h182zM209 633h-98v108h98v652h319q348 0 510 -184q154 -171 154 -513q0 -518 -359 -650q-126 -46 -305 -46h-319v633z" />
    <glyph glyph-name="dcroat" unicode="&#x111;" horiz-adv-x="1101" 
d="M244 440q0 -243 100 -305.5t174 -62.5q163 0 291 121v602q-129 120 -280 120t-218 -116t-67 -359zM511 -31q-191 0 -287.5 144.5t-96.5 380.5q0 235 96.5 379.5t282.5 144.5q109 0 177.5 -34t121.5 -81h4v262h-217v99h217v170h113v-170h141v-99h-141v-1165h-88l-19 86h-4
q-53 -41 -126 -79t-174 -38z" />
    <glyph glyph-name="Emacron" unicode="&#x112;" horiz-adv-x="1134" 
d="M991 1393v-109h-667v-516h608v-109h-608v-550h673v-109h-788v1393h782zM377 1606v100h467v-100h-467z" />
    <glyph glyph-name="emacron" unicode="&#x113;" horiz-adv-x="1048" 
d="M551 915q-133 0 -214 -88t-97 -258h571q2 9 2 23v22q0 207 -140 277q-50 24 -122 24zM893 82q-146 -113 -348 -113t-311 145t-109 382t109 379q109 143 310 143q200 0 301 -132q83 -109 85 -284q0 -74 -10 -129h-682q4 -178 85 -290q81 -111 238 -111t285 96zM330 1219
v98h467v-98h-467z" />
    <glyph glyph-name="Ebreve" unicode="&#x114;" horiz-adv-x="1134" 
d="M991 1393v-109h-667v-516h608v-109h-608v-550h673v-109h-788v1393h782zM597 1665q79 0 123 29t75 67l53 -51q-37 -63 -95 -104q-59 -41 -155 -41q-172 0 -252 145l53 51q31 -39 75 -67t123 -29z" />
    <glyph glyph-name="ebreve" unicode="&#x115;" horiz-adv-x="1048" 
d="M551 915q-133 0 -214 -88t-97 -258h571q2 9 2 23v22q0 207 -140 277q-50 24 -122 24zM893 82q-146 -113 -348 -113t-311 145t-109 382t109 379q109 143 310 143q200 0 301 -132q83 -109 85 -284q0 -74 -10 -129h-682q4 -178 85 -290q81 -111 238 -111t285 96zM560 1270
q79 0 123 28t75 68l53 -49q-37 -63 -95 -105t-154 -41q-173 0 -253 146l53 49q31 -40 75 -68t123 -28z" />
    <glyph glyph-name="Edotaccent" unicode="&#x116;" horiz-adv-x="1134" 
d="M991 1393v-109h-667v-516h608v-109h-608v-550h673v-109h-788v1393h782zM516 1647q0 43 25 67t61 23q36 0 62 -24q24 -25 24 -67t-24 -66t-62 -24t-62 24t-24 67z" />
    <glyph glyph-name="edotaccent" unicode="&#x117;" horiz-adv-x="1048" 
d="M551 915q-133 0 -214 -88t-97 -258h571q2 9 2 23v22q0 207 -140 277q-50 24 -122 24zM893 82q-146 -113 -348 -113t-311 145t-109 382t109 379q109 143 310 143q200 0 301 -132q83 -109 85 -284q0 -74 -10 -129h-682q4 -178 85 -290q81 -111 238 -111t285 96zM479 1286
q0 43 25 67q26 23 62 23t61 -24t25 -66t-26 -66q-24 -24 -61 -24t-61 24t-25 66z" />
    <glyph glyph-name="Eogonek" unicode="&#x118;" horiz-adv-x="1134" 
d="M859 -436q-81 0 -129 47t-48 113t30 126q30 61 134 141q6 5 12 9h-649v1393h782v-109h-667v-516h608v-109h-608v-550h673v-109q-109 -80 -161 -131t-54 -101q-1 -109 90 -110q58 0 127 47l15 -86q-74 -55 -155 -55z" />
    <glyph glyph-name="eogonek" unicode="&#x119;" horiz-adv-x="1048" 
d="M551 915q-133 0 -214 -88t-97 -258h571q2 10 2 13v32q0 208 -95 254.5t-167 46.5zM235.5 876.5q110.5 141.5 310.5 141.5t292 -123t92 -293q0 -72 -10 -129h-682q4 -178 84.5 -289.5t238.5 -111.5t285 96l47 -86l-29 -21q-149 -119 -182 -197.5t-33 -112.5t21.5 -63.5
t71.5 -29.5t124 47l15 -86q-74 -55 -155 -55t-129 47t-48 125q0 137 115 244l-2 2q-30 -13 -122 -13t-174.5 40t-161.5 144t-79 343t110.5 380.5z" />
    <glyph glyph-name="Ecaron" unicode="&#x11a;" horiz-adv-x="1134" 
d="M991 1393v-109h-667v-516h608v-109h-608v-550h673v-109h-788v1393h782zM358 1767h115l125 -149l127 149h115v-12l-191 -229h-100l-191 229v12z" />
    <glyph glyph-name="ecaron" unicode="&#x11b;" horiz-adv-x="1048" 
d="M551 915q-133 0 -214 -88t-97 -258h571q2 9 2 23v22q0 207 -140 277q-50 24 -122 24zM893 82q-146 -113 -348 -113t-311 145t-109 382t109 379q109 143 310 143q200 0 301 -132q83 -109 85 -284q0 -74 -10 -129h-682q4 -178 85 -290q81 -111 238 -111t285 96zM324 1430
h112l129 -150l127 150h113v-11l-191 -229h-100l-190 229v11z" />
    <glyph glyph-name="Gcircumflex" unicode="&#x11c;" horiz-adv-x="1265" 
d="M725 666h385v-574q-78 -53 -190 -88t-241 -35q-254 0 -396 196t-142 527q0 332 145 532q145 199 410 199q217 0 400 -125l-52 -94q-174 107 -348 107q-207 0 -320 -165q-114 -165 -114 -449q0 -283 107 -449t304 -166t322 76v399l-270 23v86zM926 1526h-115l-127 149
l-125 -149h-115v12l191 229h100l191 -229v-12z" />
    <glyph glyph-name="gcircumflex" unicode="&#x11d;" horiz-adv-x="1097" 
d="M504 1018q180 0 309 -117h4l12 86h91v-1014q0 -195 -100 -303t-282 -106q-183 0 -317 84l37 96q143 -78 274 -78q275 0 275 303v117h-4q-125 -115 -309 -115t-275 147q-92 147 -92 376q0 364 203 482q72 42 174 42zM244 494q0 -287 143 -385q51 -35 129 -35
q178 0 291 123v596q-116 124 -291 122q-141 0 -213 -128q-59 -104 -59 -293zM801 1190h-113l-129 149l-127 -149h-113v10l191 230h100l191 -230v-10z" />
    <glyph glyph-name="Gbreve" unicode="&#x11e;" horiz-adv-x="1265" 
d="M725 666h385v-574q-78 -53 -190 -88t-241 -35q-254 0 -396 196t-142 527q0 332 145 532q145 199 410 199q217 0 400 -125l-52 -94q-174 107 -348 107q-207 0 -320 -165q-114 -165 -114 -449q0 -283 107 -449t304 -166t322 76v399l-270 23v86zM689 1665q79 0 123 29t75 67
l53 -51q-37 -63 -95 -104q-59 -41 -155 -41q-170 0 -252 145l54 51q30 -39 74 -67t123 -29z" />
    <glyph glyph-name="gbreve" unicode="&#x11f;" horiz-adv-x="1097" 
d="M504 1018q180 0 309 -117h4l12 86h91v-1014q0 -195 -100 -303t-282 -106q-183 0 -317 84l37 96q143 -78 274 -78q275 0 275 303v117h-4q-125 -115 -309 -115t-275 147q-92 147 -92 376q0 364 203 482q72 42 174 42zM244 494q0 -287 143 -385q51 -35 129 -35
q178 0 291 123v596q-116 124 -291 122q-141 0 -213 -128q-59 -104 -59 -293zM560 1270q79 0 123 28t75 68l53 -49q-37 -63 -95 -105t-154 -41q-173 0 -253 146l53 49q31 -40 75 -68t123 -28z" />
    <glyph glyph-name="Gdotaccent" unicode="&#x120;" horiz-adv-x="1265" 
d="M725 666h385v-574q-78 -53 -190 -88t-241 -35q-254 0 -396 196t-142 527q0 332 145 532q145 199 410 199q217 0 400 -125l-52 -94q-174 107 -348 107q-207 0 -320 -165q-114 -165 -114 -449q0 -283 107 -449t304 -166t322 76v399l-270 23v86zM606 1647q0 43 25 67t61 23
q36 0 62 -24q24 -25 24 -67t-24 -66t-62 -24t-62 24t-24 67z" />
    <glyph glyph-name="gdotaccent" unicode="&#x121;" horiz-adv-x="1097" 
d="M504 1018q180 0 309 -117h4l12 86h91v-1014q0 -195 -100 -303t-282 -106q-183 0 -317 84l37 96q143 -78 274 -78q275 0 275 303v117h-4q-125 -115 -309 -115t-275 147q-92 147 -92 376q0 364 203 482q72 42 174 42zM244 494q0 -287 143 -385q51 -35 129 -35
q178 0 291 123v596q-116 124 -291 122q-141 0 -213 -128q-59 -104 -59 -293zM471 1286q0 43 25 67q26 23 62 23t60 -24t25 -66q0 -42 -25 -66q-26 -24 -62 -24t-60 24t-25 66z" />
    <glyph glyph-name="uni0122" unicode="&#x122;" horiz-adv-x="1265" 
d="M725 666h385v-574q-78 -53 -190 -88t-241 -35q-254 0 -396 196t-142 527q0 332 145 532q145 199 410 199q217 0 400 -125l-52 -94q-174 107 -348 107q-207 0 -320 -165q-114 -165 -114 -449q0 -283 107 -449t304 -166t322 76v399l-270 23v86zM748 -156v-14l-66 -276h-90
v14l33 276h123z" />
    <glyph glyph-name="uni0123" unicode="&#x123;" horiz-adv-x="1097" 
d="M504 1018q180 0 309 -117h4l12 86h91v-1014q0 -195 -100 -303t-282 -106q-183 0 -317 84l37 96q143 -78 274 -78q275 0 275 303v117h-4q-125 -115 -309 -115t-275 147q-92 147 -92 376q0 364 203 482q72 42 174 42zM244 494q0 -287 143 -385q51 -35 129 -35
q178 0 291 123v596q-116 124 -291 122q-141 0 -213 -128q-59 -104 -59 -293zM500 1178v14l65 276h88v-14l-32 -276h-121z" />
    <glyph glyph-name="Hcircumflex" unicode="&#x124;" horiz-adv-x="1368" 
d="M1044 655h-720v-655h-115v1393h115v-629h720v629h115v-1393h-115v655zM926 1526h-115l-127 149l-125 -149h-115v12l191 229h100l191 -229v-12z" />
    <glyph glyph-name="hcircumflex" unicode="&#x125;" horiz-adv-x="1107" 
d="M825 0v618q0 154 -55 226t-179 72t-242 -74q-34 -20 -58 -41v-801h-113v1434h113v-527h4q159 111 313 111t242 -89t88 -292v-637h-113zM811 1546h-115l-127 150l-125 -150h-114v13l190 229h101l190 -229v-13z" />
    <glyph glyph-name="Hbar" unicode="&#x126;" horiz-adv-x="1368" 
d="M1044 764v295h-720v-295h720zM1044 655h-720v-655h-115v1059h-80v108h80v226h115v-226h720v226h115v-226h80v-108h-80v-1059h-115v655z" />
    <glyph glyph-name="hbar" unicode="&#x127;" horiz-adv-x="1110" 
d="M297 907q159 111 313 111t242 -89t88 -292v-637h-113v618q0 154 -55 225.5t-177 71.5t-200 -47t-102 -67v-801h-113v1165h-141v99h141v170h113v-170h217v-99h-217v-258h4z" />
    <glyph glyph-name="Itilde" unicode="&#x128;" horiz-adv-x="532" 
d="M324 0h-115v1393h115v-1393zM166 1737q41 1 89 -27t72 -40t44 -13q59 0 106 72l45 -68q-64 -104 -153 -102q-43 -1 -113 39q-69 40 -94 40q-61 0 -105 -71l-47 67q66 103 156 103z" />
    <glyph glyph-name="itilde" unicode="&#x129;" horiz-adv-x="471" 
d="M135 1364q45 0 111 -40t94 -40q55 0 106 72l46 -66q-62 -100 -154 -100q-44 0 -111 39q-68 39 -96 41q-56 0 -104 -74l-47 66q63 102 155 102zM180 0v987h111v-987h-111z" />
    <glyph glyph-name="Imacron" unicode="&#x12a;" horiz-adv-x="532" 
d="M324 0h-115v1393h115v-1393zM33 1606v100h467v-100h-467z" />
    <glyph glyph-name="imacron" unicode="&#x12b;" horiz-adv-x="471" 
d="M4 1219v98h467v-98h-467zM180 0v987h111v-987h-111z" />
    <glyph glyph-name="Ibreve" unicode="&#x12c;" horiz-adv-x="532" 
d="M324 0h-115v1393h115v-1393zM265 1665q79 0 123 29t75 67l53 -51q-37 -63 -95 -104q-59 -41 -155 -41q-170 0 -252 145l54 51q30 -39 74 -67t123 -29z" />
    <glyph glyph-name="ibreve" unicode="&#x12d;" horiz-adv-x="471" 
d="M487 1317q-86 -146 -253 -146q-168 0 -248 146l53 49q31 -40 75 -68t123 -28t123 28t74 68zM180 0v987h111v-987h-111z" />
    <glyph glyph-name="Iogonek" unicode="&#x12e;" horiz-adv-x="532" 
d="M158 -238q0 -104 88 -104q45 0 116 43l15 -86q-69 -51 -146 -51q-78 0 -126 47t-48 119q0 140 152 273v1390h115v-1391l2 -2q-82 -80 -125 -134t-43 -104z" />
    <glyph glyph-name="iogonek" unicode="&#x12f;" horiz-adv-x="468" 
d="M150 1286q0 43 24 67q25 23 62 23q38 0 62 -24t24 -66t-25 -66t-61 -24t-62 24q-24 24 -24 66zM198 -436q-77 0 -125 47t-48 119q0 138 155 277v980h111v-985l2 -2q-82 -80 -125 -134t-43 -104q0 -104 88 -104q35 0 61 13t56 30l14 -86q-69 -51 -146 -51z" />
    <glyph glyph-name="Idotaccent" unicode="&#x130;" horiz-adv-x="532" 
d="M324 0h-115v1393h115v-1393zM178 1647q0 43 25 67t61 23q36 0 62 -24q24 -25 24 -67t-24 -66t-62 -24t-62 24t-24 67z" />
    <glyph glyph-name="dotlessi" unicode="&#x131;" horiz-adv-x="466" 
d="M178 0v987h111v-987h-111z" />
    <glyph glyph-name="IJ" unicode="&#x132;" horiz-adv-x="1447" 
d="M324 0h-115v1393h115v-1393zM905 82q101 0 164 66t64 223v1022h114v-1033q0 -194 -96 -292t-241 -98t-271 92q-31 24 -51 47l61 86q37 -39 96 -76t160 -37z" />
    <glyph glyph-name="ij" unicode="&#x133;" horiz-adv-x="935" 
d="M147 1286q0 43 25 67q26 23 62 23t61 -24t25 -66t-26 -66q-24 -24 -61 -24t-61 24t-25 66zM178 0v987h111v-987h-111zM614 1286q0 43 25 67q25 23 61 23t62 -24q24 -24 24 -66t-24 -66t-62 -24t-62 24t-24 66zM524 -334q56 0 89 39q32 39 32 148v1134h113v-1128
q0 -154 -62 -225t-172 -70q-55 0 -106 14v98q50 -10 106 -10z" />
    <glyph glyph-name="Jcircumflex" unicode="&#x134;" horiz-adv-x="915" 
d="M600 371v1022h115v-1033q-1 -194 -97 -292t-241 -98t-271 92q-31 24 -51 47l62 86q107 -113 232 -113q124 0 188 65q63 66 63 224zM897 1526h-115l-127 149l-125 -149h-114v12l190 229h101l190 -229v-12z" />
    <glyph glyph-name="jcircumflex" unicode="&#x135;" horiz-adv-x="473" 
d="M60 -334q56 0 88 39t32 148v1134h113v-1128q1 -154 -61 -225t-173 -70q-55 0 -106 14v98q51 -10 107 -10zM477 1190h-112l-129 149l-127 -149h-113v10l190 230h101l190 -230v-10z" />
    <glyph glyph-name="uni0136" unicode="&#x136;" horiz-adv-x="1107" 
d="M324 655v-655h-115v1393h115v-684h4l567 684h137v-13l-581 -690l606 -678v-12h-150l-579 655h-4zM637 -156v-14l-66 -276h-90v14l33 276h123z" />
    <glyph glyph-name="uni0137" unicode="&#x137;" horiz-adv-x="929" 
d="M291 459v-459h-113v1434h113v-918h4l424 471h137v-10l-446 -488l462 -477v-12h-145l-432 459h-4zM530 -156v-14l-63 -276h-90v14l33 276h120z" />
    <glyph glyph-name="kgreenlandic" unicode="&#x138;" horiz-adv-x="929" 
d="M291 459v-459h-113v987h113v-471h4l424 471h137v-10l-446 -488l462 -477v-12h-145l-432 459h-4z" />
    <glyph glyph-name="Lacute" unicode="&#x139;" horiz-adv-x="1001" 
d="M324 1393v-1284h610v-109h-725v1393h115zM221 1526v12l94 229h129v-12l-120 -229h-103z" />
    <glyph glyph-name="lacute" unicode="&#x13a;" horiz-adv-x="485" 
d="M186 0v1434h113v-1434h-113zM190 1546v13l95 229h129v-12l-121 -230h-103z" />
    <glyph glyph-name="uni013B" unicode="&#x13b;" horiz-adv-x="1001" 
d="M324 1393v-1284h610v-109h-725v1393h115zM629 -156v-14l-66 -276h-90v14l33 276h123z" />
    <glyph glyph-name="uni013C" unicode="&#x13c;" horiz-adv-x="485" 
d="M186 0v1434h113v-1434h-113zM303 -156v-14l-63 -276h-90v14l32 276h121z" />
    <glyph glyph-name="Lcaron" unicode="&#x13d;" horiz-adv-x="1001" 
d="M324 1393v-1284h610v-109h-725v1393h115zM700 1393v-15l-65 -276h-90v14l33 277h122z" />
    <glyph glyph-name="lcaron" unicode="&#x13e;" horiz-adv-x="487" 
d="M186 0v1434h113v-1434h-113zM573 1393v-15l-65 -276h-90v14l33 277h122z" />
    <glyph glyph-name="Ldot" unicode="&#x13f;" horiz-adv-x="1003" 
d="M324 1393v-1284h610v-109h-725v1393h115zM631 713q-1 45 27 75t75 29q47 0 75 -30q28 -31 28 -75t-28 -74t-75 -30t-75 30q-27 30 -27 75z" />
    <glyph glyph-name="ldot" unicode="&#x140;" horiz-adv-x="632" 
d="M186 0v1434h113v-1434h-113zM459 721q0 45 27 75q28 30 75 30t75 -30t28 -75t-28 -75t-75 -30t-75 30q-27 30 -27 75z" />
    <glyph glyph-name="Lslash" unicode="&#x141;" horiz-adv-x="1011" 
d="M334 1393v-584l205 131h14v-113l-219 -139v-579h610v-109h-725v614l-117 -73h-12v112l129 82v658h115z" />
    <glyph glyph-name="lslash" unicode="&#x142;" horiz-adv-x="647" 
d="M260 0v625l-172 -107h-10v113l182 112v691h113v-621l184 115h10v-111l-194 -121v-696h-113z" />
    <glyph glyph-name="Nacute" unicode="&#x143;" horiz-adv-x="1366" 
d="M1042 1393h115v-1393h-110l-734 1190h-4l15 -242v-948h-115v1393h110l730 -1190h4l-11 241v949zM631 1526v12l94 229h129v-12l-121 -229h-102z" />
    <glyph glyph-name="nacute" unicode="&#x144;" horiz-adv-x="1107" 
d="M606 1018q156 0 244 -89t88 -292v-637h-113v618q0 154 -55 226t-178 71q-86 -1 -168 -35t-133 -79v-801h-113v987h90l13 -86h4q47 39 131 78t190 39zM518 1190v12l98 228h125v-13l-125 -227h-98z" />
    <glyph glyph-name="uni0145" unicode="&#x145;" horiz-adv-x="1366" 
d="M1042 1393h115v-1393h-110l-734 1190h-4l15 -242v-948h-115v1393h110l730 -1190h4l-11 241v949zM739 -156v-14l-65 -276h-90v14l32 276h123z" />
    <glyph glyph-name="uni0146" unicode="&#x146;" horiz-adv-x="1107" 
d="M606 1018q156 0 244 -89t88 -292v-637h-113v618q0 154 -55 226t-178 71q-86 -1 -168 -35t-133 -79v-801h-113v987h90l13 -86h4q47 39 131 78t190 39zM614 -156v-14l-63 -276h-90v14l33 276h120z" />
    <glyph glyph-name="Ncaron" unicode="&#x147;" horiz-adv-x="1366" 
d="M1042 1393h115v-1393h-110l-734 1190h-4l15 -242v-948h-115v1393h110l730 -1190h4l-11 241v949zM449 1767h114l125 -149l127 149h115v-12l-191 -229h-100l-190 229v12z" />
    <glyph glyph-name="ncaron" unicode="&#x148;" horiz-adv-x="1107" 
d="M606 1018q156 0 244 -89t88 -292v-637h-113v618q0 154 -55 226t-178 71q-86 -1 -168 -35t-133 -79v-801h-113v987h90l13 -86h4q47 39 131 78t190 39zM322 1430h112l129 -150l127 150h113v-11l-191 -229h-100l-190 229v11z" />
    <glyph glyph-name="napostrophe" unicode="&#x149;" horiz-adv-x="1110" 
d="M608 1018q156 0 244 -89t88 -292v-637h-113v618q0 154 -55 226t-178 71q-86 -1 -168 -35t-133 -79v-801h-113v987h90l13 -86h4q47 39 131 78t190 39zM195 1393v-15l-66 -276h-90v14l33 277h123z" />
    <glyph glyph-name="Eng" unicode="&#x14a;" horiz-adv-x="1366" 
d="M926 -436q-41 0 -113 16v105q153 -37 190 15t37 144v156l-727 1196h-4l15 -242v-954h-115v1393h110l730 -1196h4l-11 241v955h115v-1518q0 -168 -57.5 -239.5t-173.5 -71.5z" />
    <glyph glyph-name="eng" unicode="&#x14b;" horiz-adv-x="1107" 
d="M704 -334q56 0 88.5 39t32.5 148v765q0 154 -55 225.5t-178 71.5q-86 0 -168 -34.5t-133 -79.5v-801h-113v987h90l13 -86h4q47 39 131 78t190 39q156 0 244 -89t88 -292v-778q0 -154 -61.5 -224.5t-171.5 -70.5q-53 0 -107 14v98q50 -10 106 -10z" />
    <glyph glyph-name="Omacron" unicode="&#x14c;" horiz-adv-x="1363" 
d="M143 696q0 512 287 671q102 56 252 56q281 0 418 -210q121 -186 121 -517q0 -514 -287 -670q-102 -56 -252 -56q-279 -1 -418 209q-121 186 -121 517zM264 696q0 -441 215 -567q80 -47 203 -47q229 0 331 177q85 147 86 436t-86 439q-102 177 -331 177t-331 -177
q-87 -150 -87 -438zM455 1606v100h467v-100h-467z" />
    <glyph glyph-name="omacron" unicode="&#x14d;" horiz-adv-x="1114" 
d="M762 12q-82 -43 -205 -43q-231 0 -338 159q-94 140 -92 366q0 365 224 481q83 43 206 43t205 -43q225 -117 225 -481t-225 -482zM557 72q313 0 313 422q0 290 -156 386q-60 36 -156 36q-314 -2 -314 -423t313 -421zM328 1219v98h467v-98h-467z" />
    <glyph glyph-name="Obreve" unicode="&#x14e;" horiz-adv-x="1363" 
d="M143 696q0 512 287 671q102 56 252 56q281 0 418 -210q121 -186 121 -517q0 -514 -287 -670q-102 -56 -252 -56q-279 -1 -418 209q-121 186 -121 517zM264 696q0 -441 215 -567q80 -47 203 -47q229 0 331 177q85 147 86 436t-86 439q-102 177 -331 177t-331 -177
q-87 -150 -87 -438zM685 1665q79 0 123 29t75 67l53 -51q-37 -63 -95 -104q-59 -41 -155 -41q-172 0 -252 145l53 51q31 -39 75 -67t123 -29z" />
    <glyph glyph-name="obreve" unicode="&#x14f;" horiz-adv-x="1114" 
d="M762 12q-82 -43 -205 -43q-231 0 -338 159q-94 140 -92 366q0 365 224 481q83 43 206 43t205 -43q225 -117 225 -481t-225 -482zM557 72q313 0 313 422q0 290 -156 386q-60 36 -156 36q-314 -2 -314 -423t313 -421zM560 1270q79 0 123 28t75 68l53 -49q-37 -63 -95 -105
t-154 -41q-173 0 -253 146l53 49q31 -40 75 -68t123 -28z" />
    <glyph glyph-name="Ohungarumlaut" unicode="&#x150;" horiz-adv-x="1363" 
d="M143 696q0 512 287 671q102 56 252 56q281 0 418 -210q121 -186 121 -517q0 -514 -287 -670q-102 -56 -252 -56q-279 -1 -418 209q-121 186 -121 517zM264 696q0 -441 215 -567q80 -47 203 -47q229 0 331 177q85 147 86 436t-86 439q-102 177 -331 177t-331 -177
q-87 -150 -87 -438zM756 1526v12l100 229h127v-12l-125 -229h-102zM496 1526v12l100 229h127v-12l-127 -229h-100z" />
    <glyph glyph-name="ohungarumlaut" unicode="&#x151;" horiz-adv-x="1114" 
d="M762 12q-82 -43 -205 -43q-231 0 -338 159q-94 140 -92 366q0 365 224 481q83 43 206 43t205 -43q225 -117 225 -481t-225 -482zM557 72q313 0 313 422q0 290 -156 386q-60 36 -156 36q-314 -2 -314 -423t313 -421zM668 1190v10l98 230h125v-13l-125 -227h-98zM406 1190
v10l100 230h125v-13l-125 -227h-100z" />
    <glyph glyph-name="OE" unicode="&#x152;" horiz-adv-x="1818" 
d="M687 80q118 0 198 37v1157q-84 39 -200 39t-197.5 -48t-132 -132t-71 -196t-20.5 -241t20.5 -240.5t71 -195.5t132 -132t199.5 -48zM344 1317q201 106 329 106t214 -30h788v-109h-674v-514h617v-108h-617v-553h680v-109h-794q-100 -31 -221 -31t-322 107t-201 621
t201 620z" />
    <glyph glyph-name="oe" unicode="&#x153;" horiz-adv-x="1798" 
d="M1300 915q-133 0 -213.5 -88t-97.5 -258h572q2 10 2 13v32q0 208 -95.5 254.5t-167.5 46.5zM244 493.5q0 -79.5 13 -155.5t48 -135.5t95.5 -95t156.5 -35.5t156.5 35.5t95.5 95t48 135.5t13 155.5t-13 155.5t-48 135.5t-95.5 95t-156.5 35.5t-156.5 -35.5t-95.5 -95
t-48 -135.5t-13 -155.5zM127 562q0 297 153.5 376.5t276.5 79.5q281 0 373 -240q102 240 370 240q194 0 286.5 -123t92.5 -293q0 -72 -10 -129h-682q4 -178 85 -289.5t238 -111.5t285 96l47 -86q-53 -41 -138 -77t-191 -36q-279 0 -381 242q-91 -242 -375 -242
q-231 0 -330.5 148t-99.5 445z" />
    <glyph glyph-name="Racute" unicode="&#x154;" horiz-adv-x="1210" 
d="M643 737q301 0 301 275t-301 272h-319v-547h319zM209 0v1393h440q292 0 385 -213q31 -72 31 -170q0 -166 -91 -260t-251 -113l420 -623v-14h-131l-416 629h-272v-629h-115zM516 1526v12l94 229h129v-12l-121 -229h-102z" />
    <glyph glyph-name="racute" unicode="&#x155;" horiz-adv-x="675" 
d="M522 1018q53 0 99 -12l-19 -103q-46 12 -92 12q-144 0 -219 -153v-762h-113v987h86l17 -96h4q88 127 237 127zM330 1190v12l98 228h125v-13l-125 -227h-98z" />
    <glyph glyph-name="uni0156" unicode="&#x156;" horiz-adv-x="1210" 
d="M643 737q301 0 301 275t-301 272h-319v-547h319zM209 0v1393h440q292 0 385 -213q31 -72 31 -170q0 -166 -91 -260t-251 -113l420 -623v-14h-131l-416 629h-272v-629h-115zM659 -156v-14l-65 -276h-90v14l33 276h122z" />
    <glyph glyph-name="uni0157" unicode="&#x157;" horiz-adv-x="675" 
d="M522 1018q53 0 99 -12l-19 -103q-46 12 -92 12q-144 0 -219 -153v-762h-113v987h86l17 -96h4q88 127 237 127zM289 -156v-14l-64 -276h-90v14l33 276h121z" />
    <glyph glyph-name="Rcaron" unicode="&#x158;" horiz-adv-x="1210" 
d="M643 737q301 0 301 275t-301 272h-319v-547h319zM209 0v1393h440q292 0 385 -213q31 -72 31 -170q0 -166 -91 -260t-251 -113l420 -623v-14h-131l-416 629h-272v-629h-115zM326 1767h114l125 -149l127 149h115v-12l-191 -229h-100l-190 229v12z" />
    <glyph glyph-name="rcaron" unicode="&#x159;" horiz-adv-x="675" 
d="M522 1018q53 0 99 -12l-19 -103q-46 12 -92 12q-144 0 -219 -153v-762h-113v987h86l17 -96h4q88 127 237 127zM145 1430h113l129 -150l127 150h113v-11l-191 -229h-100l-191 229v11z" />
    <glyph glyph-name="Sacute" unicode="&#x15a;" horiz-adv-x="1046" 
d="M842 1214q-142 97 -285 97t-219 -72t-77 -174t33 -142q61 -70 181 -118l133 -55q234 -94 293 -258q23 -62 23 -142q0 -157 -115 -269t-293 -112q-241 0 -405 160l61 88q70 -67 149 -101t199 -34t202 72q81 72 81 186t-54 178q-54 63 -178 117l-149 65q-210 90 -262 228
q-20 53 -20 126q-1 156 110 263q112 108 293 106q123 -1 206 -35t148 -81zM492 1526v12l94 229h129v-12l-121 -229h-102z" />
    <glyph glyph-name="sacute" unicode="&#x15b;" horiz-adv-x="872" 
d="M585 120q58 48 58 125t-37 116t-143 73l-101 33q-108 35 -153 80t-63 87q-17 42 -17 104q0 125 92 201t242 79q86 0 149 -20t127 -50l-41 -96q-119 63 -229 63q-111 0 -167 -47t-56 -122q0 -76 36 -114t119 -63l101 -30q122 -37 190 -97t68 -184q0 -123 -93 -205
t-225 -83t-204 26t-132 67l50 91q118 -84 264 -82q106 0 165 48zM406 1190v12l98 228h125v-13l-125 -227h-98z" />
    <glyph glyph-name="Scircumflex" unicode="&#x15c;" horiz-adv-x="1046" 
d="M842 1214q-142 97 -285 97t-219 -72t-77 -174t33 -142q61 -70 181 -118l133 -55q234 -94 293 -258q23 -62 23 -142q0 -157 -115 -269t-293 -112q-241 0 -405 160l61 88q70 -67 149 -101t199 -34t202 72q81 72 81 186t-54 178q-54 63 -178 117l-149 65q-210 90 -262 228
q-20 53 -20 126q-1 156 110 263q112 108 293 106q123 -1 206 -35t148 -81zM793 1526h-115l-127 149l-125 -149h-115v12l191 229h100l191 -229v-12z" />
    <glyph glyph-name="scircumflex" unicode="&#x15d;" horiz-adv-x="872" 
d="M585 120q58 48 58 125t-37 116t-143 73l-101 33q-108 35 -153 80t-63 87q-17 42 -17 104q0 125 92 201t242 79q86 0 149 -20t127 -50l-41 -96q-119 63 -229 63q-111 0 -167 -47t-56 -122q0 -76 36 -114t119 -63l101 -30q122 -37 190 -97t68 -184q0 -123 -93 -205
t-225 -83t-204 26t-132 67l50 91q118 -84 264 -82q106 0 165 48zM690 1190h-112l-129 149l-127 -149h-113v10l190 230h101l190 -230v-10z" />
    <glyph glyph-name="Scedilla" unicode="&#x15e;" horiz-adv-x="1046" 
d="M485 -344q97 0 97 92q0 46 -35 62t-94 16l-11 12l36 132q-214 10 -367 159l61 88q70 -67 149 -101t199 -34t202 72q81 72 81 186t-54 178q-54 63 -178 117l-149 65q-210 90 -262 228q-20 53 -20 126q-1 156 110 263q112 108 293 106q123 -1 206 -35t148 -81l-55 -93
q-142 97 -285 97t-219 -72t-77 -174t33 -142q61 -70 181 -118l133 -55q234 -94 293 -258q23 -62 23 -142t-31 -148q-65 -144 -213 -203q-51 -20 -107 -26l-22 -75q57 -6 98 -42t41 -120t-58 -128t-143 -44t-149 39l27 86q54 -33 118 -33z" />
    <glyph glyph-name="scedilla" unicode="&#x15f;" horiz-adv-x="872" 
d="M585 120q58 48 58 125t-37 116t-143 73l-101 33q-108 35 -153 80t-63 87q-17 42 -17 104q0 125 92 201t242 79q86 0 149 -20t127 -50l-41 -96q-119 63 -229 63q-111 0 -167 -47t-56 -122q0 -76 36 -114t119 -63l101 -30q122 -37 190 -97t68 -184q0 -123 -96 -209
q-67 -58 -181 -76l-22 -75q57 -6 98 -42t41 -120t-58 -128t-143 -44t-149 39l26 86q54 -33 119 -33q97 0 97 92q0 46 -35 62t-95 16l-10 12l35 132q-149 5 -281 93l50 91q118 -84 264 -82q106 0 165 48z" />
    <glyph glyph-name="Scaron" unicode="&#x160;" horiz-adv-x="1046" 
d="M842 1214q-142 97 -285 97t-219 -72t-77 -174t33 -142q61 -70 181 -118l133 -55q234 -94 293 -258q23 -62 23 -142q0 -157 -115 -269t-293 -112q-241 0 -405 160l61 88q70 -67 149 -101t199 -34t202 72q81 72 81 186t-54 178q-54 63 -178 117l-149 65q-210 90 -262 228
q-20 53 -20 126q-1 156 110 263q112 108 293 106q123 -1 206 -35t148 -81zM313 1767h115l125 -149l127 149h115v-12l-191 -229h-100l-191 229v12z" />
    <glyph glyph-name="scaron" unicode="&#x161;" horiz-adv-x="872" 
d="M585 120q58 48 58 125t-37 116t-143 73l-101 33q-108 35 -153 80t-63 87q-17 42 -17 104q0 125 92 201t242 79q86 0 149 -20t127 -50l-41 -96q-119 63 -229 63q-111 0 -167 -47t-56 -122q0 -76 36 -114t119 -63l101 -30q122 -37 190 -97t68 -184q0 -123 -93 -205
t-225 -83t-204 26t-132 67l50 91q118 -84 264 -82q106 0 165 48zM211 1430h113l129 -150l127 150h112v-11l-190 -229h-101l-190 229v11z" />
    <glyph glyph-name="uni0162" unicode="&#x162;" horiz-adv-x="1028" 
d="M467 -344q98 0 96 92q0 46 -35 62t-94 16l-10 12l43 162h-10v1284h-387v109h888v-109h-387v-1284h-8l-31 -102q56 -6 98 -42t42 -120t-58 -128t-144 -44q-85 0 -148 39l26 86q54 -33 119 -33z" />
    <glyph glyph-name="uni0163" unicode="&#x163;" horiz-adv-x="663" 
d="M238 227v662h-175v76l175 22v230h112v-230h244v-98h-244v-660q0 -94 31 -126q58 -60 213 -5v-102q-97 -33 -155 -26l-21 -72q57 -6 98 -42t41 -120t-58 -128t-143 -44t-149 39l26 86q54 -33 119 -33q97 0 97 92q0 46 -35 62t-95 16l-10 12l40 150q-111 46 -111 239z" />
    <glyph glyph-name="Tcaron" unicode="&#x164;" horiz-adv-x="1028" 
d="M958 1393v-109h-387v-1284h-114v1284h-387v109h888zM279 1767h114l125 -149l127 149h115v-12l-191 -229h-100l-190 229v12z" />
    <glyph glyph-name="tcaron" unicode="&#x165;" horiz-adv-x="663" 
d="M238 227v662h-175v76l175 22v230h112v-230h244v-98h-244v-660q0 -94 31 -126q58 -60 213 -5v-102q-78 -27 -139 -27q-109 1 -163 59t-54 199zM664 1393v-15l-66 -276h-90v14l33 277h123z" />
    <glyph glyph-name="Tbar" unicode="&#x166;" horiz-adv-x="1028" 
d="M958 1393v-109h-387v-493h240v-97h-240v-694h-114v694h-238v97h238v493h-387v109h888z" />
    <glyph glyph-name="tbar" unicode="&#x167;" horiz-adv-x="669" 
d="M240 227v289h-140v98h140v275h-174v76l174 22v230h112v-230h244v-98h-244v-275h223v-98h-223v-287q0 -94 31 -125.5t84 -31.5t129 26v-102q-78 -27 -139 -27q-109 0 -163 58.5t-54 199.5z" />
    <glyph glyph-name="Utilde" unicode="&#x168;" horiz-adv-x="1339" 
d="M670 -31q-244 0 -358 135t-113 367v922h114v-912q0 -195 85 -297q86 -102 272 -102t271 102t85 297v912h115v-922q0 -367 -261 -467q-89 -35 -210 -35zM565 1737q42 1 90 -27q47 -28 71 -40t44 -13q58 0 107 72l45 -68q-64 -104 -154 -102q-41 0 -89 27q-49 28 -73 40
t-45 12q-60 0 -104 -71l-47 67q66 103 155 103z" />
    <glyph glyph-name="utilde" unicode="&#x169;" horiz-adv-x="1091" 
d="M492 -31q-156 0 -239 89t-83 292v637h113v-618q0 -154 50 -226t173 -71q86 0 166 34t129 80v801h112v-987h-88l-14 86h-4q-47 -39 -128 -78t-187 -39zM442 1364q47 0 112 -40q64 -40 93 -40q54 0 107 72l45 -66q-62 -100 -154 -100q-45 0 -111 39t-96 41q-56 0 -104 -74
l-47 66q63 102 155 102z" />
    <glyph glyph-name="Umacron" unicode="&#x16a;" horiz-adv-x="1339" 
d="M670 -31q-244 0 -358 135t-113 367v922h114v-912q0 -195 85 -297q86 -102 272 -102t271 102t85 297v912h115v-922q0 -367 -261 -467q-89 -35 -210 -35zM430 1606v100h467v-100h-467z" />
    <glyph glyph-name="umacron" unicode="&#x16b;" horiz-adv-x="1091" 
d="M492 -31q-156 0 -239 89t-83 292v637h113v-618q0 -154 50 -226t173 -71q86 0 166 34t129 80v801h112v-987h-88l-14 86h-4q-47 -39 -128 -78t-187 -39zM309 1219v98h467v-98h-467z" />
    <glyph glyph-name="Ubreve" unicode="&#x16c;" horiz-adv-x="1339" 
d="M670 -31q-244 0 -358 135t-113 367v922h114v-912q0 -195 85 -297q86 -102 272 -102t271 102t85 297v912h115v-922q0 -367 -261 -467q-89 -35 -210 -35zM918 1710q-85 -145 -253 -145t-249 145l53 51q31 -39 75 -67t123 -29q79 0 123 29t74 67z" />
    <glyph glyph-name="ubreve" unicode="&#x16d;" horiz-adv-x="1091" 
d="M492 -31q-156 0 -239 89t-83 292v637h113v-618q0 -154 50 -226t173 -71q86 0 166 34t129 80v801h112v-987h-88l-14 86h-4q-47 -39 -128 -78t-187 -39zM550 1270q79 0 123 28t75 68l53 -49q-37 -63 -95 -105t-154 -41q-173 0 -253 146l53 49q31 -40 75 -68t123 -28z" />
    <glyph glyph-name="Uring" unicode="&#x16e;" horiz-adv-x="1339" 
d="M670 -31q-244 0 -358 135t-113 367v922h114v-912q0 -195 85 -297q86 -102 272 -102t271 102t85 297v912h115v-922q0 -367 -261 -467q-89 -35 -210 -35zM506 1673q0 78 47 122t120 44t119 -44t46 -122t-46 -122t-119 -44t-120 44t-47 122zM586 1673q0 -88 86 -88
q40 0 64 23q24 24 24 66t-24 65t-64 22q-86 0 -86 -88z" />
    <glyph glyph-name="uring" unicode="&#x16f;" horiz-adv-x="1091" 
d="M492 -31q-156 0 -239 89t-83 292v637h113v-618q0 -154 50 -226t173 -71q86 0 166 34t129 80v801h112v-987h-88l-14 86h-4q-47 -39 -128 -78t-187 -39zM379 1279q0 77 47 122t120 45t119 -45t46 -122t-46 -122t-119 -45t-120 45t-47 122zM459 1280q1 -43 23 -67
q22 -23 63 -23t65 24t23 65q0 42 -24 66t-64 23q-86 0 -86 -88z" />
    <glyph glyph-name="Uhungarumlaut" unicode="&#x170;" horiz-adv-x="1339" 
d="M670 -31q-244 0 -358 135t-113 367v922h114v-912q0 -195 85 -297q86 -102 272 -102t271 102t85 297v912h115v-922q0 -367 -261 -467q-89 -35 -210 -35zM731 1526v12l100 229h127v-12l-124 -229h-103zM471 1526v12l100 229h127v-12l-127 -229h-100z" />
    <glyph glyph-name="uhungarumlaut" unicode="&#x171;" horiz-adv-x="1091" 
d="M492 -31q-156 0 -239 89t-83 292v637h113v-618q0 -154 50 -226t173 -71q86 0 166 34t129 80v801h112v-987h-88l-14 86h-4q-47 -39 -128 -78t-187 -39zM625 1190v10l98 230h125v-13l-125 -227h-98zM362 1190v10l101 230h125v-13l-125 -227h-101z" />
    <glyph glyph-name="Uogonek" unicode="&#x172;" horiz-adv-x="1339" 
d="M674 -436q-80 0 -128 47t-48 125q0 138 118 235q-217 16 -317 147.5t-100 352.5v922h114v-912q0 -195 85 -297t271.5 -102t271.5 102.5t85 296.5v912h115v-922q0 -211 -92.5 -341t-288.5 -155q-96 -49 -129 -106t-33 -105q0 -106 90 -106q39 0 68.5 14.5t58.5 32.5
l14 -86q-75 -55 -155 -55z" />
    <glyph glyph-name="uogonek" unicode="&#x173;" horiz-adv-x="1091" 
d="M598 -276q0 106 80 192q43 46 142 118l-9 52h-4q-47 -39 -128 -78t-187 -39q-156 0 -239 89t-83 292v637h113v-618q0 -154 50 -226t173 -71q86 0 166 34t129 80v801h112v-987q-109 -80 -161 -131t-54 -101q-1 -109 90 -110q58 0 127 47l15 -86q-74 -55 -155 -55t-129 47
t-48 113z" />
    <glyph glyph-name="Wcircumflex" unicode="&#x174;" horiz-adv-x="1837" 
d="M66 1393h116l250 -899l78 -340h4l82 340l262 899h121l262 -899l82 -340h4l78 340l250 899h117v-13l-388 -1380h-118l-269 934l-75 321h-7l-75 -321l-269 -934h-118l-387 1380v13zM1161 1526h-114l-127 149l-125 -149h-115v12l190 229h101l190 -229v-12z" />
    <glyph glyph-name="wcircumflex" unicode="&#x175;" horiz-adv-x="1568" 
d="M72 987h114l213 -661l52 -199h4l55 199l217 661h115l217 -661l55 -199h4l51 199l213 661h115v-12l-323 -975h-113l-225 682l-50 186h-4l-49 -186l-225 -682h-113l-323 975v12zM1026 1190h-113l-129 149l-127 -149h-112v10l190 230h101l190 -230v-10z" />
    <glyph glyph-name="Ycircumflex" unicode="&#x176;" horiz-adv-x="1064" 
d="M1018 1393v-13l-428 -790v-590h-115v590l-428 790v13h125l358 -678h5l358 678h125zM778 1526h-114l-127 149l-125 -149h-115v12l190 229h101l190 -229v-12z" />
    <glyph glyph-name="ycircumflex" unicode="&#x177;" horiz-adv-x="956" 
d="M66 987h112l256 -688l49 -176h6l48 174l235 690h113v-12l-393 -1145q-90 -266 -297 -266q-61 0 -119 18v101q142 -43 221 23q47 40 78 130l57 168l-366 971v12zM729 1190h-113l-129 149l-127 -149h-112v10l190 230h101l190 -230v-10z" />
    <glyph glyph-name="Ydieresis" unicode="&#x178;" horiz-adv-x="1064" 
d="M1018 1393v-13l-428 -790v-590h-115v590l-428 790v13h125l358 -678h5l358 678h125zM623 1647q1 43 25 67t61 23q37 0 61 -24q24 -25 25 -67q0 -42 -25 -66q-26 -24 -62 -24t-61 24q-24 24 -24 67zM274 1647q0 43 25 67t61 23q36 0 62 -24q24 -25 24 -67t-24 -66t-62 -24
t-62 24t-24 67z" />
    <glyph glyph-name="Zacute" unicode="&#x179;" horiz-adv-x="1019" 
d="M909 1393v-103l-669 -1177v-4h669v-109h-811v102l668 1178v4h-641v109h784zM455 1526v12l94 229h129v-12l-121 -229h-102z" />
    <glyph glyph-name="zacute" unicode="&#x17a;" horiz-adv-x="841" 
d="M735 987v-74l-502 -811v-4h502v-98h-639v74l500 811v4h-477v98h616zM385 1190v12l98 228h125v-13l-125 -227h-98z" />
    <glyph glyph-name="Zdotaccent" unicode="&#x17b;" horiz-adv-x="1019" 
d="M909 1393v-103l-669 -1177v-4h669v-109h-811v102l668 1178v4h-641v109h784zM440 1647q0 43 25 67t61 23q36 0 62 -24q24 -25 24 -67t-24 -66t-62 -24t-62 24t-24 67z" />
    <glyph glyph-name="zdotaccent" unicode="&#x17c;" horiz-adv-x="841" 
d="M735 987v-74l-502 -811v-4h502v-98h-639v74l500 811v4h-477v98h616zM356 1286q0 43 25 67q25 23 61 23t62 -24q24 -24 24 -66t-24 -66t-62 -24t-62 24t-24 66z" />
    <glyph glyph-name="Zcaron" unicode="&#x17d;" horiz-adv-x="1019" 
d="M909 1393v-103l-669 -1177v-4h669v-109h-811v102l668 1178v4h-641v109h784zM281 1767h114l125 -149l127 149h115v-12l-191 -229h-100l-190 229v12z" />
    <glyph glyph-name="zcaron" unicode="&#x17e;" horiz-adv-x="841" 
d="M735 987v-74l-502 -811v-4h502v-98h-639v74l500 811v4h-477v98h616zM190 1430h113l129 -150l127 150h113v-11l-191 -229h-100l-191 229v11z" />
    <glyph glyph-name="florin" unicode="&#x192;" 
d="M225 -334q72 0 115 38t59 140l127 785h-215l17 98h217l63 401q25 154 96.5 224.5t217.5 70.5q66 0 114 -12l-16 -104q-54 14 -123 14q-70 0 -113 -39t-59 -141l-66 -414h238l-16 -98h-240l-123 -772q-25 -154 -96.5 -224.5t-216.5 -70.5q-69 0 -115 12l16 104
q47 -12 119 -12z" />
    <glyph glyph-name="Aringacute" unicode="&#x1fa;" horiz-adv-x="1179" 
d="M424 1485q0 77 42 117t95 47h-17v10l97 197h132v-10l-124 -197h-30q53 -7 95 -47t42 -117q0 -108 -87 -150l464 -1335h-119l-129 369h-588l-129 -369h-119l463 1335q-88 42 -88 150zM588 1255l-101 -329l-155 -451h518l-156 451l-100 329h-6zM590 1573q-86 0 -86 -88
q0 -43 22 -66t64 -23q40 0 64 24q24 22 24 65t-24 65t-64 23z" />
    <glyph glyph-name="aringacute" unicode="&#x1fb;" horiz-adv-x="983" 
d="M498 573h202v78q0 264 -243 264q-147 0 -250 -92l-51 84q49 43 129 77t172 34q174 0 265 -94t91 -275v-649h-88l-12 80h-4q-134 -107 -308 -107q-133 0 -213 77t-80 225t106 223q105 75 284 75zM700 477h-190q-139 0 -212 -48t-73 -161q0 -193 195 -192q170 0 280 96v305
zM517 1381q75 0 121 -42t48 -114q0 -71 -48 -113t-121 -42q-75 0 -123 42t-48 113q0 72 48 114t123 42zM606 1225q0 39 -24 61t-66 22t-66 -22t-23 -61q-1 -39 23 -61t66 -22t66 22t24 61zM475 1409v12l98 222h123v-12l-123 -222h-98z" />
    <glyph glyph-name="AEacute" unicode="&#x1fc;" horiz-adv-x="1736" 
d="M805 502v454l12 295h-4l-133 -282l-258 -467h383zM1599 0h-794v397h-440l-220 -397h-125v12l764 1381h809v-109h-673v-514h616v-108h-616v-553h679v-109zM1147 1526v12l94 229h129v-12l-121 -229h-102z" />
    <glyph glyph-name="aeacute" unicode="&#x1fd;" horiz-adv-x="1626" 
d="M225 268q0 -196 195 -196q129 0 205 92t75 311h-190q-139 0 -212 -47t-73 -160zM1391 594v20q0 206 -141 277q-50 25 -122 24q-133 0 -214 -87t-97 -257h572q2 11 2 23zM1507 602q0 -70 -10 -127h-682q6 -286 186 -374q61 -30 144 -29q153 0 278 96l47 -86
q-53 -41 -138 -77t-191 -36q-279 0 -381 248q-82 -246 -359 -248q-133 0 -213 79t-80 228t107 222q106 73 283 73h202v80q0 264 -243 264q-147 0 -250 -92l-51 84q49 43 129 77t172 34q252 0 321 -203q104 203 350 203q196 0 294 -132q85 -112 85 -284zM764 1190v12l98 228
h125v-13l-125 -227h-98z" />
    <glyph glyph-name="Oslashacute" unicode="&#x1fe;" horiz-adv-x="1366" 
d="M1013 259q87 150 87 436t-84 431l-592 -960q98 -86 258 -84q229 0 331 177zM682 1311q-229 0 -331 -177q-87 -150 -87 -442t92 -442l594 962q-99 99 -268 99zM143 696q0 512 287 671q102 56 252 56q201 0 330 -110l82 131l86 -51l-97 -156q138 -192 138 -541
q0 -514 -287 -670q-102 -56 -274 -56t-295 98l-68 -109l-86 55l78 127q-146 187 -146 555zM629 1526v12l94 229h129v-12l-121 -229h-102z" />
    <glyph glyph-name="oslashacute" unicode="&#x1ff;" horiz-adv-x="1114" 
d="M714 108q156 93 156 378q0 180 -55 284l-444 -643q71 -55 177 -55t166 36zM244 494q0 -192 61 -295l447 653q-76 63 -184 63q-107 0 -168 -35q-156 -94 -156 -386zM127 494q0 365 224 481q83 43 222 43t242 -76l62 90l79 -59l-71 -103q104 -140 102 -376
q0 -364 -225 -482q-82 -43 -219 -43t-236 68l-61 -88l-72 57l66 94q-113 137 -113 394zM498 1190v12l98 228h125v-13l-125 -227h-98z" />
    <glyph glyph-name="uni0218" unicode="&#x218;" horiz-adv-x="1046" 
d="M842 1214q-142 97 -285 97t-219 -72t-77 -174t33 -142q61 -70 181 -118l133 -55q234 -94 293 -258q23 -62 23 -142q0 -157 -115 -269t-293 -112q-241 0 -405 160l61 88q70 -67 149 -101t199 -34t202 72q81 72 81 186t-54 178q-54 63 -178 117l-149 65q-210 90 -262 228
q-20 53 -20 126q-1 156 110 263q112 108 293 106q123 -1 206 -35t148 -81zM575 -156v-14l-65 -276h-90v14l33 276h122z" />
    <glyph glyph-name="uni0219" unicode="&#x219;" horiz-adv-x="872" 
d="M585 120q58 48 58 125t-37 116t-143 73l-101 33q-108 35 -153 80t-63 87q-17 42 -17 104q0 125 92 201t242 79q86 0 149 -20t127 -50l-41 -96q-119 63 -229 63q-111 0 -167 -47t-56 -122q0 -76 36 -114t119 -63l101 -30q122 -37 190 -97t68 -184q0 -123 -93 -205
t-225 -83t-204 26t-132 67l50 91q118 -84 264 -82q106 0 165 48zM502 -156v-14l-64 -276h-90v14l33 276h121z" />
    <glyph glyph-name="uni021A" unicode="&#x21a;" horiz-adv-x="1028" 
d="M958 1393v-109h-387v-1284h-114v1284h-387v109h888zM573 -156v-14l-65 -276h-90v14l33 276h122z" />
    <glyph glyph-name="uni021B" unicode="&#x21b;" horiz-adv-x="663" 
d="M238 227v662h-175v76l175 22v230h112v-230h244v-98h-244v-660q0 -94 31 -126q58 -60 213 -5v-102q-78 -27 -139 -27q-109 1 -163 59t-54 199zM463 -156v-14l-64 -276h-90v14l33 276h121z" />
    <glyph glyph-name="uni0237" unicode="&#x237;" horiz-adv-x="468" 
d="M57 -334q57 0 89 39t32 148v1134h113v-1128q0 -295 -234 -295q-55 0 -106 14v98q49 -10 106 -10z" />
    <glyph glyph-name="circumflex" unicode="&#x2c6;" 
d="M803 1190h-113l-129 149l-127 -149h-112v10l190 230h100l191 -230v-10z" />
    <glyph glyph-name="caron" unicode="&#x2c7;" 
d="M322 1430h112l129 -150l127 150h113v-11l-191 -229h-100l-190 229v11z" />
    <glyph glyph-name="uni02C9" unicode="&#x2c9;" horiz-adv-x="1132" 
d="M346 1260v98h467v-98h-467z" />
    <glyph glyph-name="breve" unicode="&#x2d8;" 
d="M811 1317q-86 -146 -254 -146t-248 146l53 49q31 -39 75 -67.5t123 -28.5t123 28.5t75 67.5z" />
    <glyph glyph-name="dotaccent" unicode="&#x2d9;" 
d="M471 1286q0 43 24.5 66.5t61.5 23.5t61.5 -23.5t24.5 -66.5t-24.5 -66.5t-61.5 -23.5t-61.5 23.5t-24.5 66.5z" />
    <glyph glyph-name="ring" unicode="&#x2da;" 
d="M395 1279q0 77 47 122t120 45t119 -45t46 -122t-46 -122t-119 -45t-120 45t-47 122zM475 1279q0 -42 22.5 -65.5t63.5 -23.5t64.5 23.5t23.5 65.5t-23.5 65.5t-64.5 23.5t-63.5 -23.5t-22.5 -65.5z" />
    <glyph glyph-name="ogonek" unicode="&#x2db;" 
d="M393 -276q0 108 66.5 178t195.5 161l54 -63q-109 -80 -162 -131t-53 -101q0 -110 90 -110q39 0 68.5 14.5t58.5 32.5l14 -86q-74 -55 -155 -55t-129 47t-48 113z" />
    <glyph glyph-name="tilde" unicode="&#x2dc;" 
d="M461 1364q41 0 109 -40t99 -40q30 0 53 17.5t50 54.5l45 -66q-62 -100 -153 -100q-42 0 -112 40t-95 40q-55 0 -105 -74l-47 66q63 102 156 102z" />
    <glyph glyph-name="hungarumlaut" unicode="&#x2dd;" 
d="M578 1190v10l98 230h125v-13l-125 -227h-98zM315 1190v10l101 230h125v-13l-125 -227h-101z" />
    <glyph glyph-name="tonos" unicode="&#x384;" horiz-adv-x="1208" 
d="M559 1161v13l49 270h119v-12l-82 -271h-86z" />
    <glyph glyph-name="dieresistonos" unicode="&#x385;" horiz-adv-x="1208" 
d="M784 1286q0 43 25 66.5t61.5 23.5t61 -23.5t24.5 -66.5t-24.5 -66.5t-61 -23.5t-61.5 23.5t-25 66.5zM281 1286q0 43 24.5 66.5t61 23.5t61.5 -23.5t25 -66.5t-25 -66.5t-61.5 -23.5t-61 23.5t-24.5 66.5zM547 1159v12l49 273h119v-12l-80 -273h-88z" />
    <glyph glyph-name="Alphatonos" unicode="&#x386;" horiz-adv-x="1220" 
d="M627 1255l-101 -329l-155 -451h518l-156 451l-100 329h-6zM1171 0h-118l-129 369h-588l-129 -369h-119l483 1393h117zM158 1110v12l47 271h119v-13l-82 -270h-84z" />
    <glyph glyph-name="anoteleia" unicode="&#x387;" horiz-adv-x="516" 
d="M156 598q0 45 27 75q28 29 75 29t75 -30q27 -30 27 -74q0 -45 -28 -75q-28 -29 -74 -29q-47 0 -75 29q-27 30 -27 75z" />
    <glyph glyph-name="Epsilontonos" unicode="&#x388;" horiz-adv-x="1298" 
d="M1155 1393v-109h-668v-516h609v-109h-609v-550h674v-109h-788v1393h782zM61 1110v12l48 271h118v-13l-82 -270h-84z" />
    <glyph glyph-name="Etatonos" unicode="&#x389;" horiz-adv-x="1525" 
d="M1202 655h-721v-655h-114v1393h114v-629h721v629h115v-1393h-115v655zM61 1110v12l48 271h118v-13l-82 -270h-84z" />
    <glyph glyph-name="Iotatonos" unicode="&#x38a;" horiz-adv-x="686" 
d="M477 0h-115v1393h115v-1393zM61 1110v12l48 271h118v-13l-82 -270h-84z" />
    <glyph glyph-name="Omicrontonos" unicode="&#x38c;" horiz-adv-x="1492" 
d="M272 696q0 512 287 671q102 56 252 56q281 0 418 -210q121 -186 121 -517q0 -514 -287 -670q-102 -56 -252 -56q-279 -1 -418 209q-121 186 -121 517zM393 696q0 -441 215 -567q80 -47 203 -47q229 0 331 177q85 147 86 436t-86 439q-102 177 -331 177t-331 -177
q-87 -150 -87 -438zM74 1110v12l47 271h119v-13l-82 -270h-84z" />
    <glyph glyph-name="Upsilontonos" unicode="&#x38e;" horiz-adv-x="1384" 
d="M1337 1393v-13l-428 -790v-590h-114v590l-428 790v13h125l358 -678h4l358 678h125zM82 1110v12l47 271h119v-13l-82 -270h-84z" />
    <glyph glyph-name="Omegatonos" unicode="&#x38f;" horiz-adv-x="1507" 
d="M1237 764q0 547 -418 547q-413 0 -418 -547q0 -425 304 -664v-100h-404v109h248q-269 259 -266 657q0 450 287 603q102 54 249 54t249 -54q290 -153 290 -603q0 -396 -266 -657h247v-109h-401v100q299 240 299 664zM74 1110v12l47 271h119v-13l-82 -270h-84z" />
    <glyph glyph-name="iotadieresistonos" unicode="&#x390;" horiz-adv-x="505" 
d="M182 160v827h113v-825q0 -90 78 -90q41 0 78 14v-100q-49 -16 -105 -17q-164 0 -164 191zM424 1286q0 43 25 67q25 23 61 23t62 -24q24 -24 24 -66t-25 -66t-61 -24t-62 24q-24 24 -24 66zM-80 1286q0 43 25 67q25 23 61 23t62 -24q24 -24 24 -66t-24 -66t-62 -24t-62 24
t-24 66zM186 1159v12l50 273h118v-12l-80 -273h-88z" />
    <glyph glyph-name="Alpha" unicode="&#x391;" horiz-adv-x="1181" 
d="M588 1255l-101 -329l-155 -451h518l-156 451l-100 329h-6zM1133 0h-119l-129 369h-588l-129 -369h-119l483 1393h117z" />
    <glyph glyph-name="Beta" unicode="&#x392;" horiz-adv-x="1185" 
d="M575 760q147 0 232 57q84 57 84 205t-84 204q-84 58 -232 58h-251v-524h251zM584 1393q428 0 428 -365q0 -123 -54 -201t-127 -106v-4q105 -33 167 -118t62 -197q1 -293 -241 -376q-74 -26 -160 -26h-450v1393h375zM653 109q127 1 207 67t80 205t-80 205t-207 65h-329
v-542h329z" />
    <glyph glyph-name="Gamma" unicode="&#x393;" horiz-adv-x="1001" 
d="M209 0v1393h725v-109h-610v-1284h-115z" />
    <glyph glyph-name="uni0394" unicode="&#x394;" horiz-adv-x="1177" 
d="M588 1255l-101 -325l-282 -824h770l-281 824l-100 325h-6zM1128 0h-1075v10l479 1383h117l479 -1383v-10z" />
    <glyph glyph-name="Epsilon" unicode="&#x395;" horiz-adv-x="1134" 
d="M991 1393v-109h-667v-516h608v-109h-608v-550h673v-109h-788v1393h782z" />
    <glyph glyph-name="Zeta" unicode="&#x396;" horiz-adv-x="1019" 
d="M909 1393v-103l-669 -1177v-4h669v-109h-811v102l668 1178v4h-641v109h784z" />
    <glyph glyph-name="Eta" unicode="&#x397;" horiz-adv-x="1368" 
d="M1044 655h-720v-655h-115v1393h115v-629h720v629h115v-1393h-115v655z" />
    <glyph glyph-name="Theta" unicode="&#x398;" horiz-adv-x="1363" 
d="M143 696.5q0 153.5 29 286.5t92.5 230.5t165.5 153.5t251.5 56t252 -56t166 -153.5t92.5 -230.5t29 -286.5t-29 -287t-92.5 -230.5t-166 -153.5t-252 -56.5t-251.5 56.5t-165.5 153.5t-92.5 230.5t-29 287zM264 696q0 -131 19.5 -242.5t67.5 -194.5t128 -130t203 -47
t203 47t128 130t67.5 194.5t19.5 242.5t-19.5 243t-67.5 195t-128 130t-203 47t-203 -47t-128 -130t-67.5 -195t-19.5 -243zM446 662v108h476v-108h-476z" />
    <glyph glyph-name="Iota" unicode="&#x399;" horiz-adv-x="532" 
d="M324 0h-115v1393h115v-1393z" />
    <glyph glyph-name="Kappa" unicode="&#x39a;" horiz-adv-x="1107" 
d="M324 655v-655h-115v1393h115v-684h4l567 684h137v-13l-581 -690l606 -678v-12h-150l-579 655h-4z" />
    <glyph glyph-name="Lambda" unicode="&#x39b;" horiz-adv-x="1181" 
d="M469 879l-301 -879h-119l483 1393h117l484 -1393h-119l-301 879l-121 395h-2z" />
    <glyph glyph-name="Mu" unicode="&#x39c;" horiz-adv-x="1630" 
d="M1421 1393v-1393h-114v971l14 217h-4l-453 -838h-98l-453 838h-4l15 -217v-971h-115v1393h110l375 -666l119 -252h4l119 252l375 666h110z" />
    <glyph glyph-name="Nu" unicode="&#x39d;" horiz-adv-x="1366" 
d="M1042 1393h115v-1393h-110l-734 1190h-4l15 -242v-948h-115v1393h110l730 -1190h4l-11 241v949z" />
    <glyph glyph-name="Xi" unicode="&#x39e;" horiz-adv-x="1097" 
d="M137 1284v109h819v-109h-819zM207 659v109h690v-109h-690zM963 109v-109h-826v109h826z" />
    <glyph glyph-name="Omicron" unicode="&#x39f;" horiz-adv-x="1363" 
d="M143 696q0 512 287 671q102 56 252 56q281 0 418 -210q121 -186 121 -517q0 -514 -287 -670q-102 -56 -252 -56q-279 -1 -418 209q-121 186 -121 517zM264 696q0 -441 215 -567q80 -47 203 -47q229 0 331 177q85 147 86 436t-86 439q-102 177 -331 177t-331 -177
q-87 -150 -87 -438z" />
    <glyph glyph-name="Pi" unicode="&#x3a0;" horiz-adv-x="1368" 
d="M1044 1284h-720v-1284h-115v1393h950v-1393h-115v1284z" />
    <glyph glyph-name="Rho" unicode="&#x3a1;" horiz-adv-x="1136" 
d="M324 1284v-604h282q168 0 238 83t69 218q0 307 -307 303h-282zM209 0v1393h405q203 -1 312 -105q108 -104 108 -307t-110 -306t-310 -104h-290v-571h-115z" />
    <glyph glyph-name="Sigma" unicode="&#x3a3;" horiz-adv-x="1054" 
d="M127 1393h819v-109h-678l338 -573l-370 -602h710v-109h-850v96l377 613l-346 587v97z" />
    <glyph glyph-name="Tau" unicode="&#x3a4;" horiz-adv-x="1028" 
d="M958 1393v-109h-387v-1284h-114v1284h-387v109h888z" />
    <glyph glyph-name="Upsilon" unicode="&#x3a5;" horiz-adv-x="1064" 
d="M1018 1393v-13l-428 -790v-590h-115v590l-428 790v13h125l358 -678h5l358 678h125z" />
    <glyph glyph-name="Phi" unicode="&#x3a6;" horiz-adv-x="1437" 
d="M1204 753q0 151 -97.5 265t-332.5 129v-897q344 22 387 187t43 316zM662 0v137q-283 11 -417 165.5t-134 395.5q0 377 199.5 465t351.5 94v136h112v-136q286 -11 418.5 -164t132.5 -395q0 -374 -200.5 -464.5t-350.5 -96.5v-137h-112zM231 643q0 -152 98.5 -265
t332.5 -128v897q-345 -22 -388 -187t-43 -317z" />
    <glyph glyph-name="Chi" unicode="&#x3a7;" horiz-adv-x="1114" 
d="M76 0v12l407 686l-407 682v13h127l352 -607h4l352 607h127v-13l-407 -682l407 -686v-12h-125l-354 606h-4l-354 -606h-125z" />
    <glyph glyph-name="Psi" unicode="&#x3a8;" horiz-adv-x="1355" 
d="M258 1393v-588q0 -176 84 -272.5t279 -100.5v961h114v-961q193 2 278 99.5t85 273.5v588h114v-592q0 -229 -114.5 -353t-362.5 -126v-322h-114v322q-248 2 -363 126.5t-115 354.5v590h115z" />
    <glyph glyph-name="uni03A9" unicode="&#x3a9;" horiz-adv-x="1374" 
d="M1106 764q0 547 -418 547q-413 0 -418 -547q0 -424 303 -664v-100h-403v109h248q-269 259 -266 657q0 450 287 603q102 54 249 54q148 0 250 -54q290 -153 289 -603q0 -396 -266 -657h247v-109h-401v100q299 240 299 664z" />
    <glyph glyph-name="Iotadieresis" unicode="&#x3aa;" horiz-adv-x="532" 
d="M324 0h-115v1393h115v-1393zM348 1647q0 43 25 67t61 23q36 0 62 -24q24 -25 24 -67t-24 -66t-62 -24t-62 24t-24 67zM0 1647q0 43 25 67t61 23q36 0 62 -24q24 -25 24 -67t-25 -66t-61 -24t-62 24q-24 24 -24 67z" />
    <glyph glyph-name="Upsilondieresis" unicode="&#x3ab;" horiz-adv-x="1064" 
d="M1018 1393v-13l-428 -790v-590h-115v590l-428 790v13h125l358 -678h5l358 678h125zM623 1647q1 43 25 67t61 23q37 0 61 -24q24 -25 25 -67q0 -42 -25 -66q-26 -24 -62 -24t-61 24q-24 24 -24 67zM274 1647q0 43 25 67t61 23q36 0 62 -24q24 -25 24 -67t-24 -66t-62 -24
t-62 24t-24 67z" />
    <glyph glyph-name="alphatonos" unicode="&#x3ac;" horiz-adv-x="1167" 
d="M492 915q-246 0 -246 -423q0 -422 250 -420q114 1 201 130q86 130 112 292q-25 161 -113 292q-87 131 -204 129zM492 -31q-260 0 -335 279q-28 100 -28 246q0 273 104 407q94 117 259 117q127 0 219 -90t145 -244h2l82 303h111l-138 -493l138 -494h-111l-82 303h-2
q-53 -154 -145 -244t-219 -90zM510 1161v13l49 270h119v-12l-82 -271h-86z" />
    <glyph glyph-name="epsilontonos" unicode="&#x3ad;" horiz-adv-x="940" 
d="M459 1161v13l49 270h119v-12l-82 -271h-86zM788 846q-161 65 -258 65q-96 0 -140 -13q-87 -26 -108 -100q-12 -36 -12 -96t52 -100q52 -41 141 -41h225v-98h-233q-93 0 -153 -43q-60 -44 -60 -150t66 -152t217 -46q150 0 290 71l33 -92q-160 -82 -348 -82
q-375 0 -375 303q0 180 162 240v4q-53 20 -93 74t-40 124q0 212 189 277q65 23 156 23q156 0 320 -76z" />
    <glyph glyph-name="etatonos" unicode="&#x3ae;" horiz-adv-x="1107" 
d="M606 1018q156 0 244 -89t88 -292v-1043h-113v1024q0 154 -55 226t-178 71q-86 -1 -168 -35t-133 -79v-801h-113v987h90l13 -86h4q47 39 131 78t190 39zM530 1161v13l50 270h118v-12l-82 -271h-86z" />
    <glyph glyph-name="iotatonos" unicode="&#x3af;" horiz-adv-x="505" 
d="M182 160v827h113v-825q0 -90 78 -90q41 0 78 14v-100q-49 -16 -105 -17q-164 0 -164 191zM199 1161v13l49 270h119v-12l-82 -271h-86z" />
    <glyph glyph-name="upsilondieresistonos" unicode="&#x3b0;" horiz-adv-x="1073" 
d="M469 1161v13l49 270h119v-12l-82 -271h-86zM549 -31q-381 0 -381 469v549h113v-536q0 -379 268 -379q139 0 207 97t68 324t-115 494h127q104 -256 104 -511t-102 -381t-289 -126z" />
    <glyph glyph-name="alpha" unicode="&#x3b1;" horiz-adv-x="1167" 
d="M246 493.5q0 -421.5 246 -421.5q121 0 206.5 130.5t110.5 291.5q-25 159 -110.5 290t-206.5 131q-246 0 -246 -421.5zM492 -31q-259 0 -311 189.5t-52 401.5t99 335t264 123q127 0 219 -90t145 -244h2l82 303h111l-138 -493l138 -494h-111l-82 303h-2
q-53 -154 -145.5 -244t-218.5 -90z" />
    <glyph glyph-name="beta" unicode="&#x3b2;" horiz-adv-x="1105" 
d="M868 383q0 152 -75.5 241t-237.5 89h-96v98h98q104 0 156.5 74t52.5 190q0 115 -65.5 190.5t-182.5 75.5t-172 -82.5t-55 -259.5v-823q123 -104 273 -104q217 0 260.5 121.5t43.5 189.5zM291 59v-465h-113v1407q0 443 352 443q167 0 260 -108t93 -272t-72 -220t-102 -70
v-4q190 -45 233 -170t43 -218q0 -186 -110 -299.5t-286 -113.5q-175 0 -294 90h-4z" />
    <glyph glyph-name="gamma" unicode="&#x3b3;" horiz-adv-x="944" 
d="M512 -406h-113v420l-327 961v12h118l197 -610l72 -268h4q66 165 124 294q115 256 156 584h115v-12q-66 -460 -346 -963v-418z" />
    <glyph glyph-name="delta" unicode="&#x3b4;" horiz-adv-x="1112" 
d="M741.5 739q-135.5 111 -190.5 154q-219 -110 -266 -246.5t-47 -208.5q0 -157 75.5 -261.5t240.5 -104.5t244 111t79 248q0 197 -135.5 308zM602 1341q-88 0 -126 -38.5t-38 -92.5t41 -100.5t102.5 -97.5t236.5 -192t175 -386q0 -188 -110 -326.5t-328 -138.5
q-219 0 -326.5 131t-107.5 321q0 189 96 327.5t254 209.5q-61 55 -105 113.5t-44 132.5q0 113 70.5 176.5t192.5 63.5t216 -35v-106q-111 38 -199 38z" />
    <glyph glyph-name="epsilon" unicode="&#x3b5;" horiz-adv-x="940" 
d="M788 846q-161 65 -258 65q-96 0 -178 -24t-82 -160q0 -84 51.5 -125t141.5 -41h225v-98h-233q-94 0 -153.5 -43.5t-59.5 -149.5t66.5 -152t215.5 -46t291 71l33 -92q-160 -82 -348 -82q-375 0 -375 303q0 180 162 240v4q-53 20 -93 73t-40 125q0 141 87.5 220.5
t252.5 79.5q166 0 325 -76z" />
    <glyph glyph-name="zeta" unicode="&#x3b6;" horiz-adv-x="858" 
d="M524 -272q107 57 107 149q0 51 -39 82t-96.5 56.5t-125 50t-163.5 94.5t-96 233t128 364t425 574v4h-521v99h668v-80q-340 -427 -430 -571t-122 -223.5t-32 -155.5t39 -127.5t96.5 -84t125 -56t125 -54.5t96.5 -76.5t39 -105.5q0 -94 -42.5 -149t-109.5 -95z" />
    <glyph glyph-name="eta" unicode="&#x3b7;" horiz-adv-x="1107" 
d="M606 1018q156 0 244 -89t88 -292v-1043h-113v1024q0 154 -55 225.5t-178 71.5q-86 0 -168 -34.5t-133 -79.5v-801h-113v987h90l13 -86h4q47 39 131 78t190 39z" />
    <glyph glyph-name="theta" unicode="&#x3b8;" horiz-adv-x="1179" 
d="M141 706.5q0 167.5 26 304t80 232.5t139 148.5t204 52.5t204 -52.5t139 -148.5t79.5 -232.5t25.5 -304t-25.5 -304t-79.5 -232.5t-139 -148.5t-204 -52.5t-204 52.5t-139 148.5t-80 232.5t-26 304zM590 72q172 0 247.5 148t84.5 437h-664q9 -289 84.5 -437t247.5 -148z
M550 1341q-132 0 -207.5 -148t-84.5 -437h664q-13 430 -126.5 507.5t-245.5 77.5z" />
    <glyph glyph-name="iota" unicode="&#x3b9;" horiz-adv-x="505" 
d="M182 160v827h113v-825q0 -90 78 -90q38 0 78 14v-100q-49 -16 -105 -17q-164 0 -164 191z" />
    <glyph glyph-name="kappa" unicode="&#x3ba;" horiz-adv-x="933" 
d="M291 459v-459h-113v987h113v-471h4l424 471h137v-10l-446 -488l462 -477v-12h-145l-432 459h-4z" />
    <glyph glyph-name="lambda" unicode="&#x3bb;" horiz-adv-x="968" 
d="M233 1444q102 0 156.5 -68.5t97.5 -193.5l410 -1168v-14h-119l-192 571l-90 299h-7l-96 -299l-209 -571h-118v14l374 969l-65 184q-25 72 -56.5 123t-86.5 51t-113 -16v100q73 19 114 19z" />
    <glyph glyph-name="uni03BC" unicode="&#x3bc;" horiz-adv-x="1099" 
d="M514 -31q-92 0 -142 22t-91 68l10 -159v-306h-113v1393h113v-618q0 -154 50 -226t173 -71q86 0 166 34t129 80v801h113v-987h-88l-15 86h-4q-47 -39 -128 -78t-173 -39z" />
    <glyph glyph-name="nu" unicode="&#x3bd;" horiz-adv-x="944" 
d="M72 987h118l187 -586l84 -292h4q18 41 46 101t81 201q114 301 151 576h115v-12q-67 -474 -346 -975h-111l-329 975v12z" />
    <glyph glyph-name="xi" unicode="&#x3be;" horiz-adv-x="901" 
d="M154 1028q0 215 155 303v4h-155v99h673v-99h-268q-145 0 -217 -86.5t-72 -210.5q0 -192 101.5 -236t175.5 -44h174v-99h-172q-240 0 -274.5 -110.5t-34.5 -182.5t44 -121.5t109.5 -80.5t141 -49.5t141 -44t109.5 -67.5t44 -124q0 -136 -151 -223l-72 72q41 23 74 60.5
t33 85.5t-44 73.5t-109.5 46t-251 73t-185.5 307.5t223 337v4q-192 98 -192 313z" />
    <glyph glyph-name="omicron" unicode="&#x3bf;" horiz-adv-x="1114" 
d="M762 12q-82 -43 -205 -43q-231 0 -338 159q-94 140 -92 366q0 365 224 481q83 43 206 43t205 -43q225 -117 225 -481t-225 -482zM557 72q313 0 313 422q0 290 -156 386q-60 36 -156 36q-314 -2 -314 -423t313 -421z" />
    <glyph glyph-name="pi" unicode="&#x3c0;" horiz-adv-x="1118" 
d="M895 -31q-166 0 -166 205v715h-369v-889h-112v889h-180v98h956v-98h-182v-705q0 -66 20.5 -89t59.5 -23t77 14v-100q-53 -17 -104 -17z" />
    <glyph glyph-name="rho" unicode="&#x3c1;" horiz-adv-x="1101" 
d="M166 -406v924q0 253 105.5 376.5t301.5 123.5t300 -145.5t104 -373.5q0 -229 -104 -379.5t-289 -150.5t-301 109h-4v-484h-113zM860 494q0 287 -108.5 354t-192.5 67q-280 0 -280 -391v-329q110 -123 273 -123q164 0 236 118.5t72 303.5z" />
    <glyph glyph-name="sigma1" unicode="&#x3c2;" horiz-adv-x="899" 
d="M793 856q-101 59 -256 59q-154 0 -226.5 -117t-72.5 -245q0 -127 40.5 -195.5t102 -114.5t132.5 -79t132.5 -69t102 -84t40.5 -131t-46 -136t-105 -88l-70 72q105 59 105 147q0 51 -41 86t-102.5 67.5t-234.5 123.5t-173 380q0 206 105.5 346t314.5 140q162 0 288 -74z
" />
    <glyph glyph-name="sigma" unicode="&#x3c3;" horiz-adv-x="1122" 
d="M987 479q0 -356 -153.5 -433t-276.5 -77t-206 41t-132 110.5t-70.5 162t-21.5 259t100 306t330 139.5h449v-98h-205v-4q186 -101 186 -406zM244 479q0 -80 13 -152.5t48 -130t95.5 -91t156.5 -33.5t156.5 33.5t95.5 91t48 130t13 152.5t-13 153t-48 129t-95.5 90
t-156.5 34t-156.5 -34t-95.5 -90t-48 -129t-13 -153z" />
    <glyph glyph-name="tau" unicode="&#x3c4;" horiz-adv-x="854" 
d="M541 -31q-205 0 -205 228v692h-283v98h725v-98h-329v-678q0 -72 24.5 -105.5t91.5 -33.5t131 24v-100q-67 -27 -155 -27z" />
    <glyph glyph-name="upsilon" unicode="&#x3c5;" horiz-adv-x="1073" 
d="M549 -31q-381 0 -381 469v549h113v-536q0 -379 268 -379q139 0 206.5 97t67.5 324t-114 494h127q104 -256 104 -511t-102.5 -381t-288.5 -126z" />
    <glyph glyph-name="phi" unicode="&#x3c6;" horiz-adv-x="1277" 
d="M1032 500q0 202 -44 308.5t-152 106.5q-76 0 -110 -64.5t-34 -223.5v-551q174 14 257 118t83 306zM244 506q0 -195 78.5 -305.5t257.5 -124.5v569q0 373 256 373q162 0 237.5 -131t75.5 -383t-111.5 -385t-345.5 -148v-377h-112v377q-231 12 -342 149.5t-111 365.5
t133 501h131q-147 -233 -147 -481z" />
    <glyph glyph-name="chi" unicode="&#x3c7;" horiz-adv-x="917" 
d="M877 987v-14l-353 -680l353 -684v-15h-115l-301 599h-4l-301 -599h-115v15l352 684l-352 680v14h117l299 -598h4l299 598h117z" />
    <glyph glyph-name="psi" unicode="&#x3c8;" horiz-adv-x="1310" 
d="M1182 485q0 -256 -125 -383t-340 -127v-381h-113v381q-436 0 -436 463v549h113v-536q0 -201 82.5 -287t240.5 -86v1356h113v-1356q171 0 259.5 94.5t88.5 296.5q0 201 -48 336t-73 182h129q109 -293 109 -502z" />
    <glyph glyph-name="omega" unicode="&#x3c9;" horiz-adv-x="1591" 
d="M1096 72q252 0 252 420q0 147 -47.5 263.5t-124.5 219.5v12h120q116 -137 141 -278.5t25 -216.5q0 -268 -98 -395.5t-268 -127.5q-209 0 -299 224h-2q-90 -223 -299 -224q-170 0 -268.5 127t-98.5 368t66.5 362.5t99.5 160.5h121v-12q-172 -225 -172 -483
q0 -420 252 -420q243 0 243 362v289h113v-289q0 -180 62.5 -271t181.5 -91z" />
    <glyph glyph-name="iotadieresis" unicode="&#x3ca;" horiz-adv-x="505" 
d="M182 160v827h113v-825q0 -90 78 -90q41 0 78 14v-100q-49 -16 -105 -17q-164 0 -164 191zM330 1286q0 43 24 67q25 23 62 23q38 0 62 -24t24 -66t-25 -66t-61 -24t-62 24q-24 24 -24 66zM-18 1286q0 43 24 67q25 23 62 23q38 0 62 -24t24 -66t-25 -66t-61 -24t-62 24
q-24 24 -24 66z" />
    <glyph glyph-name="upsilondieresis" unicode="&#x3cb;" horiz-adv-x="1073" 
d="M549 -31q-381 0 -381 469v549h113v-536q0 -379 268 -379q139 0 207 97t68 324t-115 494h127q104 -256 104 -511t-102 -381t-289 -126zM610 1286q0 43 25 67q25 23 61 23t62 -24q24 -24 24 -66t-24 -66t-62 -24t-62 24t-24 66zM262 1286q0 43 25 67q25 23 61 23t62 -24
q24 -24 24 -66t-24 -66t-62 -24t-62 24t-24 66z" />
    <glyph glyph-name="omicrontonos" unicode="&#x3cc;" horiz-adv-x="1114" 
d="M762 12q-82 -43 -205 -43q-231 0 -338 159q-94 140 -92 366q0 365 224 481q83 43 206 43t205 -43q225 -117 225 -481t-225 -482zM557 72q313 0 313 422q0 290 -156 386q-60 36 -156 36q-314 -2 -314 -423t313 -421zM510 1161v13l49 270h119v-12l-82 -271h-86z" />
    <glyph glyph-name="upsilontonos" unicode="&#x3cd;" horiz-adv-x="1073" 
d="M469 1161v13l49 270h119v-12l-82 -271h-86zM549 -31q-381 0 -381 469v549h113v-536q0 -379 268 -379q139 0 207 97t68 324t-115 494h127q104 -256 104 -511t-102 -381t-289 -126z" />
    <glyph glyph-name="omegatonos" unicode="&#x3ce;" horiz-adv-x="1591" 
d="M1348 492q0 255 -172 483v12h120q70 -83 118 -212q48 -130 48 -283q0 -268 -98 -396t-268 -127q-209 0 -299 224h-2q-90 -223 -299 -224q-170 0 -269 127q-98 127 -98 396q0 207 103 402q30 54 63 93h121v-12q-172 -225 -172 -483q0 -420 252 -420q243 0 243 362v289h113
v-289q0 -362 244 -362q252 0 252 420zM758 1161v13l49 270h119v-12l-82 -271h-86z" />
    <glyph glyph-name="uni0400" unicode="&#x400;" horiz-adv-x="1134" 
d="M991 1393v-109h-667v-516h608v-109h-608v-550h673v-109h-788v1393h782zM432 1767h129l94 -229v-12h-102l-121 229v12z" />
    <glyph glyph-name="uni0401" unicode="&#x401;" horiz-adv-x="1134" 
d="M991 1393v-109h-667v-516h608v-109h-608v-550h673v-109h-788v1393h782zM686 1647q0 43 25 67t61 23q36 0 62 -24q24 -25 24 -67t-24 -66t-62 -24t-62 24t-24 67zM338 1647q0 43 24 67t62 23q38 0 62 -24q24 -25 24 -67t-25 -66t-61 -24t-62 24q-24 24 -24 67z" />
    <glyph glyph-name="uni0402" unicode="&#x402;" horiz-adv-x="1327" 
d="M831 815q277 0 336.5 -167.5t59.5 -293.5q0 -243 -234 -520l-80 70q193 240 193 453q0 182 -81.5 263.5t-214.5 81.5t-329 -71v-631h-114v1284h-293v109h837v-109h-430v-543q194 74 350 74z" />
    <glyph glyph-name="uni0403" unicode="&#x403;" horiz-adv-x="1071" 
d="M1004 1393v-109h-680v-1284h-115v1393h795zM561 1526v12l94 229h129v-12l-120 -229h-103z" />
    <glyph glyph-name="uni0404" unicode="&#x404;" horiz-adv-x="1144" 
d="M141 696q0 343 148 535t424 192q171 0 321 -88l-41 -96q-131 72 -280 72q-215 0 -327 -148.5t-122 -406.5h604v-109h-604q8 -263 121 -414t328 -151q150 0 280 72l41 -97q-150 -88 -305 -88q-291 0 -439.5 192t-148.5 535z" />
    <glyph glyph-name="uni0405" unicode="&#x405;" horiz-adv-x="1046" 
d="M842 1214q-142 97 -285 97t-219 -72t-77 -174t33 -142q61 -70 181 -118l133 -55q234 -94 293 -258q23 -62 23 -142q0 -157 -115 -269t-293 -112q-241 0 -405 160l61 88q70 -67 149 -101t199 -34t202 72q81 72 81 186t-54 178q-54 63 -178 117l-149 65q-210 90 -262 228
q-20 53 -20 126q-1 156 110 263q112 108 293 106q123 -1 206 -35t148 -81z" />
    <glyph glyph-name="uni0406" unicode="&#x406;" horiz-adv-x="532" 
d="M324 0h-115v1393h115v-1393z" />
    <glyph glyph-name="uni0407" unicode="&#x407;" horiz-adv-x="532" 
d="M324 0h-115v1393h115v-1393zM332 1647q0 43 24 67t62 23q38 0 62 -24q24 -25 24 -67t-25 -66t-61 -24t-62 24q-24 24 -24 67zM-16 1647q0 43 24 67t62 23q38 0 62 -24q24 -25 24 -67t-25 -66t-61 -24t-62 24q-24 24 -24 67z" />
    <glyph glyph-name="uni0408" unicode="&#x408;" horiz-adv-x="915" 
d="M600 371v1022h115v-1033q-1 -194 -97 -292t-241 -98t-271 92q-31 24 -51 47l62 86q107 -113 232 -113q124 0 188 65q63 66 63 224z" />
    <glyph glyph-name="uni0409" unicode="&#x409;" horiz-adv-x="1812" 
d="M981 109h303q146 0 226.5 65t80.5 225t-80 226.5t-227 66.5h-303v-583zM981 1393v-592h309q201 0 311.5 -97.5t110.5 -302t-110.5 -303t-311.5 -98.5h-424v1284h-479l-25 -606q-15 -452 -74 -557t-117 -123t-138 -18v108q55 0 93 14.5t72.5 98.5t53.5 491l27 701h702z
" />
    <glyph glyph-name="uni040A" unicode="&#x40a;" horiz-adv-x="1888" 
d="M1057 109h305q144 0 224.5 65t80.5 225t-80 226.5t-225 66.5h-305v-583zM1057 1393v-592h311q199 0 309.5 -97.5t110.5 -302t-110.5 -303t-309.5 -98.5h-426v692h-618v-692h-115v1393h115v-592h618v592h115z" />
    <glyph glyph-name="uni040B" unicode="&#x40b;" horiz-adv-x="1384" 
d="M866 956q197 0 289 -111.5t92 -301.5v-543h-114v518q0 168 -66 249t-243 81t-341 -78v-770h-114v1284h-295v109h837v-109h-428v-405q186 77 383 77z" />
    <glyph glyph-name="uni040C" unicode="&#x40c;" horiz-adv-x="1107" 
d="M324 655v-655h-115v1393h115v-684h4l567 684h137v-13l-581 -690l606 -678v-12h-150l-579 655h-4zM516 1526v12l94 229h129v-12l-121 -229h-102z" />
    <glyph glyph-name="uni040D" unicode="&#x40d;" horiz-adv-x="1366" 
d="M1157 1393v-1393h-115v948l15 242h-4l-734 -1190h-110v1393h115v-949l-11 -241h4l730 1190h110zM512 1767h129l94 -229v-12h-102l-121 229v12z" />
    <glyph glyph-name="uni040E" unicode="&#x40e;" horiz-adv-x="1032" 
d="M145 0v109h60q78 -1 139 39t102 163l31 90l-420 979v13h115l244 -574l119 -313h6l108 313l223 574h117v-13l-434 -1095q-59 -144 -137 -214q-78 -71 -207 -71h-66zM540 1665q79 0 123 29t74 67l54 -51q-85 -145 -253 -145t-249 145l53 51q31 -39 75 -67t123 -29z" />
    <glyph glyph-name="uni040F" unicode="&#x40f;" horiz-adv-x="1345" 
d="M209 0v1393h115v-1284h698v1284h115v-1393h-402l-14 -289h-96l-15 289h-401z" />
    <glyph glyph-name="uni0410" unicode="&#x410;" horiz-adv-x="1181" 
d="M588 1255l-101 -329l-155 -451h518l-156 451l-100 329h-6zM1133 0h-119l-129 369h-588l-129 -369h-119l483 1393h117z" />
    <glyph glyph-name="uni0411" unicode="&#x411;" horiz-adv-x="1177" 
d="M324 109h305q144 0 224.5 65t80.5 225t-80 226.5t-225 66.5h-305v-583zM993 1393v-109h-669v-483h311q199 0 309.5 -97.5t110.5 -302t-110.5 -303t-309.5 -98.5h-426v1393h784z" />
    <glyph glyph-name="uni0412" unicode="&#x412;" horiz-adv-x="1185" 
d="M575 760q147 0 232 57q84 57 84 205t-84 204q-84 58 -232 58h-251v-524h251zM584 1393q428 0 428 -365q0 -123 -54 -201t-127 -106v-4q105 -33 167 -118t62 -197q1 -293 -241 -376q-74 -26 -160 -26h-450v1393h375zM653 109q127 1 207 67t80 205t-80 205t-207 65h-329
v-542h329z" />
    <glyph glyph-name="uni0413" unicode="&#x413;" horiz-adv-x="1071" 
d="M1004 1393v-109h-680v-1284h-115v1393h795z" />
    <glyph glyph-name="uni0414" unicode="&#x414;" horiz-adv-x="1277" 
d="M942 109v1175h-477l-35 -536q-26 -407 -88.5 -504t-99.5 -135h700zM1057 1393v-1284h90l-17 -398h-98l-12 289h-858l-15 -289h-94l-20 398h78q94 107 141 237.5t65 401.5l41 645h699z" />
    <glyph glyph-name="uni0415" unicode="&#x415;" horiz-adv-x="1134" 
d="M991 1393v-109h-667v-516h608v-109h-608v-550h673v-109h-788v1393h782z" />
    <glyph glyph-name="uni0416" unicode="&#x416;" horiz-adv-x="1683" 
d="M899 655v-655h-115v655h-4l-579 -655h-150v12l606 678l-581 690v13h137l567 -684h4v684h115v-684h4l567 684h138v-13l-582 -690l606 -678v-12h-149l-580 655h-4z" />
    <glyph glyph-name="uni0417" unicode="&#x417;" horiz-adv-x="1048" 
d="M795 364q0 207 -154 274q-59 26 -149 26h-216v108h226q128 0 196 74t68 193t-71 196q-71 76 -216 76t-307 -86l-39 98q68 41 165 71q98 30 196 30q191 -1 292 -108q101 -106 101 -278q0 -118 -53 -198t-140 -117v-4q96 -31 158 -119t63 -204t-33 -192q-67 -150 -230 -207
q-78 -28 -186 -28t-207 34t-167 81l49 96q152 -98 353 -98q200 0 276 165q25 55 25 117z" />
    <glyph glyph-name="uni0418" unicode="&#x418;" horiz-adv-x="1366" 
d="M1157 1393v-1393h-115v948l15 242h-4l-734 -1190h-110v1393h115v-949l-11 -241h4l730 1190h110z" />
    <glyph glyph-name="uni0419" unicode="&#x419;" horiz-adv-x="1366" 
d="M1157 1393v-1393h-115v948l15 242h-4l-734 -1190h-110v1393h115v-949l-11 -241h4l730 1190h110zM695 1665q79 0 123 29t75 67l53 -51q-37 -63 -95 -104q-59 -41 -155 -41q-170 0 -252 145l54 51q30 -39 74 -67t123 -29z" />
    <glyph glyph-name="uni041A" unicode="&#x41a;" horiz-adv-x="1107" 
d="M324 655v-655h-115v1393h115v-684h4l567 684h137v-13l-581 -690l606 -678v-12h-150l-579 655h-4z" />
    <glyph glyph-name="uni041B" unicode="&#x41b;" horiz-adv-x="1284" 
d="M1075 0h-114v1284h-572l-24 -606q-19 -454 -77.5 -558t-116.5 -122t-138 -18v108q55 0 94 14.5t74.5 100.5t50.5 489l27 701h796v-1393z" />
    <glyph glyph-name="uni041C" unicode="&#x41c;" horiz-adv-x="1630" 
d="M1421 1393v-1393h-114v971l14 217h-4l-453 -838h-98l-453 838h-4l15 -217v-971h-115v1393h110l375 -666l119 -252h4l119 252l375 666h110z" />
    <glyph glyph-name="uni041D" unicode="&#x41d;" horiz-adv-x="1368" 
d="M1044 655h-720v-655h-115v1393h115v-629h720v629h115v-1393h-115v655z" />
    <glyph glyph-name="uni041E" unicode="&#x41e;" horiz-adv-x="1363" 
d="M143 696q0 512 287 671q102 56 252 56q281 0 418 -210q121 -186 121 -517q0 -514 -287 -670q-102 -56 -252 -56q-279 -1 -418 209q-121 186 -121 517zM264 696q0 -441 215 -567q80 -47 203 -47q229 0 331 177q85 147 86 436t-86 439q-102 177 -331 177t-331 -177
q-87 -150 -87 -438z" />
    <glyph glyph-name="uni041F" unicode="&#x41f;" horiz-adv-x="1368" 
d="M1044 1284h-720v-1284h-115v1393h950v-1393h-115v1284z" />
    <glyph glyph-name="uni0420" unicode="&#x420;" horiz-adv-x="1136" 
d="M324 1284v-604h282q168 0 238 83t69 218q0 307 -307 303h-282zM209 0v1393h405q203 -1 312 -105q108 -104 108 -307t-110 -306t-310 -104h-290v-571h-115z" />
    <glyph glyph-name="uni0421" unicode="&#x421;" horiz-adv-x="1148" 
d="M731 -30q-292 -2 -441 191t-149 534q0 342 149 535t423 193q174 0 321 -88l-41 -96q-131 72 -263 72t-216 -42t-140 -122q-112 -160 -112 -451q0 -446 252 -572q84 -42 216 -42t263 72l41 -97q-146 -86 -303 -87z" />
    <glyph glyph-name="uni0422" unicode="&#x422;" horiz-adv-x="1028" 
d="M958 1393v-109h-387v-1284h-114v1284h-387v109h888z" />
    <glyph glyph-name="uni0423" unicode="&#x423;" horiz-adv-x="1032" 
d="M145 0v109h60q78 0 139.5 39.5t101.5 162.5l31 90l-420 979v13h115l244 -574l119 -313h6l108 313l223 574h117v-13l-434 -1095q-59 -144 -137 -214.5t-207 -70.5h-66z" />
    <glyph glyph-name="uni0424" unicode="&#x424;" horiz-adv-x="1437" 
d="M1204 698q0 208 -98 321t-332 128v-897q343 22 410 273q20 79 20 175zM662 0v137q-283 11 -418 167t-133 394q0 377 295 507q104 46 256 52v136h112v-136q285 -11 426 -174q125 -144 125 -385q0 -376 -296 -508q-105 -47 -255 -53v-137h-112zM662 1147
q-344 -22 -410 -274q-20 -79 -20 -175q-1 -207 91 -312q104 -121 339 -136v897z" />
    <glyph glyph-name="uni0425" unicode="&#x425;" horiz-adv-x="1114" 
d="M76 0v12l407 686l-407 682v13h127l352 -607h4l352 607h127v-13l-407 -682l407 -686v-12h-125l-354 606h-4l-354 -606h-125z" />
    <glyph glyph-name="uni0426" unicode="&#x426;" horiz-adv-x="1357" 
d="M209 0v1393h115v-1284h698v1284h115v-1284h90l-19 -398h-94l-16 289h-889z" />
    <glyph glyph-name="uni0427" unicode="&#x427;" horiz-adv-x="1230" 
d="M526 375q-198 0 -290.5 111.5t-92.5 301.5v605h115v-596q0 -158 65.5 -235t243.5 -77t340 78v830h115v-1393h-115v453q-183 -78 -381 -78z" />
    <glyph glyph-name="uni0428" unicode="&#x428;" horiz-adv-x="1941" 
d="M209 0v1393h115v-1284h589v1284h115v-1284h590v1284h115v-1393h-1524z" />
    <glyph glyph-name="uni0429" unicode="&#x429;" horiz-adv-x="1953" 
d="M209 0v1393h115v-1284h589v1284h115v-1284h590v1284h115v-1284h90l-19 -398h-94l-14 289h-1487z" />
    <glyph glyph-name="uni042A" unicode="&#x42a;" horiz-adv-x="1290" 
d="M459 109h307q144 0 223.5 65.5t79.5 224.5t-79 226t-224 67h-307v-583zM72 1393h387v-592h311q201 0 310.5 -97.5t109.5 -302t-109.5 -303t-310.5 -98.5h-426v1284h-272v109z" />
    <glyph glyph-name="uni042B" unicode="&#x42b;" horiz-adv-x="1550" 
d="M1341 0h-114v1393h114v-1393zM324 109h305q144 0 224 65q81 65 81 224t-80 227q-80 67 -225 67h-305v-583zM324 1393v-592h311q199 1 309 -97t111 -303q0 -205 -111 -303t-309 -98h-426v1393h115z" />
    <glyph glyph-name="uni042C" unicode="&#x42c;" horiz-adv-x="1155" 
d="M324 109h305q144 0 224.5 65t80.5 225t-80 226.5t-225 66.5h-305v-583zM324 1393v-592h311q199 0 309.5 -97.5t110.5 -302t-110.5 -303t-309.5 -98.5h-426v1393h115z" />
    <glyph glyph-name="uni042D" unicode="&#x42d;" horiz-adv-x="1153" 
d="M424 1423q292 0 440 -192.5t148 -534.5q0 -343 -148.5 -535t-423.5 -192q-171 0 -321 88l41 97q131 -72 260 -72q235 0 348 151t121 414h-604v109h604q-10 258 -122 406.5t-327 148.5q-150 0 -280 -72l-41 96q150 88 305 88z" />
    <glyph glyph-name="uni042E" unicode="&#x42e;" horiz-adv-x="1822" 
d="M723 696q0 -131 19.5 -242.5t67.5 -194.5t128 -130t203 -47t202.5 47t128 130t68 194.5t19.5 242.5t-19.5 243t-68 195t-128 130t-202.5 47t-203 -47t-128 -130t-67.5 -195t-19.5 -243zM737.5 156q-131.5 187 -135.5 499h-278v-655h-115v1393h115v-627h278
q20 467 208.5 562t334.5 95t248 -56t165.5 -153.5t92 -230.5t28.5 -286.5t-28.5 -287t-129 -287t-376.5 -153.5t-407.5 187z" />
    <glyph glyph-name="uni042F" unicode="&#x42f;" horiz-adv-x="1210" 
d="M567 1284q-301 0 -301 -274t301 -273h320v547h-320zM887 0v629h-273l-415 -629h-131v14l419 623q-160 18 -251 112.5t-91 270.5t111.5 274.5t304.5 98.5h440v-1393h-114z" />
    <glyph glyph-name="uni0430" unicode="&#x430;" horiz-adv-x="983" 
d="M498 573h202v78q0 264 -243 264q-147 0 -250 -92l-51 84q49 43 129 77t172 34q174 0 265 -94t91 -275v-649h-88l-12 80h-4q-134 -107 -308 -107q-133 0 -213 77t-80 225t106 223q105 75 284 75zM700 477h-190q-139 0 -212 -48t-73 -161q0 -193 195 -192q170 0 280 96v305
z" />
    <glyph glyph-name="uni0431" unicode="&#x431;" horiz-adv-x="1161" 
d="M920 436q0 162 -86 262.5t-239 100.5t-239 -100.5t-86 -262.5t86 -263t239 -101t239 101t86 263zM607 901q199 0 314 -125t115 -336t-119 -341t-323 -130q-203 0 -321.5 139.5t-118.5 446.5t60.5 492.5t264.5 285.5q86 45 205 67.5t182.5 33t108.5 22.5v-104
q-41 -10 -95.5 -16.5t-164.5 -26.5t-192 -65q-81 -44 -168 -136.5t-93 -402.5l4 -3q45 90 141.5 144.5t199.5 54.5z" />
    <glyph glyph-name="uni0432" unicode="&#x432;" horiz-adv-x="978" 
d="M485 553q96 0 152.5 36t56.5 132t-56 132t-153 36h-194v-336h194zM856 279q0 -129 -72.5 -204t-248.5 -75h-357v987h309q166 0 245 -61.5t79 -202.5q0 -68 -37 -128t-94 -83v-2q176 -48 176 -231zM530 98q100 0 154.5 40t54.5 138.5t-54 138.5t-155 40h-239v-357h239z
" />
    <glyph glyph-name="uni0433" unicode="&#x433;" horiz-adv-x="849" 
d="M801 987v-98h-510v-889h-113v987h623z" />
    <glyph glyph-name="uni0434" unicode="&#x434;" horiz-adv-x="1042" 
d="M725 98v791h-330l-24 -332q-12 -199 -43.5 -293t-87.5 -166h485zM838 987v-889h92l-19 -344h-90l-10 246h-647l-12 -246h-86l-19 344h66q68 73 103 175.5t46 287.5l27 426h549z" />
    <glyph glyph-name="uni0435" unicode="&#x435;" horiz-adv-x="1048" 
d="M551 915q-133 0 -214 -88t-97 -258h571q2 9 2 23v22q0 207 -140 277q-50 24 -122 24zM893 82q-146 -113 -348 -113t-311 145t-109 382t109 379q109 143 310 143q200 0 301 -132q83 -109 85 -284q0 -74 -10 -129h-682q4 -178 85 -290q81 -111 238 -111t285 96z" />
    <glyph glyph-name="uni0436" unicode="&#x436;" horiz-adv-x="1378" 
d="M745 514h3l417 473h135v-10l-436 -485l453 -482v-10h-139l-430 459h-3v-459h-112v459h-2l-430 -459h-140v10l453 482l-436 485v10h135l418 -473h2v473h112v-473z" />
    <glyph glyph-name="uni0437" unicode="&#x437;" horiz-adv-x="937" 
d="M416 72q149 0 215.5 46t66.5 152t-59 149.5t-154 43.5h-233v98h225q90 0 141.5 41t51.5 123t-49 134t-159 52t-174.5 -18.5t-135.5 -46.5l-31 92q161 76 327 76q165 0 251.5 -79.5t86.5 -209.5q0 -82 -39.5 -135t-93.5 -74v-4q162 -59 162 -240q0 -303 -375 -303
q-188 0 -348 82l33 92q142 -71 291 -71z" />
    <glyph glyph-name="uni0438" unicode="&#x438;" horiz-adv-x="1095" 
d="M291 987v-647l-15 -180h5l514 827h123v-987h-113v645l14 180h-4l-516 -825h-121v987h113z" />
    <glyph glyph-name="uni0439" unicode="&#x439;" horiz-adv-x="1095" 
d="M558 1270q79 0 123 28t75 68l53 -49q-37 -63 -95 -105t-154 -41q-173 0 -253 146l53 49q31 -40 75 -68t123 -28zM291 987v-647l-15 -180h5l514 827h123v-987h-113v645l14 180h-4l-516 -825h-121v987h113z" />
    <glyph glyph-name="uni043A" unicode="&#x43a;" horiz-adv-x="921" 
d="M291 459v-459h-113v987h113v-473h4l420 473h135v-10l-440 -485l454 -482v-10h-139l-430 459h-4z" />
    <glyph glyph-name="uni043B" unicode="&#x43b;" horiz-adv-x="1054" 
d="M764 889h-416l-14 -350q-16 -352 -63.5 -433t-97.5 -100.5t-122 -19.5v102q41 0 71 9t62 73.5t43 364.5l17 452h633v-987h-113v889z" />
    <glyph glyph-name="uni043C" unicode="&#x43c;" horiz-adv-x="1290" 
d="M1112 987v-987h-113v602l11 201h-4l-310 -545h-102l-309 545h-4l10 -201v-602h-113v987h107l264 -438l94 -187h4l94 187l265 438h106z" />
    <glyph glyph-name="uni043D" unicode="&#x43d;" horiz-adv-x="1101" 
d="M811 457h-520v-457h-113v987h113v-432h520v432h113v-987h-113v457z" />
    <glyph glyph-name="uni043E" unicode="&#x43e;" horiz-adv-x="1114" 
d="M762 12q-82 -43 -205 -43q-231 0 -338 159q-94 140 -92 366q0 365 224 481q83 43 206 43t205 -43q225 -117 225 -481t-225 -482zM557 72q313 0 313 422q0 290 -156 386q-60 36 -156 36q-314 -2 -314 -423t313 -421z" />
    <glyph glyph-name="uni043F" unicode="&#x43f;" horiz-adv-x="1101" 
d="M811 889h-520v-889h-113v987h746v-987h-113v889z" />
    <glyph glyph-name="uni0440" unicode="&#x440;" horiz-adv-x="1099" 
d="M588 1018q100 0 172 -39q141 -76 189 -277q24 -96 24 -210q0 -229 -96 -376t-283 -147q-110 0 -178 34t-121 81h-4v-490h-113v1393h88l19 -86h4q53 41 126 79t173 38zM856 494q0 295 -148 389q-52 33 -126 32q-162 0 -291 -120v-602q132 -123 282 -122t217 117
q66 116 66 306z" />
    <glyph glyph-name="uni0441" unicode="&#x441;" horiz-adv-x="937" 
d="M125 494q0 228 105 376t315 148q161 0 289 -74l-37 -88q-101 59 -257 59q-155 0 -233 -139q-65 -113 -65 -282q0 -278 159 -383q59 -39 146 -39q149 0 250 59l37 -88q-122 -72 -261 -73t-218 40q-230 119 -230 484z" />
    <glyph glyph-name="uni0442" unicode="&#x442;" horiz-adv-x="815" 
d="M760 987v-98h-297v-889h-113v889h-297v98h707z" />
    <glyph glyph-name="uni0443" unicode="&#x443;" horiz-adv-x="956" 
d="M66 987h112l256 -688l49 -176h6l48 174l235 690h113v-12l-393 -1145q-90 -266 -297 -266q-61 0 -119 18v101q142 -43 221 23q47 40 78 130l57 168l-366 971v12z" />
    <glyph glyph-name="uni0444" unicode="&#x444;" horiz-adv-x="1660" 
d="M244 378q0 -306 270 -306q86 0 144.5 22.5t115.5 79.5v639q-57 57 -115.5 79.5t-143.5 22.5t-137 -35.5t-93 -115.5t-41 -386zM500 1018q169 0 270 -92h4v508h113v-508h4q106 92 281 92t268.5 -146t93.5 -378q0 -362 -137 -443.5t-239 -81.5t-161 25.5t-106 66.5h-4v-467
h-113v467h-4q-47 -41 -105.5 -66.5t-160.5 -25.5q-191 0 -284 147t-93 378q0 361 137 442.5t236 81.5zM1417 609q0 306 -270 306q-86 0 -144.5 -22.5t-115.5 -79.5v-639q57 -57 115.5 -79.5t142.5 -22.5t137 35.5t94 115.5t41 386z" />
    <glyph glyph-name="uni0445" unicode="&#x445;" horiz-adv-x="915" 
d="M80 0v12l309 482l-309 481v12h121l254 -418h6l254 418h121v-12l-310 -481l310 -482v-12h-121l-254 414h-6l-254 -414h-121z" />
    <glyph glyph-name="uni0446" unicode="&#x446;" horiz-adv-x="1122" 
d="M291 987v-889h516v889h113v-889h90l-19 -344h-90l-10 246h-713v987h113z" />
    <glyph glyph-name="uni0447" unicode="&#x447;" horiz-adv-x="993" 
d="M236 592q0 -223 189 -223q163 0 277 51v567h113v-987h-113v319q-142 -53 -278 -53q-135 0 -218 73t-83 241v407h113v-395z" />
    <glyph glyph-name="uni0448" unicode="&#x448;" horiz-adv-x="1542" 
d="M178 0v987h113v-889h424v889h112v-889h424v889h113v-987h-1186z" />
    <glyph glyph-name="uni0449" unicode="&#x449;" horiz-adv-x="1568" 
d="M291 987v-889h424v889h112v-889h424v889h113v-889h92l-18 -344h-90l-11 246h-1159v987h113z" />
    <glyph glyph-name="uni044A" unicode="&#x44a;" horiz-adv-x="1032" 
d="M825 291q0 194 -217 194h-227v-387h227q94 0 155.5 42t61.5 151zM61 987h320v-403h240q156 0 238.5 -76t82.5 -217t-84 -216t-237 -75h-353v889h-207v98z" />
    <glyph glyph-name="uni044B" unicode="&#x44b;" horiz-adv-x="1282" 
d="M735 291q0 194 -217 194h-227v-387h227q94 0 156 42q61 42 61 151zM178 987h113v-403h239q156 0 239 -76t83 -217t-84 -216t-238 -75h-352v987zM993 0v987h111v-987h-111z" />
    <glyph glyph-name="uni044C" unicode="&#x44c;" horiz-adv-x="942" 
d="M735 291q0 194 -217 194h-227v-387h227q94 0 155.5 42t61.5 151zM178 987h113v-403h239q156 0 239 -76t83 -217t-84 -216t-238 -75h-352v987z" />
    <glyph glyph-name="uni044D" unicode="&#x44d;" horiz-adv-x="944" 
d="M373 1018q137 0 216 -41t130 -111.5t75.5 -166t24.5 -267t-105 -317.5t-315 -146q-162 0 -288 74l36 88q101 -59 250 -59q148 0 221 110t82 262h-446v99h446q-9 152 -82 262t-221 110t-250 -59l-36 88q125 74 262 74z" />
    <glyph glyph-name="uni044E" unicode="&#x44e;" horiz-adv-x="1497" 
d="M627 493.5q0 -79.5 13 -155.5t48 -135.5t95.5 -95t156.5 -35.5t156.5 35.5t95.5 95t48 135.5t13 155.5t-13 155.5t-48 135.5t-95.5 95t-156.5 35.5t-156.5 -35.5t-95.5 -95t-48 -135.5t-13 -155.5zM1370 493.5q0 -229.5 -101 -377t-325 -147.5t-324.5 134.5t-109.5 353.5
h-219v-457h-113v987h113v-432h221q21 325 167 394t265 69t201 -43t153.5 -147.5t71.5 -334z" />
    <glyph glyph-name="uni044F" unicode="&#x44f;" horiz-adv-x="1024" 
d="M733 889h-274q-104 0 -153.5 -54.5t-49.5 -138.5t49 -137t154 -53h274v383zM733 0v408h-209l-325 -408h-123v12l317 402q-121 14 -187.5 90t-66.5 202t83 203.5t224 77.5h400v-987h-113z" />
    <glyph glyph-name="uni0450" unicode="&#x450;" horiz-adv-x="1048" 
d="M551 915q-133 0 -214 -88t-97 -258h571q2 9 2 23v22q0 207 -140 277q-50 24 -122 24zM893 82q-146 -113 -348 -113t-311 145t-109 382t109 379q109 143 310 143q200 0 301 -132q83 -109 85 -284q0 -74 -10 -129h-682q4 -178 85 -290q81 -111 238 -111t285 96zM395 1430
h125l101 -228v-12h-101l-125 227v13z" />
    <glyph glyph-name="uni0451" unicode="&#x451;" horiz-adv-x="1048" 
d="M551 915q-133 0 -214 -88t-97 -258h571q2 9 2 23v22q0 207 -140 277q-50 24 -122 24zM893 82q-146 -113 -348 -113t-311 145t-109 382t109 379q109 143 310 143q200 0 301 -132q83 -109 85 -284q0 -74 -10 -129h-682q4 -178 85 -290q81 -111 238 -111t285 96zM647 1286
q0 43 25 67q26 23 62 23t61 -24t25 -66t-26 -66q-24 -24 -61 -24t-61 24t-25 66zM299 1286q0 43 25 67q26 23 62 23t60 -24t25 -66q0 -42 -25 -66q-26 -24 -62 -24t-60 24t-25 66z" />
    <glyph glyph-name="uni0452" unicode="&#x452;" horiz-adv-x="1085" 
d="M618 -297q211 421 211 825q0 226 -58 306.5t-195 80.5t-283 -104v-811h-113v1174h-131v98h131v162h113v-162h227v-98h-227v-250h4q152 94 313 94q160 0 248 -102.5t88 -351.5t-61.5 -463.5t-169.5 -442.5z" />
    <glyph glyph-name="uni0453" unicode="&#x453;" horiz-adv-x="849" 
d="M442 1190v12l99 228h125v-13l-125 -227h-99zM801 987v-98h-510v-889h-113v987h623z" />
    <glyph glyph-name="uni0454" unicode="&#x454;" horiz-adv-x="935" 
d="M571 -31q-137 0 -216 41t-130 112t-75.5 166t-24.5 267t105 317.5t315 145.5q161 0 289 -74l-37 -88q-101 59 -251 59q-149 0 -222 -110t-82 -262h454v-99h-454q9 -152 82 -262t222 -110t251 59l37 -88q-126 -74 -263 -74z" />
    <glyph glyph-name="uni0455" unicode="&#x455;" horiz-adv-x="872" 
d="M585 120q58 48 58 125t-37 116t-143 73l-101 33q-108 35 -153 80t-63 87q-17 42 -17 104q0 125 92 201t242 79q86 0 149 -20t127 -50l-41 -96q-119 63 -229 63q-111 0 -167 -47t-56 -122q0 -76 36 -114t119 -63l101 -30q122 -37 190 -97t68 -184q0 -123 -93 -205
t-225 -83t-204 26t-132 67l50 91q118 -84 264 -82q106 0 165 48z" />
    <glyph glyph-name="uni0456" unicode="&#x456;" horiz-adv-x="466" 
d="M147 1286q0 43 25 67q26 23 62 23t61 -24t25 -66t-26 -66q-24 -24 -61 -24t-61 24t-25 66zM178 0v987h111v-987h-111z" />
    <glyph glyph-name="uni0457" unicode="&#x457;" horiz-adv-x="471" 
d="M328 1286q0 43 24 67q25 23 62 23q38 0 62 -24t24 -66t-25 -66t-61 -24t-62 24q-24 24 -24 66zM-20 1286q0 43 24 67q25 23 62 23q38 0 62 -24t24 -66t-25 -66t-61 -24t-62 24q-24 24 -24 66zM180 0v987h111v-987h-111z" />
    <glyph glyph-name="uni0458" unicode="&#x458;" horiz-adv-x="468" 
d="M147 1286q0 43 25 67q26 23 62 23t61 -24t25 -66t-26 -66q-24 -24 -61 -24t-61 24t-25 66zM57 -334q57 0 89 39t32 148v1134h113v-1128q1 -154 -61 -225t-173 -70q-55 0 -106 14v98q49 -10 106 -10z" />
    <glyph glyph-name="uni0459" unicode="&#x459;" horiz-adv-x="1470" 
d="M1264 291q0 194 -217 194h-228v-387h228q94 0 155.5 42t61.5 151zM51 -14v102q41 0 71 9t62 73.5t43 364.5l17 452h575v-403h240q156 0 238.5 -76t82.5 -217t-84 -216t-237 -75h-352v889h-359l-14 -350q-16 -352 -63.5 -433t-97.5 -100.5t-122 -19.5z" />
    <glyph glyph-name="uni045A" unicode="&#x45a;" horiz-adv-x="1523" 
d="M1317 291q0 194 -217 194h-228v-387h228q94 0 155.5 42t61.5 151zM760 485h-469v-485h-113v987h113v-403h469v403h112v-403h240q156 0 239 -76t83 -217t-84 -216t-238 -75h-352v485z" />
    <glyph glyph-name="uni045B" unicode="&#x45b;" horiz-adv-x="1110" 
d="M827 0v618q0 154 -55 226t-179 72t-242 -74q-34 -20 -58 -41v-801h-113v1165h-141v99h141v170h113v-170h217v-99h-217v-258h4q159 111 313 111t242 -89t88 -292v-637h-113z" />
    <glyph glyph-name="uni045C" unicode="&#x45c;" horiz-adv-x="921" 
d="M438 1190v12l99 228h125v-13l-125 -227h-99zM291 459v-459h-113v987h113v-473h4l420 473h135v-10l-440 -485l454 -482v-10h-139l-430 459h-4z" />
    <glyph glyph-name="uni045D" unicode="&#x45d;" horiz-adv-x="1095" 
d="M375 1430h125l100 -228v-12h-100l-125 227v13zM291 987v-647l-15 -180h5l514 827h123v-987h-113v645l14 180h-4l-516 -825h-121v987h113z" />
    <glyph glyph-name="uni045E" unicode="&#x45e;" horiz-adv-x="956" 
d="M66 987h112l256 -688l49 -176h6l48 174l235 690h113v-12l-393 -1145q-90 -266 -297 -266q-61 0 -119 18v101q142 -43 221 23q47 40 78 130l57 168l-366 971v12zM745 1317q-86 -146 -253 -146q-168 0 -248 146l53 49q31 -40 75 -68t123 -28t123 28t74 68z" />
    <glyph glyph-name="uni045F" unicode="&#x45f;" horiz-adv-x="1087" 
d="M178 0v987h113v-889h506v889h112v-987h-309l-12 -246h-88l-13 246h-309z" />
    <glyph glyph-name="uni0462" unicode="&#x462;" horiz-adv-x="1325" 
d="M492 109h305q144 0 224.5 65t80.5 225t-80 226.5t-225 66.5h-305v-583zM492 1393v-179h421v-108h-421v-305h311q199 0 309.5 -97.5t110.5 -302t-111 -303t-309 -98.5h-426v1106h-289v108h289v179h115z" />
    <glyph glyph-name="uni0463" unicode="&#x463;" horiz-adv-x="1034" 
d="M825 291q0 194 -217 194h-227v-387h227q94 0 155.5 42t61.5 151zM268 889h-207v98h207v447h113v-447h311v-98h-311v-305h240q156 0 238.5 -76t82.5 -217t-84 -216t-237 -75h-353v889z" />
    <glyph glyph-name="uni0472" unicode="&#x472;" horiz-adv-x="1363" 
d="M681 1311q-217 0 -312.5 -149.5t-104.5 -409.5h834q-14 403 -157.5 481t-259.5 78zM732.5 82q167.5 0 262 147t103.5 416h-834q13 -407 157 -485t311.5 -78zM143 696.5q0 153.5 29 286.5t92.5 230.5t165.5 153.5t251.5 56t252 -56t166 -153.5t92.5 -230.5t29 -286.5
t-29 -287t-92.5 -230.5t-166 -153.5t-252 -56.5t-251.5 56.5t-165.5 153.5t-92.5 230.5t-29 287z" />
    <glyph glyph-name="uni0473" unicode="&#x473;" horiz-adv-x="1114" 
d="M492 915q-227 0 -248 -370h624q-10 172 -79.5 271t-296.5 99zM556 72q164 0 233.5 101t78.5 271h-624q14 -263 118.5 -317.5t193.5 -54.5zM987 493.5q0 -104.5 -21.5 -198.5t-71.5 -167t-132 -116t-205 -43t-206 43t-132 116t-70.5 167t-21.5 198.5t21.5 198.5t70.5 167
t132 116t206 43t205 -43t132 -116t71.5 -167t21.5 -198.5z" />
    <glyph glyph-name="uni0474" unicode="&#x474;" horiz-adv-x="1267" 
d="M1214 1317q-66 0 -103 -27.5t-62 -107.5l-404 -1182h-121l-471 1380v13h119l315 -932l95 -326h6l94 326l248 735q67 194 151 210.5t133 16.5v-106z" />
    <glyph glyph-name="uni0475" unicode="&#x475;" horiz-adv-x="1017" 
d="M946 907q-47 0 -77.5 -20.5t-53.5 -85.5l-285 -801h-112l-348 975v12h114l240 -684l47 -184h6l47 184l189 537q35 102 95 136t138 34v-103z" />
    <glyph glyph-name="uni0490" unicode="&#x490;" horiz-adv-x="1064" 
d="M324 1284v-1284h-115v1393h661l17 288h94l18 -397h-675z" />
    <glyph glyph-name="uni0491" unicode="&#x491;" horiz-adv-x="847" 
d="M178 0v987h502l10 211h90l19 -309h-508v-889h-113z" />
    <glyph glyph-name="uni0E3F" unicode="&#xe3f;" 
d="M823 1023q0 134 -60.5 190.5t-158.5 66.5v-516q98 10 158.5 67.5t60.5 191.5zM309 762h193v522h-193v-522zM309 109h193v544h-193v-544zM870 380q0 136 -72 201.5t-194 69.5v-542q188 7 227 102.5t39 168.5zM991 398q0 -207 -105 -300.5t-282 -97.5v-221h-102v221h-307
v1393h307v184h102v-186q156 -12 248 -96.5t92 -263.5t-73.5 -238.5t-106.5 -73.5v-4q102 -29 164.5 -114t62.5 -203z" />
    <glyph glyph-name="Wgrave" unicode="&#x1e80;" horiz-adv-x="1837" 
d="M66 1393h116l250 -899l78 -340h4l82 340l262 899h121l262 -899l82 -340h4l78 340l250 899h117v-13l-388 -1380h-118l-269 934l-75 321h-7l-75 -321l-269 -934h-118l-387 1380v13zM745 1767h129l95 -229v-12h-103l-121 229v12z" />
    <glyph glyph-name="wgrave" unicode="&#x1e81;" horiz-adv-x="1568" 
d="M72 987h114l213 -661l52 -199h4l55 199l217 661h115l217 -661l55 -199h4l51 199l213 661h115v-12l-323 -975h-113l-225 682l-50 186h-4l-49 -186l-225 -682h-113l-323 975v12zM598 1430h125l100 -228v-12h-100l-125 227v13z" />
    <glyph glyph-name="Wacute" unicode="&#x1e82;" horiz-adv-x="1837" 
d="M66 1393h116l250 -899l78 -340h4l82 340l262 899h121l262 -899l82 -340h4l78 340l250 899h117v-13l-388 -1380h-118l-269 934l-75 321h-7l-75 -321l-269 -934h-118l-387 1380v13zM874 1526v12l95 229h129v-12l-121 -229h-103z" />
    <glyph glyph-name="wacute" unicode="&#x1e83;" horiz-adv-x="1568" 
d="M72 987h114l213 -661l52 -199h4l55 199l217 661h115l217 -661l55 -199h4l51 199l213 661h115v-12l-323 -975h-113l-225 682l-50 186h-4l-49 -186l-225 -682h-113l-323 975v12zM748 1190v12l98 228h125v-13l-125 -227h-98z" />
    <glyph glyph-name="Wdieresis" unicode="&#x1e84;" horiz-adv-x="1837" 
d="M66 1393h116l250 -899l78 -340h4l82 340l262 899h121l262 -899l82 -340h4l78 340l250 899h117v-13l-388 -1380h-118l-269 934l-75 321h-7l-75 -321l-269 -934h-118l-387 1380v13zM1006 1647q0 43 24 67t62 23q38 0 62 -24q24 -25 24 -67t-25 -66t-61 -24t-62 24
q-24 24 -24 67zM657 1647q0 43 25 67q26 24 62 23q36 0 61 -24q25 -25 25 -67t-26 -66q-24 -24 -61 -24t-61 24t-25 67z" />
    <glyph glyph-name="wdieresis" unicode="&#x1e85;" horiz-adv-x="1568" 
d="M72 987h114l213 -661l52 -199h4l55 199l217 661h115l217 -661l55 -199h4l51 199l213 661h115v-12l-323 -975h-113l-225 682l-50 186h-4l-49 -186l-225 -682h-113l-323 975v12zM874 1286q0 43 25 67q25 23 62 23t61 -24t25 -66q0 -42 -25 -66q-26 -24 -62 -24t-61 24
t-25 66zM526 1286q0 43 25 67q25 23 61 23t62 -24q24 -24 24 -66t-24 -66t-62 -24t-62 24t-24 66z" />
    <glyph glyph-name="uni1E9E" unicode="&#x1e9e;" horiz-adv-x="1275" 
d="M1049 391q0 305 -332 305h-86v74l274 457q-59 41 -134 63.5t-136 22.5q-176 0 -249 -107.5t-73 -341.5v-864h-114v862q0 415 157.5 488t276.5 73t212 -36.5t183 -98.5v-74l-252 -413v-4q175 0 284 -107t109 -298t-111.5 -307t-293.5 -116q-112 0 -227 33v111
q120 -33 238 -33t196 79t78 232z" />
    <glyph glyph-name="Ygrave" unicode="&#x1ef2;" horiz-adv-x="1064" 
d="M1018 1393v-13l-428 -790v-590h-115v590l-428 790v13h125l358 -678h5l358 678h125zM375 1767h129l94 -229v-12h-102l-121 229v12z" />
    <glyph glyph-name="ygrave" unicode="&#x1ef3;" horiz-adv-x="956" 
d="M66 987h112l256 -688l49 -176h6l48 174l235 690h113v-12l-393 -1145q-90 -266 -297 -266q-61 0 -119 18v101q142 -43 221 23q47 40 78 130l57 168l-366 971v12zM305 1430h125l100 -228v-12h-100l-125 227v13z" />
    <glyph glyph-name="endash" unicode="&#x2013;" horiz-adv-x="1081" 
d="M164 504v98h754v-98h-754z" />
    <glyph glyph-name="emdash" unicode="&#x2014;" horiz-adv-x="1714" 
d="M164 504v98h1386v-98h-1386z" />
    <glyph glyph-name="quoteleft" unicode="&#x2018;" horiz-adv-x="458" 
d="M133 924v12l100 457h95v-15l-64 -454h-131z" />
    <glyph glyph-name="quoteright" unicode="&#x2019;" horiz-adv-x="456" 
d="M338 1391v-13l-100 -456h-95v14l64 455h131z" />
    <glyph glyph-name="quotesinglbase" unicode="&#x201a;" horiz-adv-x="448" 
d="M301 139v-12l-100 -457h-95v15l64 454h131z" />
    <glyph glyph-name="quotedblleft" unicode="&#x201c;" horiz-adv-x="768" 
d="M442 924v12l101 457h94v-15l-64 -454h-131zM133 924v12l100 457h95v-15l-64 -454h-131z" />
    <glyph glyph-name="quotedblright" unicode="&#x201d;" horiz-adv-x="763" 
d="M338 1391v-13l-100 -456h-95v14l64 455h131zM645 1391v-13l-100 -456h-94v14l63 455h131z" />
    <glyph glyph-name="quotedblbase" unicode="&#x201e;" horiz-adv-x="755" 
d="M301 139v-12l-100 -457h-95v15l64 454h131zM608 139v-12l-100 -457h-94v15l63 454h131z" />
    <glyph glyph-name="dagger" unicode="&#x2020;" horiz-adv-x="919" 
d="M408 987v447h104v-447h338v-98h-338v-1295h-104v1295h-338v98h338z" />
    <glyph glyph-name="daggerdbl" unicode="&#x2021;" horiz-adv-x="1044" 
d="M471 987v447h104v-447h336v-98h-336v-746h336v-98h-336v-451h-104v451h-336v98h336v746h-336v98h336z" />
    <glyph glyph-name="bullet" unicode="&#x2022;" horiz-adv-x="649" 
d="M203 596q0 59 32.5 93t88.5 34t89 -34t33 -93t-32.5 -93t-88.5 -34t-89 34t-33 93z" />
    <glyph glyph-name="ellipsis" unicode="&#x2026;" horiz-adv-x="1271" 
d="M139 74q0 44 28 74t75 30q46 0 74 -30t28 -74t-28 -75q-28 -30 -74 -30t-75 30q-28 30 -28 75zM526 74q0 44 28 74t75 30t75 -30t27 -74q0 -44 -28 -75q-29 -30 -75 -30t-74 30t-28 75zM928 74q0 44 28 74t74 30q47 0 75 -30t28 -74t-28 -75q-28 -30 -75 -30t-75 30
q-27 30 -27 75z" />
    <glyph glyph-name="perthousand" unicode="&#x2030;" horiz-adv-x="2103" 
d="M1481 334q0 168 68 259q69 91 194 91t193 -91t69 -259q0 -168 -69 -260q-70 -92 -194 -92t-193 92q-68 92 -68 260zM1585 334q0 -134 38 -196t120 -62t120 62t38 196t-38 194q-38 62 -120 62t-120 -62t-38 -194zM309 0v12l778 1381h107v-13l-780 -1380h-105zM106 1051
q0 168 69 259t194 91t193 -91t69 -259q0 -168 -69 -260q-70 -93 -194 -93t-193 92t-69 261zM211 1051q0 -133 38 -195t120 -63q81 0 119 62q38 61 38 195t-38 195t-120 61t-119 -60q-38 -62 -38 -195zM864 334q0 168 69 259t193 91t194 -91q69 -91 69 -259t-69 -260
t-194 -92q-126 0 -194 92t-68 260zM969 334q0 -134 38 -196q37 -62 119 -62t120 62t38 196t-38 194q-38 62 -120 62t-120 -62t-37 -194z" />
    <glyph glyph-name="guilsinglleft" unicode="&#x2039;" horiz-adv-x="583" 
d="M102 557l287 420l76 -55l-246 -369l244 -369l-74 -55l-287 420v8z" />
    <glyph glyph-name="guilsinglright" unicode="&#x203a;" horiz-adv-x="585" 
d="M483 549l-286 -420l-74 55l242 369l-246 369l78 55l286 -420v-8z" />
    <glyph glyph-name="fraction" unicode="&#x2044;" horiz-adv-x="204" 
d="M-340 0v12l778 1381h107v-13l-781 -1380h-104z" />
    <glyph glyph-name="uni2070" unicode="&#x2070;" horiz-adv-x="692" 
d="M84 1303q0 168 69 259t193 91t194 -91q68 -91 68 -259t-68 -261q-69 -92 -194 -92q-126 0 -194 92t-68 261zM188 1303q0 -133 38 -195t120 -64q82 0 120 62t38 196t-38 195t-120 61t-120 -60q-38 -62 -38 -195z" />
    <glyph glyph-name="uni2074" unicode="&#x2074;" horiz-adv-x="636" 
d="M401 1458h95v-258h77v-88h-77v-143h-95v143h-340v82l195 444h104l-190 -436v-2h231v258z" />
    <glyph glyph-name="uni2075" unicode="&#x2075;" horiz-adv-x="585" 
d="M479 1638v-88h-246l-18 -164h51q110 0 176 -52t66 -162t-69 -164q-69 -56 -176 -56t-197 41l22 88q73 -34 158 -34q84 1 121 31t37 94t-37 93q-56 42 -248 23l-13 12l41 338h332z" />
    <glyph glyph-name="uni2076" unicode="&#x2076;" horiz-adv-x="624" 
d="M180 1186q0 -60 37 -100t103 -40t102 40q37 40 37 100t-37 98q-37 39 -103 39q-67 0 -103 -39t-36 -98zM342 1417q100 0 161 -64q60 -65 60 -165t-67 -168q-67 -67 -177 -67q-111 -1 -177 65t-66 161q0 94 59 189l172 270h113v-10l-146 -223v-2q35 14 68 14z" />
    <glyph glyph-name="uni2077" unicode="&#x2077;" horiz-adv-x="526" 
d="M367 1550h-312v88h422v-69l-237 -600h-105v10l232 569v2z" />
    <glyph glyph-name="uni2078" unicode="&#x2078;" horiz-adv-x="638" 
d="M319 1366q57 0 83 28t26 68t-26 69q-26 28 -83 28t-83 -28t-25 -69q-1 -40 25 -68t83 -28zM440 1321q117 -43 117 -185q0 -72 -60 -128q-59 -56 -177 -56t-178 56t-60 128q0 141 117 185v2q-93 55 -93 142q0 88 56 138t157 50t157 -50t56 -139t-92 -141v-2zM319 1047
q72 1 103 33t31 78t-31 80t-103 34q-73 0 -103 -34t-30 -80t30 -78t103 -33z" />
    <glyph glyph-name="uni2079" unicode="&#x2079;" horiz-adv-x="624" 
d="M444 1421q0 59 -36 100q-37 40 -103 40q-67 0 -103 -40q-36 -39 -36 -99t37 -99t103 -39t102 39t36 98zM283 1190q-100 0 -161 64q-60 65 -60 165t66 167q67 67 178 68t176 -65t66 -161t-59 -189l-172 -270h-112v10l145 223v2q-35 -14 -67 -14z" />
    <glyph glyph-name="uni207A" unicode="&#x207a;" horiz-adv-x="518" 
d="M305 1364h137v-84h-137v-150h-88v150h-137v84h137v152h88v-152z" />
    <glyph glyph-name="uni207B" unicode="&#x207b;" horiz-adv-x="573" 
d="M106 1284v82h361v-82h-361z" />
    <glyph glyph-name="uni207D" unicode="&#x207d;" horiz-adv-x="352" 
d="M217 854q-137 227 -137 442t137 453l62 -35q-103 -206 -103 -415t103 -410z" />
    <glyph glyph-name="uni207E" unicode="&#x207e;" horiz-adv-x="350" 
d="M76 889q200 408 0 825l61 35q135 -234 135 -453q0 -218 -135 -442z" />
    <glyph glyph-name="uni2080" unicode="&#x2080;" horiz-adv-x="692" 
d="M84 90q0 168 69 259t193 91t194 -91q68 -91 68 -259t-68 -260t-194 -92t-194 92t-68 260zM188 90q0 -133 38 -195q38 -63 120 -63t120 62t38 196q0 132 -38 194t-120 62t-120 -62t-38 -194z" />
    <glyph glyph-name="uni2081" unicode="&#x2081;" horiz-adv-x="460" 
d="M57 223v92l215 111h72v-670h-94v555h-2l-178 -88h-13z" />
    <glyph glyph-name="uni2082" unicode="&#x2082;" horiz-adv-x="589" 
d="M219 -156h287v-88h-430v72l229 227q39 37 65 76t26 95t-34 88q-33 32 -97 32t-140 -74l-51 74q95 95 199 95q103 -1 165 -59t62 -142t-31 -136q-31 -51 -74 -92l-176 -166v-2z" />
    <glyph glyph-name="uni2083" unicode="&#x2083;" horiz-adv-x="604" 
d="M252 -166q73 0 118 22q44 22 44 89q0 106 -154 106h-102v88h102q76 0 108 30t31 73q0 106 -127 104q-92 0 -157 -39l-31 86q84 47 190 47t170 -48t64 -122t-32 -112q-32 -39 -70 -56v-2q112 -43 112 -163q0 -92 -68 -145q-69 -52 -182 -52t-200 49l28 88q83 -43 156 -43z
" />
    <glyph glyph-name="uni2084" unicode="&#x2084;" horiz-adv-x="634" 
d="M401 246h95v-258h77v-88h-77v-144h-95v144h-340v82l195 444h104l-190 -436v-2h231v258z" />
    <glyph glyph-name="uni2085" unicode="&#x2085;" horiz-adv-x="585" 
d="M245 80q-85 0 -126 -4l-13 12l41 338h332v-88h-246l-18 -164h51q110 0 176 -52t66 -162t-69 -165t-179 -55t-194 41l22 88q75 -35 162 -35q155 0 153 127q0 63 -36 91q-37 28 -122 28z" />
    <glyph glyph-name="uni2086" unicode="&#x2086;" horiz-adv-x="624" 
d="M180 -27q0 -59 37 -99t103 -40t102 40q37 40 37 99t-37 99t-103 39q-67 1 -103 -39t-36 -99zM342 205q100 0 160 -65t61 -166t-67 -168q-68 -66 -179 -66t-176 66t-65 161q0 94 59 189l172 270h113v-10l-146 -223v-3q38 15 68 15z" />
    <glyph glyph-name="uni2087" unicode="&#x2087;" horiz-adv-x="524" 
d="M367 338h-312v88h422v-70l-237 -600h-105v11l232 569v2z" />
    <glyph glyph-name="uni2088" unicode="&#x2088;" horiz-adv-x="638" 
d="M319 154q57 0 83 28t26 68t-26 68t-83 28t-83 -28t-25 -68q-1 -40 25 -68t83 -28zM440 109q117 -43 117 -185q0 -72 -60 -128q-59 -56 -177 -56t-178 55t-60 128q0 141 117 186v2q-93 55 -93 142t56 137t157 50t157 -50t56 -139t-92 -140v-2zM319 -166q72 0 103 33t31 79
t-31 80t-103 34q-73 0 -103 -34t-30 -80t30 -79t103 -33z" />
    <glyph glyph-name="uni2089" unicode="&#x2089;" horiz-adv-x="624" 
d="M444 209q0 59 -36 99q-37 40 -103 40q-67 0 -103 -40t-36 -99t37 -98t103 -39t102 39t36 98zM122 42q-60 65 -60 165q0 99 66 167q68 68 179 68t176 -65q64 -65 65 -161q1 -95 -59 -189l-172 -271h-112v11l145 223v2q-34 -14 -67 -15q-100 0 -161 65z" />
    <glyph glyph-name="uni208D" unicode="&#x208d;" horiz-adv-x="350" 
d="M217 -358q-137 227 -137 442t137 453l62 -35q-103 -206 -103 -415t103 -411z" />
    <glyph glyph-name="uni208E" unicode="&#x208e;" horiz-adv-x="348" 
d="M135 537q135 -234 135 -454t-135 -441l-61 34q100 204 100 409q0 204 -100 417z" />
    <glyph glyph-name="colonmonetary" unicode="&#x20a1;" 
d="M291 696q0 -308 96 -460l164 1054q-260 -92 -260 -594zM778 1303q-62 10 -90 10l-45 -2l-178 -1161q57 -45 127 -60zM362 94q-190 182 -190 619t148.5 556.5t248.5 141.5l27 166h90l-24 -154h28q49 0 109 -12l26 166h90l-28 -191q49 -18 100 -51l-31 -102q-50 31 -88 47
l-186 -1200h12q133 0 250 74l37 -97q-139 -88 -293 -88h-24l-29 -190h-94l32 203q-66 14 -129 49l-38 -252h-91z" />
    <glyph glyph-name="lira" unicode="&#x20a4;" 
d="M825 573v-98h-336q14 -131 -10.5 -224t-101.5 -136v-4h581v-111h-755v94q172 88 172 275q0 47 -6 106h-187v98h176l-36 242h-140v98h127q-10 98 -10 168t27.5 139.5t99 136t225.5 66.5q153 0 295 -94l-47 -98q-124 80 -248 80q-158 0 -194.5 -92.5t-36.5 -150.5t10 -155
h395v-98h-383l37 -242h346z" />
    <glyph glyph-name="uni20A6" unicode="&#x20a6;" 
d="M840 219v254h-119l115 -254h4zM297 909h121l-117 267h-4v-267zM840 571v240h-269l107 -240h162zM297 571h270l-106 240h-164v-240zM190 909v484h121l215 -484h314v484h102v-484h117v-98h-117v-240h117v-98h-117v-473h-121l-211 473h-313v-473h-107v473h-124v98h124v240
h-124v98h124z" />
    <glyph glyph-name="uni20A8" unicode="&#x20a8;" 
d="M387 629h-45l475 -619v-10h-131l-502 649v78h199q266 0 297 223h-508l25 99h485q-20 236 -299 235h-211l27 109h782l-25 -99h-299v-4q128 -72 146 -241h176l-23 -99h-153q-15 -162 -129.5 -241.5t-286.5 -79.5z" />
    <glyph glyph-name="uni20AA" unicode="&#x20aa;" horiz-adv-x="1351" 
d="M1186 1393v-928q0 -265 -94 -365t-330 -100h-281v1016h117v-907h139q100 0 165 12t116 65t51 279v928h117zM774 377v551q0 109 -9 177.5t-41 108t-92.5 54t-160.5 14.5h-180v-1282h-117v1393h324q233 0 313 -101t80 -366v-549h-117z" />
    <glyph glyph-name="dong" unicode="&#x20ab;" 
d="M186 0v100h695v-100h-695zM498 313q86 0 149.5 34t120.5 87v402q-57 53 -120.5 86.5t-149.5 33.5q-133 0 -193.5 -80.5t-60.5 -240.5t60.5 -241t193.5 -81zM485 1059q164 0 279 -115h4v270h-205v103h205v117h113v-117h116v-103h-116v-972h-88l-19 86h-4q-45 -41 -119 -79
t-166 -38q-358 0 -358 424t358 424z" />
    <glyph glyph-name="Euro" unicode="&#x20ac;" 
d="M346 473q66 -393 371 -393q160 0 278 74l35 -97q-135 -88 -297 -88q-321 0 -404 193.5t-102 310.5h-155l28 98h115q-4 62 -4 108v47q0 48 4 77h-143l28 98h127q79 522 506 522q72 0 156 -22.5t149 -65.5l-30 -102q-127 80 -290 80t-254 -109.5t-118 -302.5h576l-29 -98
h-561q-2 -29 -2 -35v-87q0 -81 4 -110h502l-27 -98h-463z" />
    <glyph glyph-name="uni20AD" unicode="&#x20ad;" 
d="M1016 0h-144l-469 627h-22v-627h-115v627h-143v98h143v668h115v-668h20l449 668h137v-15l-448 -653h381v-98h-371l467 -613v-14z" />
    <glyph glyph-name="uni20AE" unicode="&#x20ae;" 
d="M1010 1393v-109h-387v-414l186 78v-106l-186 -78v-164l186 78v-107l-186 -77v-494h-115v446l-193 -79v108l193 78v164l-193 -80v108l193 78v461h-387v109h889z" />
    <glyph glyph-name="uni20B1" unicode="&#x20b1;" 
d="M561 563q109 0 169.5 37t86.5 121h-493v-158h237zM324 1112h497q-25 90 -86 131t-174 41h-237v-172zM842 916q0 52 -4 98h-514v-195h512q6 45 6 97zM963 913q0 -44 -7 -94h111v-98h-127q-70 -266 -362 -266h-261v-455h-108v721h-135v98h135v195h-135v98h135v281h369
q297 0 364 -281h125v-98h-109q5 -57 5 -101z" />
    <glyph glyph-name="uni20B2" unicode="&#x20b2;" 
d="M549 1305q-297 -59 -297 -616t297 -605v1221zM733 666h254v-572q-145 -117 -336 -125v-190h-102v194q-217 27 -317.5 218.5t-100.5 504.5q0 468 153.5 586.5t264.5 134.5v160h102v-154q109 -4 183.5 -38.5t142.5 -84.5l-53 -90q-127 96 -273 103v-1233q131 4 221 72v407
l-139 21v86z" />
    <glyph glyph-name="uni20B4" unicode="&#x20b4;" 
d="M948 125q-174 -156 -348 -156q-189 0 -293 110t-104 277q0 61 20 119h-96v98h145q28 40 142 101l182 94h-469v98h610q70 68 70 180t-64.5 188.5t-202.5 76.5t-259 -99l-52 95q140 116 317 116t278.5 -108t101.5 -273q0 -80 -49 -176h112v-98h-198q-25 -23 -58 -41
t-94 -51l-205 -103h555v-98h-643q-25 -53 -24 -121q0 -135 74 -203.5t180 -68.5t178.5 37t132.5 94z" />
    <glyph glyph-name="uni20B5" unicode="&#x20b5;" 
d="M291 696q0 -540 301 -608v1215q-162 -35 -231.5 -194t-69.5 -413zM694 -221h-102v196q-208 31 -315 223t-107 578.5t157.5 504.5t264.5 136v160h102v-154q161 -4 293 -88l-43 -98q-115 72 -250 76v-1233q125 0 238 70l49 -93q-128 -84 -287 -88v-190z" />
    <glyph glyph-name="uni2113" unicode="&#x2113;" horiz-adv-x="808" 
d="M571 1194q0 172 -88 172q-51 0 -75.5 -52t-24.5 -177v-412q188 201 188 469zM285 1143q0 253 77.5 287t122.5 34q98 0 144.5 -75.5t46.5 -188.5q0 -338 -293 -604v-350q0 -178 113 -178q98 0 211 88l34 -93q-135 -94 -248 -94q-114 0 -161 71t-47 200v280
q-66 -56 -181 -121l-47 84q150 94 228 156v504z" />
    <glyph glyph-name="uni2116" unicode="&#x2116;" horiz-adv-x="1986" 
d="M1020 1393h115v-1393h-111l-733 1190h-4l14 -242v-948h-115v1393h111l729 -1190h4l-10 241v949zM1331 465v82h484v-82h-484zM1573 1358q144 0 216 -90t75 -240q0 -225 -158 -303q-55 -27 -133 -27t-133 27q-158 78 -158 304q0 227 158 302q55 27 133 27zM1378 1028
q0 -244 194 -244t195 244q0 104 -45 174t-149 70q-103 0 -149 -70t-46 -174z" />
    <glyph glyph-name="uni2117" unicode="&#x2117;" horiz-adv-x="1708" 
d="M137 696.5q0 153.5 52.5 286.5t147.5 231.5t227 153.5t290 55t290 -55t227 -153.5t147.5 -231.5t52.5 -286.5t-52.5 -287t-147.5 -231.5t-227 -154.5t-290 -56.5t-290 56.5t-227 154.5t-147.5 231.5t-52.5 287zM404 236q177 -183 450 -183t450 183t177 459.5t-176.5 459
t-450.5 182.5t-450.5 -182.5t-176.5 -459t177 -459.5zM903 700q146 0 146 140t-146 141h-170v-281h170zM623 313v766h280q133 0 195.5 -64.5t62.5 -174.5t-63.5 -174t-194.5 -64h-170v-289h-110z" />
    <glyph glyph-name="trademark" unicode="&#x2122;" horiz-adv-x="1423" 
d="M580 1434v-82h-170v-492h-93v492h-170v82h433zM1247 1434v-574h-92v307l8 150h-2l-145 -303h-90l-146 303h-2l8 -150v-307h-92v574h111l125 -238l39 -90h4l39 90l127 238h108z" />
    <glyph glyph-name="Omega" unicode="&#x2126;" horiz-adv-x="1378" 
d="M1106 764q0 547 -418 547q-230 0 -324 -154.5t-94 -392.5q0 -424 303 -664v-100h-403v109h248q-266 256 -266 657q0 450 194.5 553.5t405.5 103.5t343 -186t132 -471q0 -391 -266 -657h247v-109h-401v100q299 240 299 664z" />
    <glyph glyph-name="estimated" unicode="&#x212e;" horiz-adv-x="1419" 
d="M719 1135q-207 0 -334 -129v-330h678v330q-137 129 -344 129zM738 -31q-272 0 -434.5 180t-162.5 446q0 267 162.5 442t418.5 175t418.5 -165t170.5 -433l-15 -20h-911v-412q133 -127 338 -127q277 0 420 217l76 -55q-96 -133 -214.5 -190.5t-266.5 -57.5z" />
    <glyph glyph-name="onethird" unicode="&#x2153;" horiz-adv-x="1392" 
d="M205 0v12l778 1381h107v-13l-781 -1380h-104zM92 1190v92l215 111h72v-670h-94v555h-2l-179 -88h-12zM1176 188q0 106 -154 107h-102v88h102q76 0 108 30t31 72q0 105 -127 105q-94 0 -157 -39l-31 86q84 47 190 47t170 -48t64 -122t-32 -112q-32 -40 -71 -56v-2
q113 -43 113 -164q0 -92 -69 -144t-158 -52q-138 0 -224 49l29 88q84 -43 156 -43q73 0 118 21q44 22 44 89z" />
    <glyph glyph-name="twothirds" unicode="&#x2154;" horiz-adv-x="1533" 
d="M342 0v12l778 1381h107v-13l-781 -1380h-104zM313 1403q103 0 165 -58q62 -59 62 -143t-30 -135q-31 -51 -74 -92l-176 -166v-2h287v-88h-430v72l229 227q39 37 65 76q25 39 25 95t-33 88t-95 32t-142 -74l-51 74q94 94 198 94zM1317 188q0 106 -154 107h-102v88h102
q76 0 108 30t32 72q0 105 -127 105q-93 0 -158 -39l-31 86q84 47 190 47q107 0 171 -48t63 -122q0 -74 -32 -112q-32 -40 -70 -56v-2q114 -44 112 -164q-1 -92 -69 -144t-181 -52t-200 49l28 88q84 -43 156 -43q73 0 118 21q44 22 44 89z" />
    <glyph glyph-name="oneeighth" unicode="&#x215b;" horiz-adv-x="1394" 
d="M205 0v12l778 1381h107v-13l-781 -1380h-104zM92 1190v92l215 111h72v-670h-94v555h-2l-179 -88h-12zM1051 397q57 0 83 28t25 69q1 40 -25 68t-83 28t-83 -28t-26 -68t26 -69q26 -28 83 -28zM1171 352q117 -43 117 -185q0 -73 -60 -128t-177 -55t-178 55q-60 55 -60 127
q0 143 117 186v2q-94 55 -93 143q1 87 57 137q57 50 157 50t156 -50q57 -50 57 -138t-93 -142v-2zM1051 78q73 0 103 33t30 79t-31 79q-31 34 -103 34t-102 -34t-30 -80q0 -47 30 -79t103 -32z" />
    <glyph glyph-name="threeeighths" unicode="&#x215c;" horiz-adv-x="1505" 
d="M317 0v12l779 1381h106v-13l-780 -1380h-105zM1161 397q57 0 83 28t26 69q0 40 -26 68t-83 28t-83 -28t-26 -68t26 -69q26 -28 83 -28zM1282 352q117 -43 117 -185q-1 -73 -61 -128t-177 -55t-177 55t-60 127q0 143 116 186v2q-92 54 -92 142t56 138t157 50t157 -50
t56 -138t-92 -142v-2zM1161 78q72 0 103 33q30 33 30 79t-30 79q-31 34 -103 34q-73 0 -103 -34t-30 -80q0 -47 30 -79t103 -32zM291 795q73 0 118 21q44 22 44 89q0 106 -154 107h-102v88h102q76 0 108 30t31 72q0 105 -127 105q-91 0 -157 -39l-31 86q84 47 190 47
q105 0 169 -48q64 -47 64 -121t-31 -114q-32 -40 -71 -55v-2q113 -43 113 -164q0 -92 -69 -144t-180 -53t-202 50l29 88q83 -43 156 -43z" />
    <glyph glyph-name="fiveeighths" unicode="&#x215d;" horiz-adv-x="1476" 
d="M285 0v12l778 1381h106v-13l-780 -1380h-104zM280 1047q-89 0 -122 -5l-13 13l41 338h332v-88h-246l-18 -164h51q111 0 177 -52t65 -162q0 -110 -69 -165t-178 -55t-196 41l23 88q75 -35 159 -35q83 1 120 31q36 30 36 94t-36 93q-37 28 -126 28zM1133 397q57 0 83 28
t25 69q0 40 -26 68q-27 28 -83 28t-82 -28t-26 -68t26 -69q26 -28 83 -28zM1253 352q117 -43 117 -185q0 -73 -60 -128t-177 -55t-178 55q-60 55 -60 127q0 143 117 186v2q-94 55 -93 143q1 87 57 137q57 50 157 50t156 -50q57 -50 57 -138t-93 -142v-2zM1133 78
q73 0 103 33t30 79t-31 79q-31 34 -103 34t-102 -34q-31 -34 -31 -80q0 -47 31 -79t103 -32z" />
    <glyph glyph-name="seveneighths" unicode="&#x215e;" horiz-adv-x="1374" 
d="M186 0v12l779 1381h106v-13l-780 -1380h-105zM1030 397q57 0 83 28t26 69q0 40 -26 68t-83 28t-83 -28q-25 -28 -25 -68t26 -69q26 -28 82 -28zM1151 352q117 -43 117 -185q0 -73 -60 -128t-178 -55q-117 0 -177 55t-60 127q0 143 116 186v2q-92 54 -92 142t56 138
q57 50 157 50t156 -50t57 -138q0 -88 -92 -142v-2zM1030 78q72 0 103 33t31 79t-31 79q-31 34 -103 34t-102 -34t-31 -80q1 -47 31 -79t102 -32zM410 1305h-312v88h422v-70l-237 -600h-105v10l232 570v2z" />
    <glyph glyph-name="arrowleft" unicode="&#x2190;" horiz-adv-x="1826" 
d="M1827 743v-98h-1559l666 -653l-76 -76l-776 780l776 777l76 -76l-666 -654h1559z" />
    <glyph glyph-name="arrowup" unicode="&#x2191;" horiz-adv-x="1826" 
d="M995 -180h-98v1558l-653 -665l-76 75l780 777l776 -777l-75 -75l-654 665v-1558z" />
    <glyph glyph-name="arrowright" unicode="&#x2192;" horiz-adv-x="1826" 
d="M82 645v98h1558l-665 654l76 76l776 -781l-776 -776l-76 76l665 653h-1558z" />
    <glyph glyph-name="arrowdown" unicode="&#x2193;" horiz-adv-x="1826" 
d="M905 1563h99v-1559l653 666l76 -76l-781 -776l-776 776l76 76l653 -666v1559z" />
    <glyph glyph-name="uni2196" unicode="&#x2196;" horiz-adv-x="1851" 
d="M1425 1356v-99h-931l1101 -1101l-69 -70l-1102 1102l2 -932h-100v1100h1099z" />
    <glyph glyph-name="uni2197" unicode="&#x2197;" horiz-adv-x="1845" 
d="M1647 256h-99v932l-1102 -1102l-69 70l1102 1101h-932v99h1100v-1100z" />
    <glyph glyph-name="uni2198" unicode="&#x2198;" horiz-adv-x="1845" 
d="M547 37v98h932l-1102 1102l69 70l1102 -1102v934l99 -2v-1100h-1100z" />
    <glyph glyph-name="uni2199" unicode="&#x2199;" horiz-adv-x="1851" 
d="M326 1137h98v-932l1102 1102l69 -70l-1101 -1102h931v-98h-1099v1100z" />
    <glyph glyph-name="partialdiff" unicode="&#x2202;" horiz-adv-x="1130" 
d="M526 850q-130 0 -213.5 -98t-83.5 -279t79 -290t225 -109t243.5 153t93.5 453q-136 170 -344 170zM858.5 156.5q-126.5 -187.5 -324.5 -187.5q-199 0 -310 135t-111 367t113.5 357.5t289.5 125.5q109 0 199 -45t143 -96l4 2q-26 292 -175 402.5t-368 115.5l29 101
q330 0 483.5 -207t153.5 -545t-126.5 -525.5z" />
    <glyph glyph-name="Delta" unicode="&#x2206;" horiz-adv-x="1193" 
d="M594 1255l-100 -325l-283 -824h770l-281 824l-100 325h-6zM1135 0h-1076v10l480 1383h116l480 -1383v-10z" />
    <glyph glyph-name="product" unicode="&#x220f;" horiz-adv-x="1323" 
d="M1020 1325h-717v-1731h-117v1840h951v-1840h-117v1731z" />
    <glyph glyph-name="summation" unicode="&#x2211;" horiz-adv-x="1089" 
d="M119 1434h850v-109h-713l430 -788l-463 -834h774v-109h-909v95l465 843l-434 807v95z" />
    <glyph glyph-name="minus" unicode="&#x2212;" 
d="M993 602v-98h-860v98h860z" />
    <glyph glyph-name="uni2215" unicode="&#x2215;" horiz-adv-x="958" 
d="M37 0v12l778 1381h107v-13l-781 -1380h-104z" />
    <glyph glyph-name="uni2219" unicode="&#x2219;" horiz-adv-x="516" 
d="M156 598q0 45 27 75q28 29 75 29t75 -30q27 -30 27 -74q0 -45 -28 -75q-28 -29 -74 -29q-47 0 -75 29q-27 30 -27 75z" />
    <glyph glyph-name="radical" unicode="&#x221a;" horiz-adv-x="1153" 
d="M59 455h117l184 -473l86 -261h5l67 246l475 1426h115l-604 -1799h-105l-340 848v13z" />
    <glyph glyph-name="infinity" unicode="&#x221e;" horiz-adv-x="1486" 
d="M1241 555q0 94 -45 141t-119 47t-130 -44t-138 -144q89 -111 142.5 -149.5t126.5 -38.5t118 47t45 141zM426 268q-131 0 -208 76t-77 211t77 211t208 76q90 0 168 -58.5t149 -144.5q72 86 150 144.5t168 58.5q131 0 208 -76t77 -211t-77 -211t-208 -76q-90 0 -168 58.5
t-150 144.5q-72 -86 -149.5 -144.5t-167.5 -58.5zM410 743q-74 0 -119 -47t-45 -141t45 -141t118 -47t127.5 40t141.5 148q-82 100 -138 144t-130 44z" />
    <glyph glyph-name="integral" unicode="&#x222b;" horiz-adv-x="1026" 
d="M176 -334q72 0 115 38t59 140l209 1284q25 154 96.5 224.5t216.5 70.5q67 0 115 -12l-16 -104q-54 14 -123 14q-70 0 -113 -39t-59 -141l-207 -1284q-25 -154 -96.5 -224.5t-216.5 -70.5q-71 0 -115 12l16 104q47 -12 119 -12z" />
    <glyph glyph-name="approxequal" unicode="&#x2248;" 
d="M338 338q-68 0 -135 -78l-56 66q29 41 80.5 76.5t120.5 35.5q99 0 231 -50t206 -50t139 76l55 -66q-78 -110 -207 -110q-78 0 -168 34.5t-144 50t-122 15.5zM338 776q-68 0 -135 -78l-56 66q29 41 80.5 77t120.5 36q96 0 229.5 -50.5t207.5 -50.5t139 76l55 -66
q-78 -110 -207 -110q-73 0 -165.5 34.5t-146.5 50t-122 15.5z" />
    <glyph glyph-name="notequal" unicode="&#x2260;" 
d="M330 0v12l90 273h-287v98h320l114 346h-434v98h467l94 281h97v-12l-91 -269h293v-98h-325l-113 -346h438v-98h-471l-94 -285h-98z" />
    <glyph glyph-name="lessequal" unicode="&#x2264;" 
d="M981 100v-98h-860v98h860zM979 1266v-109l-731 -348v-6l731 -348v-109h-10l-850 418v86l850 416h10z" />
    <glyph glyph-name="greaterequal" unicode="&#x2265;" 
d="M1008 100v-98h-861v98h861zM150 346v109l731 348v6l-731 348v109h10l850 -416v-86l-850 -418h-10z" />
    <glyph glyph-name="lozenge" unicode="&#x25ca;" horiz-adv-x="1087" 
d="M193 680l352 -582l348 604l-352 576zM485 1393h109l424 -682l-416 -711h-113l-421 670z" />
    <glyph glyph-name="circle" unicode="&#x25cb;" horiz-adv-x="1638" 
d="M1218.5 296q161.5 165 161.5 402t-162 400.5t-401.5 163.5t-400 -162.5t-160.5 -401.5t160 -403t400.5 -164t402 165zM123 698.5q0 147.5 53 274.5t146.5 220t219.5 146.5t272 53.5t275.5 -53.5t223.5 -146.5t148.5 -220t54.5 -274.5t-54.5 -275.5t-148.5 -222.5
t-223.5 -147.5t-275.5 -53t-272 53t-219.5 147.5t-146.5 222.5t-53 275.5z" />
    <glyph glyph-name="H18533" unicode="&#x25cf;" horiz-adv-x="1638" 
d="M123 694q0 148 52 277t199.5 275.5t444.5 146.5q147 0 275.5 -53.5t221.5 -146.5t146.5 -222t53.5 -277t-53.5 -275.5t-146.5 -221t-221 -145.5t-278 -52t-276.5 52t-220 145.5t-145.5 221t-52 275.5z" />
    <glyph glyph-name="uni25DC" unicode="&#x25dc;" horiz-adv-x="690" 
d="M690 1262q-236 0 -396.5 -162.5t-160.5 -401.5h-133q0 147 53 274.5t146.5 220.5t219.5 146.5t271 53.5v-131z" />
    <glyph glyph-name="uni25DD" unicode="&#x25dd;" horiz-adv-x="698" 
d="M0 1393q147 0 275 -53.5t275.5 -198.5t147.5 -443h-135q0 239 -161 401.5t-402 162.5v131z" />
    <glyph glyph-name="uni25DE" unicode="&#x25de;" horiz-adv-x="698" 
d="M0 131q242 0 402.5 164t160.5 403h135q0 -147 -53 -275t-147.5 -222.5t-222.5 -147.5t-275 -53v131z" />
    <glyph glyph-name="uni25DF" unicode="&#x25df;" horiz-adv-x="690" 
d="M690 0q-292 0 -438 147.5t-199 275.5t-53 275h133q0 -239 160 -403t397 -164v-131z" />
    <glyph glyph-name="uniEA01" unicode="&#xea01;" horiz-adv-x="2048" 
d="M1225 625h-400v-400h-200v961h200v-393h400v393h200v-961h-200v400zM1755 -47v1464h-1464v-1464h1464zM141 1567h1764v-1764h-1764v1764z" />
    <glyph glyph-name="uniEA02" unicode="&#xea02;" horiz-adv-x="2048" 
d="M1083 203q-123 0 -210 35.5t-147 102.5t-91 159t-31 262.5t124 307t345 136.5q143 0 277 -61l-56 -160q-103 49 -222 49q-118 0 -187.5 -91t-69.5 -239t72 -238.5t188 -90.5t219 49l56 -160q-144 -61 -267 -61zM1755 -47v1464h-1464v-1464h1464zM141 1567h1764v-1764
h-1764v1764z" />
    <glyph glyph-name="uniEA03" unicode="&#xea03;" horiz-adv-x="2048" 
d="M1027 1036q-130 0 -130 -104q0 -37 20.5 -63.5t79.5 -45.5l103 -32q135 -45 201.5 -107.5t66.5 -187.5t-96 -209t-267 -84q-170 0 -327 92l61 160q47 -33 124 -57.5t151 -24.5q150 0 149 114q0 45 -28.5 71t-106.5 50l-104 33q-133 43 -182.5 111.5t-49.5 158.5
q0 135 90 215t252 80t293 -67l-57 -160q-113 57 -243 57zM1755 -47v1464h-1464v-1464h1464zM141 1567h1764v-1764h-1764v1764z" />
    <glyph glyph-name="uniEA04" unicode="&#xea04;" horiz-adv-x="2048" 
d="M1225 225h200v961h-200v-393h-400v393h-200v-961h200v400h400v-400zM141 1567h1764v-1764h-1764v1764z" />
    <glyph glyph-name="uniEA05" unicode="&#xea05;" horiz-adv-x="2048" 
d="M1088 1206q-128 0 -215 -36.5t-147 -102.5t-91 -158t-31 -262t123 -307t346 -137q129 0 277 61l-56 160q-103 -49 -191.5 -49t-135.5 24.5t-99.5 91t-52.5 213.5q0 148 69.5 239t187.5 91t222 -49l56 160q-134 61 -262 61zM141 1567h1764v-1764h-1764v1764z" />
    <glyph glyph-name="uniEA06" unicode="&#xea06;" horiz-adv-x="2048" 
d="M1368 496q0 125 -66.5 187t-201.5 108l-103 32q-59 18 -79.5 45t-20.5 64q-1 104 129 104t244 -57l57 160q-130 67 -293 67q-162 0 -252 -79.5t-90 -215.5q0 -90 49.5 -158.5t182.5 -111.5l104 -33q78 -25 106.5 -50.5t28.5 -70.5q0 -115 -149 -114q-74 0 -151 24.5
t-124 57.5l-61 -160q157 -92 327 -92t266.5 84t96.5 209zM141 1567h1764v-1764h-1764v1764z" />
    <glyph glyph-name="uniF6C3" unicode="&#xf6c3;" 
d="M639 -156v-14l-64 -276h-90v14l33 276h121z" />
    <glyph glyph-name="uniF6E1" unicode="&#xf6e1;" horiz-adv-x="348" 
d="M242 -121v-10l-78 -320h-80v13l37 317h121z" />
    <glyph glyph-name="uniF6E2" unicode="&#xf6e2;" horiz-adv-x="346" 
d="M242 1092v-11l-78 -319h-80v12l37 318h121z" />
    <glyph glyph-name="uniF6E5" unicode="&#xf6e5;" horiz-adv-x="468" 
d="M106 72v82h256v-82h-256z" />
    <glyph glyph-name="uniF6E6" unicode="&#xf6e6;" horiz-adv-x="468" 
d="M106 1284v82h256v-82h-256z" />
    <glyph glyph-name="uniF6E7" unicode="&#xf6e7;" horiz-adv-x="350" 
d="M94 -174q0 40 22 62t60 22t58 -23q22 -23 22 -61t-22 -63q-22 -23 -60 -23t-58 24q-22 24 -22 62z" />
    <glyph glyph-name="uniF6E8" unicode="&#xf6e8;" horiz-adv-x="348" 
d="M256 1038q0 -38 -22 -62t-60 -24t-58 24q-22 24 -22 62q0 39 22 62q22 22 60 22t58 -22q22 -22 22 -62z" />
    <glyph glyph-name="uniF8FF" unicode="&#xf8ff;" horiz-adv-x="1193" 
d="M901 119v1155h-608v-1155h608zM174 1393h846v-1393h-846v1393z" />
    <glyph glyph-name="uniFB01" unicode="&#xfb01;" horiz-adv-x="1124" 
d="M805 1286q0 43 24.5 66.5t61.5 23.5t61.5 -23.5t24.5 -66.5t-24.5 -66.5t-61.5 -23.5t-61.5 23.5t-24.5 66.5zM479 1341q-63 0 -100 -40.5t-37 -145.5v-168h604v-987h-110v889h-494v-889h-111v889h-161v76l161 22v164q0 293 256 293q52 0 127 -17v-102q-72 16 -135 16z
" />
    <glyph glyph-name="uniFB02" unicode="&#xfb02;" horiz-adv-x="1153" 
d="M479 1341q-137 0 -137 -186v-168h264v-98h-264v-889h-111v889h-161v76l161 22v164q0 293 256 293q52 0 127 -17v-102q-72 16 -135 16zM854 0v1434h113v-1434h-113z" />
    <glyph glyph-name="zero.pnum" horiz-adv-x="1255" 
d="M150 696q0 530 268 677q90 50 211 50t211 -50q268 -149 268 -676t-268 -678q-90 -50 -211 -50q-237 0 -358 190t-121 537zM628 1311q-358 -1 -358 -615t358 -614t359 614q-1 614 -359 615z" />
    <glyph glyph-name="one.pnum" horiz-adv-x="722" 
d="M82 1116v109l342 168h94v-1393h-115v1266h-4l-305 -150h-12z" />
    <glyph glyph-name="two.pnum" horiz-adv-x="1026" 
d="M479 1311q-165 0 -297 -137l-65 83q75 75 131 105q116 61 220 61q198 -1 310 -113t113 -288q0 -132 -56 -238t-151 -211l-416 -460v-4h613v-109h-766v100l473 535q105 123 143 198q39 76 39 163q0 222 -171 292q-54 23 -120 23z" />
    <glyph glyph-name="three.pnum" horiz-adv-x="1071" 
d="M807 373q0 197 -154 265q-59 26 -149 26h-215v108h225q127 0 196 74t68 190q0 191 -154 253q-52 22 -120 22q-158 0 -320 -86l-39 98q68 41 165 71q98 30 196 30t172 -30q221 -88 221 -374q0 -100 -53 -180t-139 -117v-4q96 -31 158 -119q63 -88 63 -204
q1 -205 -123 -316q-123 -111 -329 -111t-372 115l50 96q152 -98 340 -98q138 0 226 77q87 77 87 214z" />
    <glyph glyph-name="four.pnum" horiz-adv-x="1118" 
d="M741 1004h115v-596h176v-109h-176v-299h-115v299h-649v86l414 1008h119l-400 -981v-4h516v596z" />
    <glyph glyph-name="five.pnum" horiz-adv-x="1042" 
d="M797 406q0 307 -317 307q-153 0 -273 -25l-12 19l79 686h598v-109h-499l-58 -471q87 12 148 12q455 0 455 -419q0 -212 -136 -324q-136 -113 -334 -113q-200 0 -350 84l37 103q154 -76 314 -75t247 77q101 84 101 248z" />
    <glyph glyph-name="six.pnum" horiz-adv-x="1101" 
d="M240 430q0 -156 85 -252t235 -96t234 96q85 96 85 252t-85 252t-235 96q-151 0 -235 -96t-84 -252zM583 891q84 0 163 -33q80 -33 136 -93q119 -127 118 -334t-119 -334q-117 -128 -321 -128q-203 0 -322 127t-119 334q0 136 39 238t98 200l309 525h133v-13l-352 -573
l2 -2q86 86 235 86z" />
    <glyph glyph-name="seven.pnum" horiz-adv-x="937" 
d="M737 1284h-659v109h784v-95l-469 -1298h-119v14l463 1266v4z" />
    <glyph glyph-name="eight.pnum" horiz-adv-x="1187" 
d="M594 788q141 0 213 69t72 195t-72 194t-214 67q-142 0 -212 -68q-70 -67 -70 -193t71 -195t212 -69zM594 1423q200 0 304 -106q103 -106 102 -269q-1 -164 -119 -267q-33 -28 -66 -42v-4q104 -41 169 -136t65 -201t-27 -181q-27 -74 -83 -129t-142 -87t-203 -32
q-222 0 -337 114q-116 114 -116 294q0 127 65 222t169 136v4q-72 31 -128 110q-56 80 -56 180q-3 276 223 365q76 29 180 29zM595 80q173 0 253 84t80 216t-80 216t-254 84t-253 -84t-79 -216t80 -216t253 -84z" />
    <glyph glyph-name="nine.pnum" horiz-adv-x="1101" 
d="M864 963q0 155 -85 251t-234 96t-235 -96t-85 -252q0 -156 85 -251q84 -97 234 -97t235 96t85 253zM985 946q0 -120 -39 -222t-98 -200l-309 -524h-133v12l352 574l-2 2q-87 -86 -235 -86q-83 0 -163 33t-136 93q-119 127 -118 335q1 207 120 334q119 128 322 127
t321 -128t118 -350z" />
    <glyph glyph-name="a.salt" horiz-adv-x="1099" 
d="M922 0h-88l-19 86h-4q-53 -41 -126 -79t-174 -38q-191 0 -287.5 144.5t-96.5 379.5q0 234 95 379.5t282 145.5q109 0 181.5 -38t125.5 -79h4l16 86h91v-987zM809 795q-134 120 -283 120t-215.5 -116t-66.5 -359t100 -305.5t174 -62.5q163 0 291 121v602z" />
    <glyph glyph-name="agrave.aalt" horiz-adv-x="1099" 
d="M922 0h-88l-19 86h-4q-53 -41 -126 -79t-174 -38t-172 39q-140 77 -188 276q-24 95 -24 209q0 229 95 377t282 148q110 0 182 -38t125 -79h4l16 86h91v-987zM244 494q0 -293 148 -390q52 -33 126 -32q163 0 291 121v602q-136 122 -283 121q-148 -1 -215 -116
q-67 -116 -67 -306zM395 1430h125l101 -228v-12h-101l-125 227v13z" />
    <glyph glyph-name="aacute.aalt" horiz-adv-x="1099" 
d="M922 0h-88l-19 86h-4q-53 -41 -126 -79t-174 -38t-172 39q-140 77 -188 276q-24 95 -24 209q0 229 95 377t282 148q110 0 182 -38t125 -79h4l16 86h91v-987zM244 494q0 -293 148 -390q52 -33 126 -32q163 0 291 121v602q-136 122 -283 121q-148 -1 -215 -116
q-67 -116 -67 -306zM494 1190v12l98 228h125v-13l-125 -227h-98z" />
    <glyph glyph-name="acircumflex.aalt" horiz-adv-x="1099" 
d="M922 0h-88l-19 86h-4q-53 -41 -126 -79t-174 -38t-172 39q-140 77 -188 276q-24 95 -24 209q0 229 95 377t282 148q110 0 182 -38t125 -79h4l16 86h91v-987zM244 494q0 -293 148 -390q52 -33 126 -32q163 0 291 121v602q-136 122 -283 121q-148 -1 -215 -116
q-67 -116 -67 -306zM801 1190h-113l-129 149l-127 -149h-113v10l191 230h100l191 -230v-10z" />
    <glyph glyph-name="atilde.aalt" horiz-adv-x="1099" 
d="M922 0h-88l-19 86h-4q-53 -41 -126 -79t-174 -38t-172 39q-140 77 -188 276q-24 95 -24 209q0 229 95 377t282 148q110 0 182 -38t125 -79h4l16 86h91v-987zM244 494q0 -293 148 -390q52 -33 126 -32q163 0 291 121v602q-136 122 -283 121q-148 -1 -215 -116
q-67 -116 -67 -306zM457 1364q46 0 111 -40q64 -40 94 -40q55 0 106 72l45 -66q-62 -100 -154 -100q-45 0 -111 39t-95 41q-57 0 -105 -74l-47 66q63 102 156 102z" />
    <glyph glyph-name="adieresis.aalt" horiz-adv-x="1099" 
d="M922 0h-88l-19 86h-4q-53 -41 -126 -79t-174 -38t-172 39q-140 77 -188 276q-24 95 -24 209q0 229 95 377t282 148q110 0 182 -38t125 -79h4l16 86h91v-987zM244 494q0 -293 148 -390q52 -33 126 -32q163 0 291 121v602q-136 122 -283 121q-148 -1 -215 -116
q-67 -116 -67 -306zM647 1286q0 43 25 67q26 23 62 23t61 -24t25 -66t-26 -66q-24 -24 -61 -24t-61 24t-25 66zM299 1286q0 43 25 67q26 23 62 23t60 -24t25 -66q0 -42 -25 -66q-26 -24 -62 -24t-60 24t-25 66z" />
    <glyph glyph-name="aring.aalt" horiz-adv-x="1099" 
d="M391 1279q0 77 47 122t120 45t119 -45t46 -122t-46 -122t-119 -45t-120 45t-47 122zM471 1279q0 -42 23 -66q24 -23 64 -23t64 24t24 65q0 42 -24 66q-24 23 -65 23t-63 -24t-23 -65zM922 0h-88l-19 86h-4q-53 -41 -126 -79t-174 -38t-172 39q-140 77 -188 276
q-24 95 -24 209q0 229 95 377t282 148q110 0 182 -38t125 -79h4l16 86h91v-987zM244 494q0 -293 148 -390q52 -33 126 -32q163 0 291 121v602q-136 122 -283 121q-148 -1 -215 -116q-67 -116 -67 -306z" />
    <glyph glyph-name="amacron.aalt" horiz-adv-x="1099" 
d="M922 0h-88l-19 86h-4q-53 -41 -126 -79t-174 -38t-172 39q-140 77 -188 276q-24 95 -24 209q0 229 95 377t282 148q110 0 182 -38t125 -79h4l16 86h91v-987zM244 494q0 -293 148 -390q52 -33 126 -32q163 0 291 121v602q-136 122 -283 121q-148 -1 -215 -116
q-67 -116 -67 -306zM324 1219v98h467v-98h-467z" />
    <glyph glyph-name="abreve.aalt" horiz-adv-x="1099" 
d="M922 0h-88l-19 86h-4q-53 -41 -126 -79t-174 -38t-172 39q-140 77 -188 276q-24 95 -24 209q0 229 95 377t282 148q110 0 182 -38t125 -79h4l16 86h91v-987zM244 494q0 -293 148 -390q52 -33 126 -32q163 0 291 121v602q-136 122 -283 121q-148 -1 -215 -116
q-67 -116 -67 -306zM558 1270q79 0 123 28t75 68l53 -49q-37 -63 -95 -105t-154 -41q-173 0 -253 146l53 49q31 -40 75 -68t123 -28z" />
    <glyph glyph-name="aogonek.aalt" horiz-adv-x="1099" 
d="M244 494q0 -293 148 -390q52 -33 126 -32q163 0 291 121v602q-136 122 -283 121q-148 -1 -215 -116q-67 -116 -67 -306zM783 -436q-81 0 -129 47t-48 113q0 106 80 192q39 42 140 117l-11 53h-4q-53 -41 -126 -79t-174 -38t-172 39q-140 77 -188 276q-24 95 -24 209
q0 229 95 377t282 148q110 0 182 -38t125 -79h4l16 86h91v-987q-109 -80 -162 -131t-53 -101q0 -110 90 -110q55 0 127 47l14 -86q-74 -55 -155 -55z" />
    <glyph glyph-name="aringacute.aalt" horiz-adv-x="1099" 
d="M922 0h-88l-19 86h-4q-53 -41 -126 -79t-174 -38t-172 39q-140 77 -188 276q-24 95 -24 209q0 229 95 377t282 148q110 0 182 -38t125 -79h4l16 86h91v-987zM244 494q0 -293 148 -390q52 -33 126 -32q163 0 291 121v602q-136 122 -283 121q-148 -1 -215 -116
q-67 -116 -67 -306zM558 1381q76 0 122 -42t46 -114q0 -71 -46 -113q-48 -42 -122 -42t-122 42t-49 113q0 72 48 114t123 42zM647 1225q0 39 -24 61t-66 22q-41 0 -65 -22t-24 -61t24 -61t65 -22q42 0 66 22t24 61zM514 1409v12l97 222h124v-12l-124 -222h-97z" />
    <glyph glyph-name="uni0444.aalt" horiz-adv-x="1269" 
d="M690 911v-837q336 33 336 419q0 385 -336 418zM125 619.5q0 348.5 453 394.5v420h112v-420q239 -23 346 -162t107 -422.5t-164 -366.5t-289 -90v-379h-112v379q-235 11 -344 154.5t-109 492zM578 911q-336 -33 -336 -419t336 -418v837z" />
    <glyph glyph-name="Euro.aalt" 
d="M365 473q66 -393 370 -393q160 0 279 74l35 -97q-135 -88 -297 -88q-322 0 -405 193.5t-101 310.5h-174v98h161q-4 62 -4 108v47q0 48 4 77h-161v98h174q79 522 506 522q72 0 155.5 -22.5t149.5 -65.5l-31 -102q-127 80 -289 80q-163 0 -254.5 -109.5t-117.5 -302.5h462
v-98h-477q-2 -29 -2 -35v-87q0 -81 4 -110h482v-98h-469z" />
    <glyph glyph-name="uni20A8.aalt" 
d="M967 1049v-99h-166q-15 -162 -129.5 -241.5t-286.5 -79.5h-45l475 -619v-10h-131l-502 649v78h199q262 0 297 223h-496v99h498q-20 236 -299 235h-199v109h785v-99h-312v-4q128 -72 146 -241h166z" />
    <glyph glyph-name="registered.aalt" horiz-adv-x="1708" 
d="M137 696.5q0 153.5 52.5 286.5t147.5 231.5t227 153.5t290 55t290 -55t227 -153.5t147.5 -231.5t52.5 -286.5t-52.5 -287t-147.5 -231.5t-227 -154.5t-290 -56.5t-290 56.5t-227 154.5t-147.5 231.5t-52.5 287zM404 236q177 -183 450 -183t450 183t177 459.5t-176.5 459
t-450.5 182.5t-450.5 -182.5t-176.5 -459t177 -459.5zM868 731q70 0 113 27.5t43 100.5t-43 97.5t-113 24.5h-184v-250h184zM1137 858q0 -175 -189 -215l238 -311v-19h-121l-240 326h-141v-326h-109v766h302q260 0 260 -221z" />
    <glyph glyph-name="guillemotleft.aalt" horiz-adv-x="1009" 
d="M129 702l287 420l76 -55l-246 -369l243 -368l-73 -56l-287 420v8zM502 702l286 420l76 -55l-246 -369l244 -368l-74 -56l-286 420v8z" />
    <glyph glyph-name="bracketleft.aalt" horiz-adv-x="630" 
d="M535 1618v-84l-234 -23v-1630l234 -22v-80h-349v1839h349z" />
    <glyph glyph-name="guilsinglright.aalt" horiz-adv-x="638" 
d="M510 694l-287 -420l-73 56l241 368l-246 369l78 55l287 -420v-8z" />
    <glyph glyph-name="bar.aalt" horiz-adv-x="477" 
d="M291 -221h-105v1839h105v-1839z" />
    <glyph glyph-name="periodcentered.aalt" horiz-adv-x="528" 
d="M162 707q0 45 28 75t74 29q47 0 75 -30q28 -31 28 -75t-28 -74t-75 -30t-75 30q-27 30 -27 75z" />
    <glyph glyph-name="bullet.aalt" horiz-adv-x="641" 
d="M201 696q0 59 32 94q33 34 89 34t90 -34q32 -34 32 -94t-32 -93q-32 -34 -89 -34q-56 0 -90 34q-32 34 -32 93z" />
    <glyph glyph-name="emdash.aalt" horiz-adv-x="1718" 
d="M166 649v99h1386v-99h-1386z" />
    <glyph glyph-name="bracketright.aalt" horiz-adv-x="630" 
d="M444 1618v-1839h-348v80l234 22v1630l-234 23v84h348z" />
    <glyph glyph-name="endash.aalt" horiz-adv-x="1085" 
d="M166 649v99h754v-99h-754z" />
    <glyph glyph-name="hyphen.case" horiz-adv-x="833" 
d="M174 655v99h485v-99h-485z" />
    <glyph glyph-name="guillemotright.aalt" horiz-adv-x="1011" 
d="M510 694l-287 -420l-73 56l241 368l-246 369l78 55l287 -420v-8zM883 694l-287 -420l-74 56l242 368l-246 369l78 55l287 -420v-8z" />
    <glyph glyph-name="parenleft.case" horiz-adv-x="569" 
d="M266 692q0 -488 191 -909l-86 -45q-106 226 -149 385q-75 282 -77 571q0 398 138 751q41 105 88 206l86 -45q-191 -426 -191 -914z" />
    <glyph glyph-name="guilsinglleft.aalt" horiz-adv-x="636" 
d="M129 702l287 420l76 -55l-246 -369l243 -368l-73 -56l-287 420v8z" />
    <glyph glyph-name="braceright.aalt" horiz-adv-x="645" 
d="M285 1341q0 105 -37 149t-144 44v84h17q164 0 221 -64t57 -213v-438q0 -73 29 -113t107 -40v-103q-78 0 -107 -40t-29 -113v-439q1 -150 -57 -213q-57 -63 -221 -63h-17v84q106 0 144 44q37 44 37 148v420q0 94 28 146q29 51 84 75v4q-114 52 -112 222v419z" />
    <glyph glyph-name="braceleft.aalt" horiz-adv-x="645" 
d="M111 750q79 0 107 40t28 113v438q0 150 58 213q58 64 220 64h17v-84q-105 0 -143 -44t-38 -149v-419q0 -94 -28 -146q-29 -51 -86 -76v-4q57 -26 86 -76t28 -145v-420q0 -104 37 -148t144 -44v-84h-17q-162 0 -220 63t-58 213v439q0 74 -29 114t-106 39v103z" />
    <glyph glyph-name="parenright.case" horiz-adv-x="569" 
d="M303 693q0 487 -190 913l86 45q108 -230 149 -386q76 -290 76 -571q0 -390 -137 -750q-41 -105 -88 -206l-86 45q190 423 190 910z" />
    <glyph glyph-name="minus.case" horiz-adv-x="1638" 
d="M1239 748v-99h-860v99h860z" />
    <glyph glyph-name="zero.frac" horiz-adv-x="692" 
d="M84 1057q0 168 69 259t193 91t194 -91q68 -91 68 -259t-68 -260t-194 -92t-194 92t-68 260zM188 1057q0 -133 38 -195t120 -63q82 0 120 62q38 61 38 195t-38 195t-120 61t-120 -60q-38 -62 -38 -195z" />
    <glyph glyph-name="one.frac" horiz-adv-x="458" 
d="M57 1190v92l215 111h72v-670h-94v555h-2l-178 -88h-13z" />
    <glyph glyph-name="two.frac" horiz-adv-x="589" 
d="M272 1407q104 0 166 -58q62 -59 62 -143t-31 -135t-74 -92l-176 -166v-2h287v-88h-430v72l229 227q39 37 65 76t26 95t-34 88q-33 32 -95 32t-142 -74l-51 74q94 94 198 94z" />
    <glyph glyph-name="three.frac" horiz-adv-x="604" 
d="M252 801q73 0 118 21q44 22 44 89q0 106 -154 107h-102v88h102q76 0 108 30t31 72q0 105 -127 105q-92 0 -157 -39l-31 86q84 47 190 47t170 -48q64 -47 64 -121t-32 -114t-70 -55v-2q112 -43 112 -164q0 -92 -68 -144t-182 -52q-113 0 -200 49l28 88q83 -43 156 -43z
" />
    <glyph glyph-name="four.frac" horiz-adv-x="636" 
d="M401 1212h95v-258h77v-88h-77v-143h-95v143h-340v82l195 445h104l-190 -437v-2h231v258z" />
    <glyph glyph-name="five.frac" horiz-adv-x="585" 
d="M241 1047q-89 0 -122 -5l-13 13l41 338h332v-88h-246l-18 -164h51q110 0 176 -52t66 -162t-69 -165t-179 -55t-194 41l22 88q75 -35 159 -35q83 1 120 31t37 94t-37 93q-37 28 -126 28z" />
    <glyph glyph-name="six.frac" horiz-adv-x="624" 
d="M180 940q0 -59 37 -99t103 -40t102 40q37 40 37 99t-37 98t-103 39q-67 0 -103 -39t-36 -98zM342 1171q100 0 161 -64q60 -65 60 -165t-67 -168q-68 -67 -178 -67t-176 66t-66 160t59 189l172 271h113v-11l-146 -223v-2q35 14 68 14z" />
    <glyph glyph-name="seven.frac" horiz-adv-x="526" 
d="M367 1305h-312v88h422v-70l-237 -600h-105v10l232 570v2z" />
    <glyph glyph-name="eight.frac" horiz-adv-x="638" 
d="M319 1120q57 0 83 28t26 69t-26 69t-83 27q-57 0 -83 -28q-26 -29 -25 -69q-1 -40 25 -68t83 -28zM440 1075q117 -43 117 -185q0 -73 -60 -128q-59 -55 -177 -55t-178 55q-60 56 -60 128q0 143 117 185v2q-93 55 -93 142q0 88 56 138t157 50t157 -50t56 -138t-92 -142v-2
zM319 801q72 0 103 33q31 32 31 78t-31 80t-103 34q-73 0 -103 -34t-30 -80t30 -78t103 -33z" />
    <glyph glyph-name="nine.frac" horiz-adv-x="624" 
d="M444 1176q0 59 -36 99q-37 40 -103 40q-67 0 -103 -40t-36 -99q0 -58 37 -98t103 -40t102 39q36 40 36 99zM283 944q-100 0 -161 65q-60 65 -60 166t67 167q68 67 179 67t175 -66t65 -161t-59 -189l-172 -270h-112v10l145 223v2q-35 -14 -67 -14z" />
    <glyph glyph-name="comma.numr" horiz-adv-x="346" 
d="M242 846v-10l-78 -320h-80v12l37 318h121z" />
    <glyph glyph-name="plus.numr" horiz-adv-x="518" 
d="M305 1118h137v-84h-137v-149h-88v149h-137v84h137v152h88v-152z" />
    <glyph glyph-name="hyphen.numr" horiz-adv-x="468" 
d="M106 1038v82h256v-82h-256z" />
    <glyph glyph-name="minus.numr" horiz-adv-x="573" 
d="M106 1038v82h361v-82h-361z" />
    <glyph glyph-name="parenleft.numr" horiz-adv-x="352" 
d="M217 608q-137 227 -137 442t137 453l62 -35q-103 -206 -103 -415t103 -410z" />
    <glyph glyph-name="period.numr" horiz-adv-x="348" 
d="M94 793q0 39 22 61t60 23q38 0 58 -23q22 -24 22 -62t-22 -62t-60 -24t-58 24q-22 24 -22 63z" />
    <glyph glyph-name="parenright.numr" horiz-adv-x="350" 
d="M76 643q201 410 0 825l61 35q135 -234 135 -453q0 -218 -135 -442z" />
    <glyph glyph-name="zero.dnom" horiz-adv-x="692" 
d="M84 334q0 168 68.5 259t193.5 91t193.5 -91t68.5 -259t-68.5 -260t-193.5 -92t-193.5 92t-68.5 260zM188 334q0 -133 38 -195.5t120 -62.5t120 62.5t38 195.5t-38 194.5t-120 61.5t-120 -61.5t-38 -194.5z" />
    <glyph glyph-name="one.dnom" horiz-adv-x="460" 
d="M57 467v92l215 111h72v-670h-94v555h-2l-178 -88h-13z" />
    <glyph glyph-name="two.dnom" horiz-adv-x="589" 
d="M272 684q104 0 166 -58.5t62 -142.5t-31 -135t-74 -92l-176 -166v-2h287v-88h-430v72l229 227q39 37 64.5 76t25.5 95t-32.5 88t-84.5 32t-88 -23.5t-65 -50.5l-51 74q94 94 198 94z" />
    <glyph glyph-name="three.dnom" horiz-adv-x="604" 
d="M252 78q73 0 117.5 21.5t44.5 88.5q0 106 -154 107h-102v88h102q76 0 107.5 29.5t31.5 72.5q0 105 -127 105q-89 0 -157 -39l-31 86q84 47 190 47t170 -48t64 -122t-32 -113t-70 -55v-2q112 -43 112 -164q0 -92 -68 -144t-158 -52q-140 0 -224 49l28 88q83 -43 156 -43z
" />
    <glyph glyph-name="four.dnom" horiz-adv-x="634" 
d="M401 489h95v-258h77v-88h-77v-143h-95v143h-340v82l195 445h104l-190 -437v-2h231v258z" />
    <glyph glyph-name="five.dnom" horiz-adv-x="585" 
d="M241 324q-89 0 -122 -5l-13 13l41 338h332v-88h-246l-18 -164h51q111 0 176.5 -52t65.5 -162t-68 -165t-180 -55t-194 41l22 88q75 -35 159 -35q83 0 119.5 31t36.5 95t-36.5 92t-125.5 28z" />
    <glyph glyph-name="six.dnom" horiz-adv-x="624" 
d="M180 217q0 -59 37 -99t102.5 -40t102.5 40t37 99t-37 98t-102.5 39t-102.5 -39t-37 -98zM342 449q100 0 160.5 -65t60.5 -165t-66.5 -167.5t-178.5 -67.5q-111 0 -176.5 67t-65.5 159q0 93 59 189l172 271h113v-11l-146 -223v-2q38 15 68 15z" />
    <glyph glyph-name="seven.dnom" horiz-adv-x="524" 
d="M367 582h-312v88h422v-70l-237 -600h-105v10l232 570v2z" />
    <glyph glyph-name="eight.dnom" horiz-adv-x="638" 
d="M319.5 397q57.5 0 83 28t25.5 69t-25.5 68.5t-83 27.5t-83 -27.5t-25.5 -68.5t25.5 -69t83 -28zM440 352q117 -43 117 -185q0 -73 -60.5 -128t-177 -55t-177 55t-60.5 127q0 144 117 186v2q-93 55 -93 142q0 88 56.5 138t157 50t156.5 -50t56 -138t-92 -142v-2zM319.5 78
q71.5 0 102.5 32.5t31 78.5t-31 80t-102.5 34t-102.5 -33.5t-31 -79.5t31 -79t102.5 -33z" />
    <glyph glyph-name="nine.dnom" horiz-adv-x="624" 
d="M444 452.5q0 59.5 -36.5 99.5t-102 40t-102.5 -40t-37 -99.5t37 -98.5t102.5 -39t102 39t36.5 98.5zM283 221q-100 0 -161 64.5t-61 165.5t68.5 168t177.5 67t175.5 -66.5t66.5 -159.5t-60 -190l-172 -270h-112v10l145 223v3q-37 -15 -67 -15z" />
    <glyph glyph-name="comma.dnom" horiz-adv-x="348" 
d="M242 123v-10l-78 -320h-80v12l37 318h121z" />
    <glyph glyph-name="plus.dnom" horiz-adv-x="524" 
d="M307 395h137v-84h-137v-149h-88v149h-137v84h137v152h88v-152z" />
    <glyph glyph-name="parenright.dnom" horiz-adv-x="458" 
d="M188 780q136 -236 136 -455t-136 -440l-61 35q100 204 100 410t-100 415z" />
    <glyph glyph-name="hyphen.dnom" horiz-adv-x="468" 
d="M106 315v82h256v-82h-256z" />
    <glyph glyph-name="minus.dnom" horiz-adv-x="573" 
d="M106 315v82h361v-82h-361z" />
    <glyph glyph-name="parenleft.dnom" horiz-adv-x="350" 
d="M217 -115q-137 227 -137 442t137 453l62 -35q-103 -206 -103 -417t103 -408z" />
    <glyph glyph-name="period.dnom" horiz-adv-x="350" 
d="M94 70q0 39 21.5 61.5t59.5 22.5t59.5 -22.5t21.5 -61.5t-21.5 -62.5t-59.5 -23.5t-59.5 23.5t-21.5 62.5z" />
    <glyph glyph-name="minus.sinf" horiz-adv-x="573" 
d="M106 72v82h361v-82h-361z" />
    <glyph glyph-name="plus.sinf" horiz-adv-x="524" 
d="M307 152h137v-84h-137v-150h-88v150h-137v84h137v151h88v-151z" />
    <glyph glyph-name="glyph715" 
d="M479 1178v14l66 276h88v-14l-33 -276h-121z" />
    <glyph glyph-name="glyph716" 
d="M639 1393v-15l-66 -276h-90v14l33 277h123z" />
    <glyph glyph-name="glyph717" 
d="M639 -156v-14l-66 -276h-90v14l33 276h123z" />
    <glyph glyph-name="glyph718" 
d="M451 1767h129l94 -229v-12h-103l-120 229v12z" />
    <glyph glyph-name="glyph719" 
d="M449 1526v12l94 229h129v-12l-121 -229h-102z" />
    <glyph glyph-name="glyph720" 
d="M803 1526h-115l-127 149l-125 -149h-114v12l190 229h100l191 -229v-12z" />
    <glyph glyph-name="glyph721" 
d="M322 1767h114l125 -149l127 149h115v-12l-191 -229h-100l-190 229v12z" />
    <glyph glyph-name="glyph722" 
d="M461 1737q41 0 89 -28t71.5 -40t50.5 -12q50 0 100 72l45 -68q-63 -102 -153 -102q-42 0 -111 39.5t-96 39.5q-59 0 -105 -71l-47 67q66 103 156 103z" />
    <glyph glyph-name="glyph723" 
d="M647 1647q0 43 24.5 66.5t61.5 23.5t61.5 -23.5t24.5 -66.5t-24.5 -67t-61.5 -24t-61.5 24t-24.5 67zM299 1647q0 43 24.5 66.5t61.5 23.5t61.5 -23.5t24.5 -66.5t-24.5 -67t-61.5 -24t-61.5 24t-24.5 67z" />
    <glyph glyph-name="glyph724" 
d="M326 1606v100h467v-100h-467z" />
    <glyph glyph-name="glyph725" horiz-adv-x="1208" 
d="M543 1110v12l47 271h119v-13l-82 -270h-84z" />
    <glyph glyph-name="glyph726" 
d="M811 1710q-85 -145 -253 -145t-249 145l53 51q31 -39 75 -67.5t123 -28.5t123 28.5t75 67.5z" />
    <glyph glyph-name="glyph727" 
d="M395 1673q0 78 47 122t120 44t119 -44t46 -122t-46 -122t-119 -44t-120 44t-47 122zM538.5 1761q-63.5 0 -63.5 -88t63.5 -88t87 22.5t23.5 65.5t-23.5 65.5t-87 22.5z" />
    <glyph glyph-name="glyph728" 
d="M575 1526v12l101 229h127v-12l-125 -229h-103zM315 1526v12l101 229h127v-12l-127 -229h-101z" />
    <glyph glyph-name="glyph729" 
d="M471 1647q0 43 24.5 66.5t61.5 23.5t61.5 -23.5t24.5 -66.5t-24.5 -67t-61.5 -24t-61.5 24t-24.5 67z" />
    <glyph glyph-name="glyph730" 
d="M614 -436q-78 0 -126 47t-48 109q0 101 51.5 170.5t163.5 172.5l54 -63q-82 -80 -125 -134t-43 -104q0 -104 88 -104q35 0 61.5 13.5t54.5 29.5l15 -86q-68 -51 -146 -51z" />
    </font>
</defs>
</svg>
